{
.appVersion = "1290";
classes = (
{
automatic = 1;

glyphs = (
{
glyphname = A;
layers = (
{
anchors = (
{
name = bottom;
position = "{292, 0}";
},
{
name = ogonek;
position = "{585, 0}";
},
{
name = top;
position = "{430, 688}";
}
);
background = {
paths = (
{
closed = 1;
nodes = (
"546 0 LINE",
"585 0 LINE",
"448 688 LINE",
"413 688 LINE",
"-17 0 LINE",
"20 0 LINE",
"159 222 LINE",
"503 222 LINE"
);
},
{
closed = 1;
nodes = (
"422 637 LINE",
"496 256 LINE",
"180 256 LINE",
"417 637 LINE"
);
}
);
};
layerId = "CD898CA3-FB76-4965-A23E-9AA06D1CE2B1";
paths = (
{
closed = 1;
nodes = (
"22 0 LINE",
"161 222 LINE",
"505 222 LINE",
"548 0 LINE",
"585 0 LINE",
"448 688 LINE",
"413 688 LINE",
"-17 0 LINE"
);
},
{
closed = 1;
nodes = (
"419 637 LINE",
"424 637 LINE",
"498 256 LINE",
"182 256 LINE"
);
}
);
width = 683;
},
{
anchors = (
{
name = bottom;
position = "{303, 0}";
},
{
name = ogonek;
position = "{647, 0}";
},
{
name = top;
position = "{441, 688}";
}
);
background = {
paths = (
{
closed = 1;
nodes = (
"415 0 LINE",
"647 0 LINE",
"603 688 LINE",
"278 688 LINE",
"-59 0 LINE",
"167 0 LINE",
"213 103 LINE",
"412 103 LINE"
);
},
{
closed = 1;
nodes = (
"401 500 LINE",
"407 263 LINE",
"285 263 LINE",
"392 500 LINE"
);
}
);
};
layerId = "B4DE345C-CFDB-4A54-B125-3358BD91D59F";
paths = (
{
closed = 1;
nodes = (
"174 0 LINE",
"220 103 LINE",
"419 103 LINE",
"422 0 LINE",
"647 0 LINE",
"603 688 LINE",
"278 688 LINE",
"-59 0 LINE"
);
},
{
closed = 1;
nodes = (
"399 500 LINE",
"408 500 LINE",
"414 263 LINE",
"292 263 LINE"
);
}
);
width = 697;
},
{
anchors = (
{
name = bottom;
position = "{167, 0}";
},
{
name = ogonek;
position = "{372, 0}";
},
{
name = top;
position = "{306, 688}";
}
);
layerId = "47937877-2CF8-49A0-A6AF-2B1A27CB5FF4";
paths = (
{
closed = 1;
nodes = (
"109 0 LINE",
"148 124 LINE",
"235 124 LINE",
"220 0 LINE",
"372 0 LINE",
"426 688 LINE",
"193 688 LINE",
"-46 0 LINE"
);
},
{
closed = 1;
nodes = (
"277 543 LINE",
"284 543 LINE",
"250 259 LINE",
"189 259 LINE"
);
}
);
width = 427;
},
{
anchors = (
{
name = bottom;
position = "{162, 0}";
},
{
name = ogonek;
position = "{338, 0}";
},
{
name = top;
position = "{305, 688}";
}
);
background = {
paths = (
{
closed = 1;
nodes = (
"301 0 LINE",
"338 0 LINE",
"325 688 LINE",
"284 688 LINE",
"-22 0 LINE",
"14 0 LINE",
"109 217 LINE",
"298 217 LINE"
);
},
{
closed = 1;
nodes = (
"291 617 LINE",
"297 251 LINE",
"124 251 LINE",
"286 617 LINE"
);
}
);
};
layerId = "FA01890A-5211-455F-9108-1209F66A586C";
paths = (
{
closed = 1;
nodes = (
"16 0 LINE",
"111 217 LINE",
"300 217 LINE",
"303 0 LINE",
"338 0 LINE",
"325 688 LINE",
"284 688 LINE",
"-22 0 LINE"
);
},
{
closed = 1;
nodes = (
"288 617 LINE",
"293 617 LINE",
"299 251 LINE",
"126 251 LINE"
);
}
);
width = 401;
},
{
anchors = (
{
name = bottom;
position = "{314, 0}";
},
{
name = ogonek;
position = "{643, 0}";
},
{
name = top;
position = "{452, 688}";
}
);
layerId = "20A7088A-67D7-4614-84CF-19C576DDC019";
paths = (
{
closed = 1;
nodes = (
"100 0 LINE",
"195 162 LINE",
"489 162 LINE",
"516 0 LINE",
"643 0 LINE",
"537 688 LINE",
"368 688 LINE",
"-31 0 LINE"
);
},
{
closed = 1;
nodes = (
"425 568 LINE",
"431 568 LINE",
"478 264 LINE",
"248 264 LINE"
);
}
);
width = 713;
},
{
anchors = (
{
name = bottom;
position = "{197, 0}";
},
{
name = ogonek;
position = "{419, 0}";
},
{
name = top;
position = "{336, 688}";
}
);
layerId = "C784E404-3F19-435D-96BB-DB276E1DA8D0";
paths = (
{
closed = 1;
nodes = (
"78 0 LINE",
"146 161 LINE",
"309 161 LINE",
"308 0 LINE",
"419 0 LINE",
"418 688 LINE",
"257 688 LINE",
"-37 0 LINE"
);
},
{
closed = 1;
nodes = (
"311 571 LINE",
"318 571 LINE",
"313 257 LINE",
"182 257 LINE"
);
}
);
width = 481;
},
{
anchors = (
{
name = bottom;
position = "{107, 0}";
},
{
name = ogonek;
position = "{258, 0}";
},
{
name = top;
position = "{254, 688}";
}
);
layerId = UUID0;
paths = (
{
closed = 1;
nodes = (
"-2 0 LINE",
"82 215 LINE",
"230 215 LINE",
"223 0 LINE",
"258 0 LINE",
"278 688 LINE",
"235 688 LINE",
"-39 0 LINE"
);
},
{
closed = 1;
nodes = (
"238 611 LINE",
"243 611 LINE",
"231 249 LINE",
"96 249 LINE"
);
}
);
width = 327;
},
{
anchors = (
{
name = bottom;
position = "{120, 0}";
},
{
name = ogonek;
position = "{295, 0}";
},
{
name = top;
position = "{269, 688}";
}
);
layerId = "2A096AB6-16C2-4C34-8164-FCBBBF8CEAEB";
paths = (
{
closed = 1;
nodes = (
"88 0 LINE",
"126 134 LINE",
"181 134 LINE",
"160 0 LINE",
"295 0 LINE",
"375 688 LINE",
"166 688 LINE",
"-47 0 LINE"
);
},
{
closed = 1;
nodes = (
"239 563 LINE",
"248 563 LINE",
"201 258 LINE",
"158 258 LINE"
);
}
);
width = 355;
},
{
anchors = (
{
name = bottom;
position = "{124, 0}";
},
{
name = ogonek;
position = "{290, 0}";
},
{
name = top;
position = "{269, 688}";
}
);
background = {
paths = (
{
closed = 1;
nodes = (
"225 0 LINE",
"262 688 LINE"
);
},
{
closed = 1;
nodes = (
"302 688 LINE",
"46 0 LINE"
);
}
);
};
layerId = "B988E418-9469-42FB-AD32-095B8D65BEE5";
paths = (
{
closed = 1;
nodes = (
"35 0 LINE",
"103 183 LINE",
"224 183 LINE",
"214 0 LINE",
"290 0 LINE",
"327 688 LINE",
"215 688 LINE",
"-41 0 LINE"
);
},
{
closed = 1;
nodes = (
"247 589 LINE",
"252 589 LINE",
"227 252 LINE",
"129 252 LINE"
);
}
);
width = 357;
},
{
anchors = (
{
name = bottom;
position = "{351, 0}";
},
{
name = ogonek;
position = "{759, 0}";
},
{
name = top;
position = "{497, 688}";
}
);
layerId = "8AB9AFA2-7010-440B-BFFC-1C7CDFA1A370";
paths = (
{
closed = 1;
nodes = (
"202 0 LINE",
"251 95 LINE",
"495 95 LINE",
"505 0 LINE",
"759 0 LINE",
"676 688 LINE",
"314 688 LINE",
"-62 0 LINE"
);
},
{
closed = 1;
nodes = (
"450 483 LINE",
"460 483 LINE",
"481 265 LINE",
"335 265 LINE"
);
}
);
width = 805;
},
{
anchors = (
{
name = bottom;
position = "{345, 0}";
},
{
name = ogonek;
position = "{720, 0}";
},
{
name = top;
position = "{491, 688}";
}
);
background = {
paths = (
{
closed = 1;
nodes = (
"609 -47 LINE",
"458 641 LINE"
);
},
{
closed = 1;
nodes = (
"513 639 LINE",
"70 -49 LINE"
);
}
);
};
layerId = "8494D26F-946F-4BDA-8E04-2FD894ABFEA2";
paths = (
{
closed = 1;
nodes = (
"101 0 LINE",
"208 167 LINE",
"561 167 LINE",
"597 0 LINE",
"720 0 LINE",
"569 688 LINE",
"415 688 LINE",
"-28 0 LINE"
);
},
{
closed = 1;
nodes = (
"469 585 LINE",
"475 585 LINE",
"538 269 LINE",
"273 269 LINE"
);
}
);
width = 799;
},
{
anchors = (
{
name = bottom;
position = "{346, 0}";
},
{
name = ogonek;
position = "{694, 0}";
},
{
name = top;
position = "{493, 688}";
}
);
layerId = "527899E9-AC81-44FE-89AA-146AC27955A1";
paths = (
{
closed = 1;
nodes = (
"33 0 LINE",
"190 224 LINE",
"597 224 LINE",
"656 0 LINE",
"694 0 LINE",
"507 688 LINE",
"474 688 LINE",
"-6 0 LINE"
);
},
{
closed = 1;
nodes = (
"481 645 LINE",
"486 645 LINE",
"587 258 LINE",
"214 258 LINE"
);
}
);
width = 796;
}
);
leftKerningGroup = A;
rightKerningGroup = A;
unicode = 0041;
},
{
glyphname = Aogonek;
layers = (
{
components = (
{
name = A;
},
{
name = ogonekcomb.case;
transform = "{1, 0, 0, 1, 541, -4}";
}
);
layerId = "CD898CA3-FB76-4965-A23E-9AA06D1CE2B1";
width = 683;
},
{
components = (
{
name = A;
},
{
name = ogonekcomb.case;
transform = "{1, 0, 0, 1, 530, -4}";
}
);
layerId = "20A7088A-67D7-4614-84CF-19C576DDC019";
width = 713;
},
{
components = (
{
name = A;
},
{
name = ogonekcomb.case;
transform = "{1, 0, 0, 1, 470, -4}";
}
);
layerId = "B4DE345C-CFDB-4A54-B125-3358BD91D59F";
width = 697;
},
{
components = (
{
name = A;
},
{
name = ogonekcomb.case;
transform = "{1, 0, 0, 1, 293, -4}";
}
);
layerId = "FA01890A-5211-455F-9108-1209F66A586C";
width = 401;
},
{
components = (
{
name = A;
},
{
name = ogonekcomb.case;
transform = "{1, 0, 0, 1, 334, -4}";
}
);
layerId = "C784E404-3F19-435D-96BB-DB276E1DA8D0";
width = 481;
},
{
components = (
{
name = A;
},
{
name = ogonekcomb.case;
transform = "{1, 0, 0, 1, 276, -4}";
}
);
layerId = "47937877-2CF8-49A0-A6AF-2B1A27CB5FF4";
width = 427;
},
{
background = {
paths = (
{
closed = 1;
nodes = (
"224 -194 OFFCURVE",
"228 -194 OFFCURVE",
"238 -193 CURVE",
"245 -161 LINE",
"236 -162 OFFCURVE",
"232 -162 OFFCURVE",
"228 -162 CURVE SMOOTH",
"200 -162 OFFCURVE",
"189 -149 OFFCURVE",
"189 -131 CURVE SMOOTH",
"189 -93 OFFCURVE",
"237 -31 OFFCURVE",
"273 0 CURVE",
"293 688 LINE",
"250 688 LINE",
"-24 0 LINE",
"13 0 LINE",
"97 215 LINE",
"245 215 LINE",
"238 0 LINE",
"240 0 LINE",
"189 -42 OFFCURVE",
"154 -95 OFFCURVE",
"154 -136 CURVE SMOOTH",
"154 -171 OFFCURVE",
"173 -194 OFFCURVE",
"215 -194 CURVE SMOOTH"
);
},
{
closed = 1;
nodes = (
"253 611 LINE",
"258 611 LINE",
"246 249 LINE",
"111 249 LINE"
);
}
);
};
components = (
{
name = A;
},
{
name = ogonekcomb.case;
transform = "{1, 0, 0, 1, 213, -4}";
}
);
layerId = UUID0;
width = 327;
},
{
background = {
paths = (
{
closed = 1;
nodes = (
"231 -207 OFFCURVE",
"250 -205 OFFCURVE",
"261 -202 CURVE",
"275 -132 LINE",
"270 -133 OFFCURVE",
"269 -133 OFFCURVE",
"267 -133 CURVE SMOOTH",
"249 -133 OFFCURVE",
"244 -124 OFFCURVE",
"244 -112 CURVE SMOOTH",
"244 -71 OFFCURVE",
"278 -23 OFFCURVE",
"299 0 CURVE",
"379 688 LINE",
"170 688 LINE",
"-43 0 LINE",
"92 0 LINE",
"130 134 LINE",
"185 134 LINE",
"164 0 LINE",
"218 0 LINE",
"173 -41 OFFCURVE",
"147 -90 OFFCURVE",
"147 -136 CURVE SMOOTH",
"147 -175 OFFCURVE",
"165 -207 OFFCURVE",
"214 -207 CURVE SMOOTH"
);
},
{
closed = 1;
nodes = (
"243 563 LINE",
"252 563 LINE",
"205 258 LINE",
"162 258 LINE"
);
}
);
};
components = (
{
name = A;
},
{
name = ogonekcomb.case;
transform = "{1, 0, 0, 1, 220, -3}";
}
);
layerId = "2A096AB6-16C2-4C34-8164-FCBBBF8CEAEB";
width = 355;
},
{
background = {
paths = (
{
closed = 1;
nodes = (
"238 -201 OFFCURVE",
"248 -200 OFFCURVE",
"259 -197 CURVE",
"268 -153 LINE",
"262 -154 OFFCURVE",
"258 -154 OFFCURVE",
"255 -154 CURVE SMOOTH",
"231 -154 OFFCURVE",
"222 -143 OFFCURVE",
"222 -127 CURVE SMOOTH",
"222 -86 OFFCURVE",
"268 -24 OFFCURVE",
"300 0 CURVE",
"337 688 LINE",
"225 688 LINE",
"-31 0 LINE",
"45 0 LINE",
"113 183 LINE",
"234 183 LINE",
"224 0 LINE",
"246 0 LINE",
"195 -43 OFFCURVE",
"162 -97 OFFCURVE",
"162 -139 CURVE SMOOTH",
"162 -176 OFFCURVE",
"181 -201 OFFCURVE",
"226 -201 CURVE SMOOTH"
);
},
{
closed = 1;
nodes = (
"257 589 LINE",
"262 589 LINE",
"237 252 LINE",
"139 252 LINE"
);
}
);
};
components = (
{
name = A;
},
{
name = ogonekcomb.case;
transform = "{1, 0, 0, 1, 235, -4}";
}
);
layerId = "B988E418-9469-42FB-AD32-095B8D65BEE5";
width = 357;
},
{
background = {
paths = (
{
closed = 1;
nodes = (
"654 -206 OFFCURVE",
"699 -204 OFFCURVE",
"726 -203 CURVE",
"747 -95 LINE",
"737 -96 OFFCURVE",
"731 -96 OFFCURVE",
"728 -96 CURVE SMOOTH",
"690 -96 OFFCURVE",
"680 -87 OFFCURVE",
"680 -72 CURVE SMOOTH",
"680 -46 OFFCURVE",
"719 -17 OFFCURVE",
"757 0 CURVE",
"674 688 LINE",
"312 688 LINE",
"-64 0 LINE",
"200 0 LINE",
"249 95 LINE",
"493 95 LINE",
"503 0 LINE",
"564 0 LINE",
"511 -42 OFFCURVE",
"476 -87 OFFCURVE",
"476 -132 CURVE SMOOTH",
"476 -172 OFFCURVE",
"510 -206 OFFCURVE",
"623 -206 CURVE SMOOTH"
);
},
{
closed = 1;
nodes = (
"448 483 LINE",
"458 483 LINE",
"479 265 LINE",
"333 265 LINE"
);
}
);
};
components = (
{
name = A;
},
{
name = ogonekcomb.case;
transform = "{1, 0, 0, 1, 548, -4}";
}
);
layerId = "8AB9AFA2-7010-440B-BFFC-1C7CDFA1A370";
width = 805;
},
{
components = (
{
name = A;
},
{
name = ogonekcomb.case;
transform = "{1, 0, 0, 1, 610, -3}";
}
);
layerId = "8494D26F-946F-4BDA-8E04-2FD894ABFEA2";
width = 799;
},
{
background = {
paths = (
{
closed = 1;
nodes = (
"639 -211 OFFCURVE",
"641 -211 OFFCURVE",
"648 -210 CURVE",
"655 -178 LINE",
"646 -179 OFFCURVE",
"642 -179 OFFCURVE",
"638 -179 CURVE SMOOTH",
"609 -179 OFFCURVE",
"599 -159 OFFCURVE",
"599 -133 CURVE SMOOTH",
"599 -86 OFFCURVE",
"649 -29 OFFCURVE",
"685 0 CURVE",
"498 688 LINE",
"465 688 LINE",
"-15 0 LINE",
"24 0 LINE",
"181 224 LINE",
"588 224 LINE",
"647 0 LINE",
"649 0 LINE",
"593 -46 OFFCURVE",
"564 -99 OFFCURVE",
"564 -146 CURVE SMOOTH",
"564 -185 OFFCURVE",
"582 -211 OFFCURVE",
"633 -211 CURVE SMOOTH"
);
},
{
closed = 1;
nodes = (
"472 645 LINE",
"477 645 LINE",
"578 258 LINE",
"205 258 LINE"
);
}
);
};
components = (
{
name = A;
},
{
name = ogonekcomb.case;
transform = "{1, 0, 0, 1, 651, -4}";
}
);
layerId = "527899E9-AC81-44FE-89AA-146AC27955A1";
width = 796;
}
);
leftKerningGroup = A;
rightKerningGroup = A;
unicode = 0104;
},
{
glyphname = Aring;
layers = (
{
components = (
{
name = A;
},
{
alignment = -1;
name = ringcomb.case;
transform = "{1, 0, 0, 1, 239, 69}";
}
);
layerId = "CD898CA3-FB76-4965-A23E-9AA06D1CE2B1";
width = 683;
},
{
background = {
paths = (
{
closed = 1;
nodes = (
"168 0 LINE",
"214 103 LINE",
"413 103 LINE",
"416 0 LINE",
"648 0 LINE",
"600 731 LINE",
"584 671 LINE",
"616 692 OFFCURVE",
"631 729 OFFCURVE",
"643 787 CURVE SMOOTH",
"666 896 OFFCURVE",
"653 932 OFFCURVE",
"492 932 CURVE SMOOTH",
"331 932 OFFCURVE",
"303 896 OFFCURVE",
"280 787 CURVE SMOOTH",
"268 729 OFFCURVE",
"265 692 OFFCURVE",
"293 671 CURVE",
"299 731 LINE",
"-59 0 LINE"
);
},
{
closed = 1;
nodes = (
"392 500 LINE",
"401 500 LINE",
"408 263 LINE",
"286 263 LINE"
);
},
{
closed = 1;
nodes = (
"392 734 OFFCURVE",
"394 745 OFFCURVE",
"403 787 CURVE SMOOTH",
"412 830 OFFCURVE",
"415 842 OFFCURVE",
"473 842 CURVE SMOOTH",
"533 842 OFFCURVE",
"530 830 OFFCURVE",
"521 787 CURVE SMOOTH",
"512 745 OFFCURVE",
"510 734 OFFCURVE",
"450 734 CURVE SMOOTH"
);
}
);
};
components = (
{
name = A;
},
{
alignment = -1;
name = ringcomb.case;
transform = "{1.18, 0, 0, 1.18, 172, -8}";
}
);
layerId = "B4DE345C-CFDB-4A54-B125-3358BD91D59F";
width = 697;
},
{
components = (
{
name = A;
},
{
alignment = -1;
name = ringcomb.case;
transform = "{1, 0, 0, 1, 108, 95}";
}
);
layerId = "47937877-2CF8-49A0-A6AF-2B1A27CB5FF4";
width = 427;
},
{
components = (
{
name = A;
},
{
alignment = -1;
name = ringcomb.case;
transform = "{1, 0, 0, 1, 156, 111}";
}
);
layerId = "FA01890A-5211-455F-9108-1209F66A586C";
width = 401;
},
{
components = (
{
name = A;
},
{
alignment = -1;
name = ringcomb.case;
transform = "{1, 0, 0, 1, 244, 106}";
}
);
layerId = "20A7088A-67D7-4614-84CF-19C576DDC019";
width = 713;
},
{
components = (
{
name = A;
},
{
alignment = -1;
name = ringcomb.case;
transform = "{0.98, 0, 0, 0.98, 153, 123}";
}
);
layerId = "C784E404-3F19-435D-96BB-DB276E1DA8D0";
width = 481;
},
{
components = (
{
name = A;
},
{
alignment = -1;
name = ringcomb.case;
transform = "{1, 0, 0, 1, 113, 111}";
}
);
layerId = UUID0;
width = 327;
},
{
components = (
{
name = A;
},
{
alignment = -1;
name = ringcomb.case;
transform = "{1, 0, 0, 1, 80, 111}";
}
);
layerId = "2A096AB6-16C2-4C34-8164-FCBBBF8CEAEB";
width = 355;
},
{
components = (
{
name = A;
},
{
alignment = -1;
name = ringcomb.case;
transform = "{1, 0, 0, 1, 107, 111}";
}
);
layerId = "B988E418-9469-42FB-AD32-095B8D65BEE5";
width = 357;
},
{
components = (
{
name = A;
},
{
alignment = -1;
name = ringcomb.case;
transform = "{1.25, 0, 0, 1.25, 192, -48}";
}
);
layerId = "8AB9AFA2-7010-440B-BFFC-1C7CDFA1A370";
width = 805;
},
{
background = {
paths = (
{
closed = 1;
nodes = (
"102 0 LINE",
"209 167 LINE",
"562 167 LINE",
"598 0 LINE",
"721 0 LINE",
"572 678 LINE",
"634 687 OFFCURVE",
"641 713 OFFCURVE",
"658 789 CURVE SMOOTH",
"663 810 OFFCURVE",
"664 827 OFFCURVE",
"664 842 CURVE SMOOTH",
"664 883 OFFCURVE",
"640 905 OFFCURVE",
"537 905 CURVE SMOOTH",
"402 905 OFFCURVE",
"388 889 OFFCURVE",
"367 789 CURVE SMOOTH",
"363 769 OFFCURVE",
"362 750 OFFCURVE",
"362 736 CURVE SMOOTH",
"362 708 OFFCURVE",
"375 691 OFFCURVE",
"412 682 CURVE",
"-27 0 LINE"
);
},
{
closed = 1;
nodes = (
"470 585 LINE",
"476 585 LINE",
"539 269 LINE",
"274 269 LINE"
);
},
{
closed = 1;
nodes = (
"444 728 OFFCURVE",
"430 736 OFFCURVE",
"430 758 CURVE SMOOTH",
"430 766 OFFCURVE",
"431 776 OFFCURVE",
"434 789 CURVE SMOOTH",
"444 838 OFFCURVE",
"447 852 OFFCURVE",
"528 852 CURVE SMOOTH",
"583 852 OFFCURVE",
"597 846 OFFCURVE",
"597 823 CURVE SMOOTH",
"597 814 OFFCURVE",
"595 803 OFFCURVE",
"592 789 CURVE SMOOTH",
"581 739 OFFCURVE",
"579 728 OFFCURVE",
"501 728 CURVE SMOOTH"
);
}
);
};
components = (
{
name = A;
},
{
alignment = -1;
name = ringcomb.case;
transform = "{1, 0, 0, 1, 273, 111}";
}
);
layerId = "8494D26F-946F-4BDA-8E04-2FD894ABFEA2";
width = 799;
},
{
components = (
{
name = A;
},
{
alignment = -1;
name = ringcomb.case;
transform = "{1, 0, 0, 1, 279, 74}";
}
);
layerId = "527899E9-AC81-44FE-89AA-146AC27955A1";
width = 796;
}
);
leftKerningGroup = A;
rightKerningGroup = A;
unicode = 00C5;
},
{
glyphname = AE;
layers = (
{
anchors = (
{
name = bottom;
position = "{390, 0}";
},
{
name = top;
position = "{536, 688}";
}
);
layerId = "CD898CA3-FB76-4965-A23E-9AA06D1CE2B1";
paths = (
{
closed = 1;
nodes = (
"22 0 LINE",
"161 222 LINE",
"505 222 LINE",
"548 0 LINE",
"816 0 LINE",
"824 34 LINE",
"578 34 LINE",
"519 331 LINE",
"840 331 LINE",
"847 365 LINE",
"512 365 LINE",
"455 654 LINE",
"955 654 LINE",
"963 688 LINE",
"413 688 LINE",
"-17 0 LINE"
);
},
{
closed = 1;
nodes = (
"419 637 LINE",
"424 637 LINE",
"498 256 LINE",
"182 256 LINE"
);
}
);
width = 947;
},
{
anchors = (
{
name = bottom;
position = "{337, 0}";
},
{
name = top;
position = "{483, 688}";
}
);
layerId = "B4DE345C-CFDB-4A54-B125-3358BD91D59F";
paths = (
{
closed = 1;
nodes = (
"174 0 LINE",
"220 103 LINE",
"419 103 LINE",
"422 0 LINE",
"870 0 LINE",
"906 167 LINE",
"636 167 LINE",
"630 266 LINE",
"880 266 LINE",
"915 429 LINE",
"619 429 LINE",
"613 521 LINE",
"981 521 LINE",
"1017 688 LINE",
"278 688 LINE",
"-59 0 LINE"
);
},
{
closed = 1;
nodes = (
"399 500 LINE",
"408 500 LINE",
"414 263 LINE",
"292 263 LINE"
);
}
);
width = 961;
},
{
anchors = (
{
name = bottom;
position = "{203, 0}";
},
{
name = top;
position = "{349, 688}";
}
);
background = {
paths = (
{
closed = 1;
nodes = (
"180 0 LINE",
"454 0 LINE",
"484 139 LINE",
"353 139 LINE",
"369 278 LINE",
"498 278 LINE",
"528 417 LINE",
"387 417 LINE",
"404 549 LINE",
"571 549 LINE",
"601 688 LINE",
"175 688 LINE",
"-88 0 LINE",
"64 0 LINE",
"107 124 LINE",
"198 124 LINE"
);
},
{
closed = 1;
nodes = (
"258 543 LINE",
"217 259 LINE",
"152 259 LINE",
"251 543 LINE"
);
}
);
};
layerId = "47937877-2CF8-49A0-A6AF-2B1A27CB5FF4";
paths = (
{
closed = 1;
nodes = (
"109 0 LINE",
"148 124 LINE",
"235 124 LINE",
"220 0 LINE",
"480 0 LINE",
"510 139 LINE",
"383 139 LINE",
"394 278 LINE",
"524 278 LINE",
"554 417 LINE",
"405 417 LINE",
"415 549 LINE",
"597 549 LINE",
"627 688 LINE",
"193 688 LINE",
"-46 0 LINE"
);
},
{
closed = 1;
nodes = (
"277 543 LINE",
"284 543 LINE",
"250 259 LINE",
"189 259 LINE"
);
}
);
width = 554;
},
{
anchors = (
{
name = bottom;
position = "{209, 0}";
},
{
name = top;
position = "{355, 688}";
}
);
background = {
paths = (
{
closed = 1;
nodes = (
"250 0 LINE",
"441 0 LINE",
"449 34 LINE",
"290 34 LINE",
"307 331 LINE",
"484 331 LINE",
"491 365 LINE",
"309 365 LINE",
"326 654 LINE",
"580 654 LINE",
"588 688 LINE",
"288 688 LINE",
"-73 0 LINE",
"-37 0 LINE",
"76 217 LINE",
"264 217 LINE"
);
},
{
closed = 1;
nodes = (
"290 617 LINE",
"266 251 LINE",
"93 251 LINE",
"285 617 LINE"
);
}
);
};
layerId = "FA01890A-5211-455F-9108-1209F66A586C";
paths = (
{
closed = 1;
nodes = (
"16 0 LINE",
"111 217 LINE",
"300 217 LINE",
"303 0 LINE",
"441 0 LINE",
"449 34 LINE",
"337 34 LINE",
"331 331 LINE",
"484 331 LINE",
"491 365 LINE",
"331 365 LINE",
"325 654 LINE",
"580 654 LINE",
"588 688 LINE",
"284 688 LINE",
"-22 0 LINE"
);
},
{
closed = 1;
nodes = (
"288 617 LINE",
"293 617 LINE",
"299 251 LINE",
"126 251 LINE"
);
}
);
width = 545;
},
{
anchors = (
{
name = bottom;
position = "{394, 0}";
},
{
name = top;
position = "{540, 688}";
}
);
layerId = "20A7088A-67D7-4614-84CF-19C576DDC019";
paths = (
{
closed = 1;
nodes = (
"100 0 LINE",
"195 162 LINE",
"489 162 LINE",
"516 0 LINE",
"879 0 LINE",
"902 104 LINE",
"628 104 LINE",
"597 296 LINE",
"892 296 LINE",
"914 398 LINE",
"582 398 LINE",
"552 584 LINE",
"1004 584 LINE",
"1026 688 LINE",
"368 688 LINE",
"-31 0 LINE"
);
},
{
closed = 1;
nodes = (
"425 568 LINE",
"431 568 LINE",
"478 264 LINE",
"248 264 LINE"
);
}
);
width = 996;
},
{
anchors = (
{
name = bottom;
position = "{230, 0}";
},
{
name = top;
position = "{376, 688}";
}
);
layerId = "C784E404-3F19-435D-96BB-DB276E1DA8D0";
paths = (
{
closed = 1;
nodes = (
"78 0 LINE",
"146 161 LINE",
"309 161 LINE",
"308 0 LINE",
"562 0 LINE",
"583 99 LINE",
"420 99 LINE",
"418 298 LINE",
"599 298 LINE",
"620 397 LINE",
"419 397 LINE",
"417 589 LINE",
"687 589 LINE",
"709 688 LINE",
"257 688 LINE",
"-37 0 LINE"
);
},
{
closed = 1;
nodes = (
"311 571 LINE",
"318 571 LINE",
"313 257 LINE",
"182 257 LINE"
);
}
);
width = 647;
},
{
anchors = (
{
name = bottom;
position = "{168, 0}";
},
{
name = top;
position = "{314, 688}";
}
);
layerId = UUID0;
paths = (
{
closed = 1;
nodes = (
"13 0 LINE",
"97 215 LINE",
"245 215 LINE",
"238 0 LINE",
"353 0 LINE",
"361 34 LINE",
"274 34 LINE",
"282 331 LINE",
"400 331 LINE",
"407 365 LINE",
"283 365 LINE",
"292 654 LINE",
"492 654 LINE",
"500 688 LINE",
"250 688 LINE",
"-24 0 LINE"
);
},
{
closed = 1;
nodes = (
"253 611 LINE",
"258 611 LINE",
"246 249 LINE",
"111 249 LINE"
);
}
);
width = 424;
},
{
anchors = (
{
name = bottom;
position = "{159, 0}";
},
{
name = top;
position = "{305, 688}";
}
);
layerId = "2A096AB6-16C2-4C34-8164-FCBBBF8CEAEB";
paths = (
{
closed = 1;
nodes = (
"92 0 LINE",
"130 134 LINE",
"185 134 LINE",
"164 0 LINE",
"378 0 LINE",
"405 126 LINE",
"313 126 LINE",
"332 284 LINE",
"431 284 LINE",
"458 411 LINE",
"347 411 LINE",
"364 562 LINE",
"496 562 LINE",
"523 688 LINE",
"170 688 LINE",
"-43 0 LINE"
);
},
{
closed = 1;
nodes = (
"243 563 LINE",
"252 563 LINE",
"205 258 LINE",
"162 258 LINE"
);
}
);
width = 446;
},
{
anchors = (
{
name = bottom;
position = "{170, 0}";
},
{
name = top;
position = "{316, 688}";
}
);
layerId = "B988E418-9469-42FB-AD32-095B8D65BEE5";
paths = (
{
closed = 1;
nodes = (
"45 0 LINE",
"113 183 LINE",
"234 183 LINE",
"224 0 LINE",
"383 0 LINE",
"400 71 LINE",
"304 71 LINE",
"317 312 LINE",
"431 312 LINE",
"447 383 LINE",
"321 383 LINE",
"333 617 LINE",
"513 617 LINE",
"530 688 LINE",
"225 688 LINE",
"-31 0 LINE"
);
},
{
closed = 1;
nodes = (
"257 589 LINE",
"262 589 LINE",
"237 252 LINE",
"139 252 LINE"
);
}
);
width = 468;
},
{
anchors = (
{
name = bottom;
position = "{408, 0}";
},
{
name = top;
position = "{554, 688}";
}
);
layerId = "8AB9AFA2-7010-440B-BFFC-1C7CDFA1A370";
paths = (
{
closed = 1;
nodes = (
"200 0 LINE",
"249 95 LINE",
"493 95 LINE",
"503 0 LINE",
"1026 0 LINE",
"1064 178 LINE",
"735 178 LINE",
"725 261 LINE",
"1023 261 LINE",
"1060 434 LINE",
"704 434 LINE",
"695 510 LINE",
"1135 510 LINE",
"1173 688 LINE",
"312 688 LINE",
"-64 0 LINE"
);
},
{
closed = 1;
nodes = (
"448 483 LINE",
"458 483 LINE",
"479 265 LINE",
"333 265 LINE"
);
}
);
width = 1124;
},
{
anchors = (
{
name = bottom;
position = "{439, 0}";
},
{
name = top;
position = "{585, 688}";
}
);
layerId = "8494D26F-946F-4BDA-8E04-2FD894ABFEA2";
paths = (
{
closed = 1;
nodes = (
"102 0 LINE",
"209 167 LINE",
"562 167 LINE",
"598 0 LINE",
"994 0 LINE",
"1016 103 LINE",
"698 103 LINE",
"656 296 LINE",
"999 296 LINE",
"1020 399 LINE",
"633 399 LINE",
"592 585 LINE",
"1119 585 LINE",
"1141 688 LINE",
"416 688 LINE",
"-27 0 LINE"
);
},
{
closed = 1;
nodes = (
"470 585 LINE",
"476 585 LINE",
"539 269 LINE",
"274 269 LINE"
);
}
);
width = 1125;
},
{
anchors = (
{
name = bottom;
position = "{441, 0}";
},
{
name = top;
position = "{587, 688}";
}
);
layerId = "527899E9-AC81-44FE-89AA-146AC27955A1";
paths = (
{
closed = 1;
nodes = (
"24 0 LINE",
"181 224 LINE",
"588 224 LINE",
"647 0 LINE",
"967 0 LINE",
"975 34 LINE",
"675 34 LINE",
"595 331 LINE",
"983 331 LINE",
"990 365 LINE",
"585 365 LINE",
"507 654 LINE",
"1106 654 LINE",
"1114 688 LINE",
"465 688 LINE",
"-15 0 LINE"
);
},
{
closed = 1;
nodes = (
"472 645 LINE",
"477 645 LINE",
"578 258 LINE",
"205 258 LINE"
);
}
);
width = 1109;
}
);
leftKerningGroup = A;
rightKerningGroup = E;
unicode = 00C6;
},
{
glyphname = B;
layers = (
{
background = {
paths = (
{
closed = 1;
nodes = (
"61 0 LINE",
"359 0 LINE SMOOTH",
"524 0 OFFCURVE",
"569 95 OFFCURVE",
"587 180 CURVE SMOOTH",
"601 249 OFFCURVE",
"605 332 OFFCURVE",
"498 350 CURVE",
"499 354 LINE",
"587 370 OFFCURVE",
"632 432 OFFCURVE",
"650 516 CURVE SMOOTH",
"671 615 OFFCURVE",
"651 688 OFFCURVE",
"515 688 CURVE SMOOTH",
"208 688 LINE"
);
},
{
closed = 1;
nodes = (
"175 366 LINE",
"236 654 LINE",
"499 654 LINE SMOOTH",
"611 654 OFFCURVE",
"633 606 OFFCURVE",
"613 510 CURVE SMOOTH",
"593 419 OFFCURVE",
"530 366 OFFCURVE",
"438 366 CURVE"
);
},
{
closed = 1;
nodes = (
"105 34 LINE",
"168 332 LINE",
"434 332 LINE SMOOTH",
"539 332 OFFCURVE",
"573 284 OFFCURVE",
"551 183 CURVE SMOOTH",
"530 84 OFFCURVE",
"484 34 OFFCURVE",
"371 34 CURVE"
);
}
);
};
layerId = "CD898CA3-FB76-4965-A23E-9AA06D1CE2B1";
paths = (
{
closed = 1;
nodes = (
"369 0 LINE SMOOTH",
"504 0 OFFCURVE",
"548 62 OFFCURVE",
"574 128 CURVE SMOOTH",
"590 168 OFFCURVE",
"594 224 OFFCURVE",
"594 241 CURVE SMOOTH",
"594 291 OFFCURVE",
"574 337 OFFCURVE",
"498 350 CURVE",
"499 354 LINE",
"576 364 OFFCURVE",
"623 418 OFFCURVE",
"644 489 CURVE SMOOTH",
"652 514 OFFCURVE",
"656 541 OFFCURVE",
"656 569 CURVE SMOOTH",
"656 640 OFFCURVE",
"616 688 OFFCURVE",
"506 688 CURVE SMOOTH",
"208 688 LINE",
"61 0 LINE"
);
},
{
closed = 1;
nodes = (
"168 332 LINE",
"434 332 LINE SMOOTH",
"519 332 OFFCURVE",
"557 301 OFFCURVE",
"557 235 CURVE SMOOTH",
"557 220 OFFCURVE",
"555 202 OFFCURVE",
"551 183 CURVE SMOOTH",
"530 84 OFFCURVE",
"484 34 OFFCURVE",
"371 34 CURVE SMOOTH",
"105 34 LINE"
);
},
{
closed = 1;
nodes = (
"236 654 LINE",
"499 654 LINE SMOOTH",
"587 654 OFFCURVE",
"619 624 OFFCURVE",
"619 565 CURVE SMOOTH",
"619 548 OFFCURVE",
"618 533 OFFCURVE",
"615 518 CURVE SMOOTH",
"598 423 OFFCURVE",
"530 366 OFFCURVE",
"438 366 CURVE",
"175 366 LINE"
);
}
);
width = 687;
},
{
background = {
paths = (
{
closed = 1;
nodes = (
"-5 0 LINE",
"360 0 LINE SMOOTH",
"504 0 OFFCURVE",
"579 61 OFFCURVE",
"605 184 CURVE SMOOTH",
"630 300 OFFCURVE",
"590 330 OFFCURVE",
"516 349 CURVE",
"516 353 LINE",
"602 372 OFFCURVE",
"652 414 OFFCURVE",
"674 515 CURVE SMOOTH",
"700 636 OFFCURVE",
"635 688 OFFCURVE",
"509 688 CURVE SMOOTH",
"141 688 LINE"
);
},
{
closed = 1;
nodes = (
"313 416 LINE",
"336 527 LINE",
"384 527 LINE SMOOTH",
"438 527 OFFCURVE",
"443 522 OFFCURVE",
"432 471 CURVE SMOOTH",
"422 422 OFFCURVE",
"415 416 OFFCURVE",
"361 416 CURVE"
);
},
{
closed = 1;
nodes = (
"259 161 LINE",
"284 279 LINE",
"332 279 LINE SMOOTH",
"386 279 OFFCURVE",
"390 272 OFFCURVE",
"379 219 CURVE SMOOTH",
"368 166 OFFCURVE",
"361 161 OFFCURVE",
"307 161 CURVE"
);
}
);
};
layerId = "B4DE345C-CFDB-4A54-B125-3358BD91D59F";
paths = (
{
closed = 1;
nodes = (
"360 0 LINE SMOOTH",
"524 0 OFFCURVE",
"579 59 OFFCURVE",
"605 176 CURVE SMOOTH",
"610 199 OFFCURVE",
"612 219 OFFCURVE",
"612 236 CURVE SMOOTH",
"612 310 OFFCURVE",
"575 332 OFFCURVE",
"516 349 CURVE",
"516 353 LINE",
"602 372 OFFCURVE",
"652 411 OFFCURVE",
"674 507 CURVE SMOOTH",
"678 525 OFFCURVE",
"680 541 OFFCURVE",
"680 556 CURVE SMOOTH",
"680 642 OFFCURVE",
"612 688 OFFCURVE",
"499 688 CURVE SMOOTH",
"141 688 LINE",
"-5 0 LINE"
);
},
{
closed = 1;
nodes = (
"284 279 LINE",
"332 279 LINE SMOOTH",
"371 279 OFFCURVE",
"384 275 OFFCURVE",
"384 253 CURVE SMOOTH",
"384 245 OFFCURVE",
"382 234 OFFCURVE",
"379 219 CURVE SMOOTH",
"368 166 OFFCURVE",
"361 161 OFFCURVE",
"307 161 CURVE",
"259 161 LINE"
);
},
{
closed = 1;
nodes = (
"336 527 LINE",
"384 527 LINE SMOOTH",
"423 527 OFFCURVE",
"437 524 OFFCURVE",
"437 503 CURVE SMOOTH",
"437 495 OFFCURVE",
"435 485 OFFCURVE",
"432 471 CURVE SMOOTH",
"422 422 OFFCURVE",
"415 416 OFFCURVE",
"361 416 CURVE",
"313 416 LINE"
);
}
);
width = 645;
},
{
background = {
paths = (
{
closed = 1;
nodes = (
"-39 0 LINE",
"164 0 LINE SMOOTH",
"270 0 OFFCURVE",
"331 60 OFFCURVE",
"358 185 CURVE SMOOTH",
"383 302 OFFCURVE",
"357 334 OFFCURVE",
"310 349 CURVE",
"310 353 LINE",
"365 369 OFFCURVE",
"400 414 OFFCURVE",
"422 515 CURVE SMOOTH",
"448 637 OFFCURVE",
"403 688 OFFCURVE",
"309 688 CURVE SMOOTH",
"107 688 LINE"
);
},
{
closed = 1;
nodes = (
"200 415 LINE",
"228 549 LINE",
"246 549 LINE SMOOTH",
"279 549 OFFCURVE",
"281 547 OFFCURVE",
"267 482 CURVE SMOOTH",
"253 419 OFFCURVE",
"250 415 OFFCURVE",
"218 415 CURVE"
);
},
{
closed = 1;
nodes = (
"141 139 LINE",
"171 280 LINE",
"189 280 LINE SMOOTH",
"219 280 OFFCURVE",
"223 278 OFFCURVE",
"209 210 CURVE SMOOTH",
"194 141 OFFCURVE",
"193 139 OFFCURVE",
"159 139 CURVE"
);
}
);
};
layerId = "47937877-2CF8-49A0-A6AF-2B1A27CB5FF4";
paths = (
{
closed = 1;
nodes = (
"198 0 LINE SMOOTH",
"299 0 OFFCURVE",
"356 57 OFFCURVE",
"382 175 CURVE SMOOTH",
"389 206 OFFCURVE",
"392 231 OFFCURVE",
"392 251 CURVE SMOOTH",
"392 314 OFFCURVE",
"373 337 OFFCURVE",
"334 349 CURVE",
"334 353 LINE",
"392 368 OFFCURVE",
"425 410 OFFCURVE",
"446 505 CURVE SMOOTH",
"451 528 OFFCURVE",
"453 548 OFFCURVE",
"453 566 CURVE SMOOTH",
"453 651 OFFCURVE",
"401 688 OFFCURVE",
"313 688 CURVE SMOOTH",
"131 688 LINE",
"-15 0 LINE"
);
},
{
closed = 1;
nodes = (
"195 280 LINE",
"213 280 LINE SMOOTH",
"232 280 OFFCURVE",
"241 279 OFFCURVE",
"241 261 CURVE SMOOTH",
"241 250 OFFCURVE",
"238 234 OFFCURVE",
"233 210 CURVE SMOOTH",
"218 141 OFFCURVE",
"217 139 OFFCURVE",
"183 139 CURVE SMOOTH",
"165 139 LINE"
);
},
{
closed = 1;
nodes = (
"252 549 LINE",
"270 549 LINE SMOOTH",
"291 549 OFFCURVE",
"299 548 OFFCURVE",
"299 531 CURVE SMOOTH",
"299 521 OFFCURVE",
"296 506 OFFCURVE",
"291 482 CURVE SMOOTH",
"277 419 OFFCURVE",
"274 415 OFFCURVE",
"242 415 CURVE SMOOTH",
"224 415 LINE"
);
}
);
width = 408;
},
{
background = {
paths = (
{
closed = 1;
nodes = (
"12 0 LINE",
"150 0 LINE SMOOTH",
"285 0 OFFCURVE",
"324 91 OFFCURVE",
"343 180 CURVE SMOOTH",
"359 256 OFFCURVE",
"363 332 OFFCURVE",
"278 350 CURVE",
"279 354 LINE",
"351 370 OFFCURVE",
"390 426 OFFCURVE",
"409 516 CURVE SMOOTH",
"431 618 OFFCURVE",
"416 688 OFFCURVE",
"303 688 CURVE SMOOTH",
"158 688 LINE"
);
},
{
closed = 1;
nodes = (
"125 366 LINE",
"186 654 LINE",
"290 654 LINE SMOOTH",
"378 654 OFFCURVE",
"393 610 OFFCURVE",
"372 510 CURVE SMOOTH",
"351 414 OFFCURVE",
"298 366 OFFCURVE",
"229 366 CURVE"
);
},
{
closed = 1;
nodes = (
"55 34 LINE",
"118 332 LINE",
"224 332 LINE SMOOTH",
"305 332 OFFCURVE",
"330 288 OFFCURVE",
"307 183 CURVE SMOOTH",
"286 81 OFFCURVE",
"249 34 OFFCURVE",
"161 34 CURVE"
);
}
);
};
layerId = "FA01890A-5211-455F-9108-1209F66A586C";
paths = (
{
closed = 1;
nodes = (
"165 0 LINE SMOOTH",
"281 0 OFFCURVE",
"321 68 OFFCURVE",
"343 157 CURVE SMOOTH",
"351 189 OFFCURVE",
"357 223 OFFCURVE",
"357 252 CURVE SMOOTH",
"357 299 OFFCURVE",
"340 338 OFFCURVE",
"283 350 CURVE",
"284 354 LINE",
"350 365 OFFCURVE",
"385 408 OFFCURVE",
"408 487 CURVE SMOOTH",
"416 516 OFFCURVE",
"421 549 OFFCURVE",
"421 585 CURVE SMOOTH",
"421 648 OFFCURVE",
"390 688 OFFCURVE",
"298 688 CURVE SMOOTH",
"163 688 LINE",
"17 0 LINE"
);
},
{
closed = 1;
nodes = (
"123 332 LINE",
"229 332 LINE SMOOTH",
"291 332 OFFCURVE",
"320 306 OFFCURVE",
"320 247 CURVE SMOOTH",
"320 229 OFFCURVE",
"317 208 OFFCURVE",
"312 183 CURVE SMOOTH",
"291 81 OFFCURVE",
"254 34 OFFCURVE",
"166 34 CURVE SMOOTH",
"60 34 LINE"
);
},
{
closed = 1;
nodes = (
"191 654 LINE",
"295 654 LINE SMOOTH",
"360 654 OFFCURVE",
"385 630 OFFCURVE",
"385 576 CURVE SMOOTH",
"385 543 OFFCURVE",
"378 514 OFFCURVE",
"371 489 CURVE SMOOTH",
"346 401 OFFCURVE",
"292 366 OFFCURVE",
"230 366 CURVE SMOOTH",
"130 366 LINE"
);
}
);
width = 403;
},
{
layerId = "20A7088A-67D7-4614-84CF-19C576DDC019";
paths = (
{
closed = 1;
nodes = (
"398 0 LINE SMOOTH",
"542 0 OFFCURVE",
"600 67 OFFCURVE",
"623 159 CURVE SMOOTH",
"628 182 OFFCURVE",
"631 207 OFFCURVE",
"631 232 CURVE SMOOTH",
"631 296 OFFCURVE",
"602 334 OFFCURVE",
"530 349 CURVE",
"531 353 LINE",
"615 367 OFFCURVE",
"668 413 OFFCURVE",
"689 493 CURVE SMOOTH {name = \"0.8 \";}",
"694 514 OFFCURVE",
"697 536 OFFCURVE",
"697 559 CURVE SMOOTH",
"697 640 OFFCURVE",
"641 688 OFFCURVE",
"518 688 CURVE SMOOTH",
"187 688 LINE",
"40 0 LINE"
);
},
{
closed = 1;
nodes = (
"233 301 LINE",
"406 301 LINE SMOOTH",
"476 301 OFFCURVE",
"504 283 OFFCURVE",
"504 238 CURVE SMOOTH",
"504 227 OFFCURVE",
"502 215 OFFCURVE",
"499 201 CURVE SMOOTH",
"483 127 OFFCURVE",
"454 102 OFFCURVE",
"364 102 CURVE SMOOTH",
"190 102 LINE"
);
},
{
closed = 1;
nodes = (
"293 586 LINE",
"464 586 LINE SMOOTH",
"534 586 OFFCURVE",
"559 571 OFFCURVE",
"559 530 CURVE SMOOTH",
"559 515 OFFCURVE",
"558 502 OFFCURVE",
"555 489 CURVE SMOOTH",
"542 423 OFFCURVE",
"500 395 OFFCURVE",
"423 395 CURVE SMOOTH",
"253 395 LINE"
);
}
);
width = 696;
},
{
layerId = "C784E404-3F19-435D-96BB-DB276E1DA8D0";
paths = (
{
closed = 1;
nodes = (
"229 0 LINE SMOOTH",
"349 0 OFFCURVE",
"399 68 OFFCURVE",
"422 171 CURVE SMOOTH",
"428 199 OFFCURVE",
"431 223 OFFCURVE",
"431 245 CURVE SMOOTH",
"431 304 OFFCURVE",
"410 336 OFFCURVE",
"359 349 CURVE",
"360 353 LINE",
"424 366 OFFCURVE",
"464 412 OFFCURVE",
"485 495 CURVE SMOOTH",
"491 519 OFFCURVE",
"494 543 OFFCURVE",
"494 568 CURVE SMOOTH",
"494 646 OFFCURVE",
"449 688 OFFCURVE",
"353 688 CURVE SMOOTH",
"151 688 LINE",
"5 0 LINE"
);
},
{
closed = 1;
nodes = (
"181 301 LINE",
"258 301 LINE SMOOTH",
"301 301 OFFCURVE",
"320 289 OFFCURVE",
"320 251 CURVE SMOOTH",
"320 238 OFFCURVE",
"318 221 OFFCURVE",
"313 200 CURVE SMOOTH",
"296 119 OFFCURVE",
"277 98 OFFCURVE",
"215 98 CURVE SMOOTH",
"138 98 LINE"
);
},
{
closed = 1;
nodes = (
"242 590 LINE",
"318 590 LINE SMOOTH",
"363 590 OFFCURVE",
"380 578 OFFCURVE",
"380 545 CURVE SMOOTH",
"380 524 OFFCURVE",
"376 504 OFFCURVE",
"371 483 CURVE SMOOTH",
"354 416 OFFCURVE",
"325 395 OFFCURVE",
"276 395 CURVE SMOOTH",
"201 395 LINE"
);
}
);
width = 468;
},
{
layerId = UUID0;
paths = (
{
closed = 1;
nodes = (
"111 0 LINE SMOOTH",
"223 0 OFFCURVE",
"263 70 OFFCURVE",
"284 165 CURVE SMOOTH",
"291 195 OFFCURVE",
"295 223 OFFCURVE",
"295 255 CURVE SMOOTH",
"295 301 OFFCURVE",
"278 338 OFFCURVE",
"226 350 CURVE",
"227 354 LINE",
"291 365 OFFCURVE",
"324 406 OFFCURVE",
"346 486 CURVE SMOOTH",
"354 517 OFFCURVE",
"359 551 OFFCURVE",
"359 589 CURVE SMOOTH",
"359 650 OFFCURVE",
"331 688 OFFCURVE",
"244 688 CURVE SMOOTH",
"151 688 LINE",
"6 0 LINE"
);
},
{
closed = 1;
nodes = (
"111 332 LINE",
"175 332 LINE SMOOTH",
"231 332 OFFCURVE",
"258 308 OFFCURVE",
"258 250 CURVE SMOOTH",
"258 231 OFFCURVE",
"255 210 OFFCURVE",
"250 183 CURVE SMOOTH",
"229 80 OFFCURVE",
"193 34 OFFCURVE",
"112 34 CURVE SMOOTH",
"47 34 LINE"
);
},
{
closed = 1;
nodes = (
"179 654 LINE",
"241 654 LINE SMOOTH",
"300 654 OFFCURVE",
"323 636 OFFCURVE",
"323 579 CURVE SMOOTH",
"323 541 OFFCURVE",
"315 509 OFFCURVE",
"307 481 CURVE SMOOTH",
"280 395 OFFCURVE",
"230 366 OFFCURVE",
"176 366 CURVE SMOOTH",
"118 366 LINE"
);
}
);
width = 329;
},
{
layerId = "2A096AB6-16C2-4C34-8164-FCBBBF8CEAEB";
paths = (
{
closed = 1;
nodes = (
"144 0 LINE SMOOTH",
"253 0 OFFCURVE",
"297 60 OFFCURVE",
"324 185 CURVE SMOOTH",
"331 220 OFFCURVE",
"335 247 OFFCURVE",
"335 269 CURVE SMOOTH",
"335 320 OFFCURVE",
"316 339 OFFCURVE",
"288 349 CURVE",
"288 353 LINE",
"335 368 OFFCURVE",
"371 413 OFFCURVE",
"388 515 CURVE SMOOTH",
"392 539 OFFCURVE",
"393 560 OFFCURVE",
"393 578 CURVE SMOOTH",
"393 655 OFFCURVE",
"335 688 OFFCURVE",
"276 688 CURVE SMOOTH",
"130 688 LINE",
"-17 0 LINE"
);
},
{
closed = 1;
nodes = (
"175 285 LINE",
"184 285 LINE SMOOTH",
"198 285 OFFCURVE",
"205 283 OFFCURVE",
"205 266 CURVE SMOOTH",
"205 255 OFFCURVE",
"202 236 OFFCURVE",
"196 206 CURVE SMOOTH",
"180 130 OFFCURVE",
"179 126 OFFCURVE",
"150 126 CURVE SMOOTH",
"141 126 LINE"
);
},
{
closed = 1;
nodes = (
"234 562 LINE",
"243 562 LINE SMOOTH",
"259 562 OFFCURVE",
"265 560 OFFCURVE",
"265 546 CURVE SMOOTH",
"265 535 OFFCURVE",
"261 517 OFFCURVE",
"255 488 CURVE SMOOTH",
"240 418 OFFCURVE",
"238 410 OFFCURVE",
"211 410 CURVE SMOOTH",
"201 410 LINE"
);
}
);
width = 345;
},
{
layerId = "B988E418-9469-42FB-AD32-095B8D65BEE5";
paths = (
{
closed = 1;
nodes = (
"139 0 LINE SMOOTH",
"244 0 OFFCURVE",
"288 60 OFFCURVE",
"312 162 CURVE SMOOTH",
"320 197 OFFCURVE",
"325 230 OFFCURVE",
"325 256 CURVE SMOOTH",
"325 308 OFFCURVE",
"308 340 OFFCURVE",
"263 351 CURVE",
"263 355 LINE",
"332 366 OFFCURVE",
"359 406 OFFCURVE",
"378 495 CURVE SMOOTH",
"384 524 OFFCURVE",
"388 554 OFFCURVE",
"388 583 CURVE SMOOTH",
"388 652 OFFCURVE",
"349 688 OFFCURVE",
"265 688 CURVE SMOOTH",
"144 688 LINE",
"-2 0 LINE"
);
},
{
closed = 1;
nodes = (
"141 313 LINE",
"189 313 LINE SMOOTH",
"229 313 OFFCURVE",
"248 297 OFFCURVE",
"248 257 CURVE SMOOTH",
"248 241 OFFCURVE",
"245 221 OFFCURVE",
"240 192 CURVE SMOOTH",
"223 102 OFFCURVE",
"200 71 OFFCURVE",
"140 71 CURVE SMOOTH",
"89 71 LINE"
);
},
{
closed = 1;
nodes = (
"206 617 LINE",
"249 617 LINE SMOOTH",
"292 617 OFFCURVE",
"310 602 OFFCURVE",
"310 562 CURVE SMOOTH",
"310 540 OFFCURVE",
"304 515 OFFCURVE",
"297 486 CURVE SMOOTH",
"277 403 OFFCURVE",
"244 384 OFFCURVE",
"200 384 CURVE SMOOTH",
"156 384 LINE"
);
}
);
width = 352;
},
{
layerId = "8AB9AFA2-7010-440B-BFFC-1C7CDFA1A370";
paths = (
{
closed = 1;
nodes = (
"425 0 LINE SMOOTH",
"576 0 OFFCURVE",
"644 45 OFFCURVE",
"675 115 CURVE SMOOTH",
"690 149 OFFCURVE",
"700 187 OFFCURVE",
"700 230 CURVE SMOOTH",
"700 308 OFFCURVE",
"656 330 OFFCURVE",
"589 349 CURVE",
"589 353 LINE",
"670 366 OFFCURVE",
"730 409 OFFCURVE",
"756 475 CURVE SMOOTH",
"765 498 OFFCURVE",
"771 524 OFFCURVE",
"771 552 CURVE SMOOTH",
"771 638 OFFCURVE",
"697 688 OFFCURVE",
"573 688 CURVE SMOOTH",
"145 688 LINE",
"-1 0 LINE"
);
},
{
closed = 1;
nodes = (
"320 278 LINE",
"379 278 LINE SMOOTH",
"427 278 OFFCURVE",
"441 273 OFFCURVE",
"441 250 CURVE SMOOTH",
"441 243 OFFCURVE",
"440 232 OFFCURVE",
"437 221 CURVE SMOOTH",
"426 174 OFFCURVE",
"419 170 OFFCURVE",
"357 170 CURVE SMOOTH",
"297 170 LINE"
);
},
{
closed = 1;
nodes = (
"371 518 LINE",
"430 518 LINE SMOOTH",
"476 518 OFFCURVE",
"492 514 OFFCURVE",
"492 492 CURVE SMOOTH",
"492 485 OFFCURVE",
"490 477 OFFCURVE",
"488 467 CURVE SMOOTH",
"478 424 OFFCURVE",
"475 417 OFFCURVE",
"408 417 CURVE SMOOTH",
"349 417 LINE"
);
}
);
width = 740;
},
{
layerId = "8494D26F-946F-4BDA-8E04-2FD894ABFEA2";
paths = (
{
closed = 1;
nodes = (
"460 0 LINE SMOOTH",
"612 0 OFFCURVE",
"671 65 OFFCURVE",
"694 149 CURVE SMOOTH",
"701 174 OFFCURVE",
"704 205 OFFCURVE",
"704 228 CURVE SMOOTH",
"704 292 OFFCURVE",
"671 333 OFFCURVE",
"594 349 CURVE",
"595 353 LINE",
"685 367 OFFCURVE",
"739 416 OFFCURVE",
"761 493 CURVE SMOOTH",
"766 512 OFFCURVE",
"770 534 OFFCURVE",
"770 557 CURVE SMOOTH",
"770 638 OFFCURVE",
"712 688 OFFCURVE",
"582 688 CURVE SMOOTH",
"205 688 LINE",
"57 0 LINE"
);
},
{
closed = 1;
nodes = (
"241 297 LINE",
"471 297 LINE SMOOTH",
"552 297 OFFCURVE",
"584 276 OFFCURVE",
"584 228 CURVE SMOOTH",
"584 218 OFFCURVE",
"583 208 OFFCURVE",
"581 195 CURVE",
"566 129 OFFCURVE",
"529 103 OFFCURVE",
"426 103 CURVE SMOOTH",
"199 103 LINE"
);
},
{
closed = 1;
nodes = (
"303 585 LINE",
"529 585 LINE SMOOTH",
"610 585 OFFCURVE",
"639 569 OFFCURVE",
"639 526 CURVE SMOOTH",
"639 513 OFFCURVE",
"638 503 OFFCURVE",
"636 493 CURVE SMOOTH",
"624 431 OFFCURVE",
"575 399 OFFCURVE",
"485 399 CURVE SMOOTH",
"263 399 LINE"
);
}
);
width = 785;
},
{
layerId = "527899E9-AC81-44FE-89AA-146AC27955A1";
paths = (
{
closed = 1;
nodes = (
"451 0 LINE SMOOTH",
"629 0 OFFCURVE",
"668 97 OFFCURVE",
"684 177 CURVE SMOOTH",
"688 195 OFFCURVE",
"690 218 OFFCURVE",
"690 238 CURVE SMOOTH",
"690 288 OFFCURVE",
"669 337 OFFCURVE",
"585 350 CURVE",
"586 354 LINE",
"671 363 OFFCURVE",
"723 424 OFFCURVE",
"742 498 CURVE SMOOTH",
"748 520 OFFCURVE",
"751 543 OFFCURVE",
"751 567 CURVE SMOOTH",
"751 639 OFFCURVE",
"709 688 OFFCURVE",
"590 688 CURVE SMOOTH",
"226 688 LINE",
"79 0 LINE"
);
},
{
closed = 1;
nodes = (
"186 332 LINE",
"517 332 LINE SMOOTH",
"611 332 OFFCURVE",
"652 301 OFFCURVE",
"652 231 CURVE SMOOTH",
"652 216 OFFCURVE",
"651 196 OFFCURVE",
"647 179 CURVE SMOOTH",
"626 81 OFFCURVE",
"574 34 OFFCURVE",
"451 34 CURVE SMOOTH",
"123 34 LINE"
);
},
{
closed = 1;
nodes = (
"254 654 LINE",
"581 654 LINE SMOOTH",
"679 654 OFFCURVE",
"714 622 OFFCURVE",
"714 561 CURVE SMOOTH",
"714 538 OFFCURVE",
"711 517 OFFCURVE",
"706 498 CURVE SMOOTH",
"684 416 OFFCURVE",
"616 366 OFFCURVE",
"520 366 CURVE SMOOTH",
"193 366 LINE"
);
}
);
width = 802;
}
);
leftKerningGroup = H;
rightKerningGroup = B;
unicode = 0042;
},
{
glyphname = C;
layers = (
{
anchors = (
{
name = bottom;
position = "{255, 0}";
},
{
name = top;
position = "{401, 688}";
}
);
layerId = "CD898CA3-FB76-4965-A23E-9AA06D1CE2B1";
paths = (
{
closed = 1;
nodes = (
"355 -8 OFFCURVE",
"413 -4 OFFCURVE",
"455 2 CURVE",
"462 36 LINE",
"421 30 OFFCURVE",
"360 26 OFFCURVE",
"314 26 CURVE SMOOTH",
"165 26 OFFCURVE",
"109 38 OFFCURVE",
"109 139 CURVE SMOOTH",
"109 186 OFFCURVE",
"121 251 OFFCURVE",
"141 344 CURVE SMOOTH",
"203 637 OFFCURVE",
"231 662 OFFCURVE",
"449 662 CURVE SMOOTH",
"493 662 OFFCURVE",
"550 658 OFFCURVE",
"589 652 CURVE",
"596 684 LINE",
"557 691 OFFCURVE",
"490 696 OFFCURVE",
"436 696 CURVE SMOOTH",
"215 696 OFFCURVE",
"169 658 OFFCURVE",
"105 344 CURVE SMOOTH",
"86 253 OFFCURVE",
"75 186 OFFCURVE",
"75 136 CURVE SMOOTH",
"75 9 OFFCURVE",
"142 -8 OFFCURVE",
"305 -8 CURVE SMOOTH"
);
}
);
width = 578;
},
{
anchors = (
{
name = bottom;
position = "{257, 0}";
},
{
name = top;
position = "{403, 688}";
}
);
layerId = "B4DE345C-CFDB-4A54-B125-3358BD91D59F";
paths = (
{
closed = 1;
nodes = (
"347 -8 OFFCURVE",
"428 -1 OFFCURVE",
"475 8 CURVE",
"509 167 LINE",
"469 162 OFFCURVE",
"412 159 OFFCURVE",
"372 159 CURVE SMOOTH",
"296 159 OFFCURVE",
"269 165 OFFCURVE",
"269 212 CURVE SMOOTH",
"269 232 OFFCURVE",
"279 281 OFFCURVE",
"292 344 CURVE SMOOTH",
"330 525 OFFCURVE",
"333 529 OFFCURVE",
"451 529 CURVE SMOOTH",
"470 529 OFFCURVE",
"500 527 OFFCURVE",
"580 521 CURVE",
"613 677 LINE",
"569 688 OFFCURVE",
"491 696 OFFCURVE",
"427 696 CURVE SMOOTH",
"162 696 OFFCURVE",
"128 643 OFFCURVE",
"57 344 CURVE SMOOTH",
"38 265 OFFCURVE",
"30 203 OFFCURVE",
"30 154 CURVE SMOOTH",
"30 33 OFFCURVE",
"111 -8 OFFCURVE",
"282 -8 CURVE SMOOTH"
);
}
);
width = 550;
},
{
anchors = (
{
name = bottom;
position = "{132, 0}";
},
{
name = top;
position = "{278, 688}";
}
);
layerId = "47937877-2CF8-49A0-A6AF-2B1A27CB5FF4";
paths = (
{
closed = 1;
nodes = (
"189 -8 OFFCURVE",
"227 0 OFFCURVE",
"250 11 CURVE",
"276 136 LINE",
"258 133 OFFCURVE",
"230 131 OFFCURVE",
"207 131 CURVE SMOOTH",
"178 131 OFFCURVE",
"165 135 OFFCURVE",
"165 166 CURVE SMOOTH",
"165 190 OFFCURVE",
"177 248 OFFCURVE",
"197 344 CURVE SMOOTH",
"238 543 OFFCURVE",
"243 557 OFFCURVE",
"298 557 CURVE SMOOTH",
"315 557 OFFCURVE",
"341 555 OFFCURVE",
"363 552 CURVE",
"390 680 LINE",
"374 689 OFFCURVE",
"332 696 OFFCURVE",
"289 696 CURVE SMOOTH",
"127 696 OFFCURVE",
"99 606 OFFCURVE",
"43 344 CURVE SMOOTH",
"23 251 OFFCURVE",
"12 180 OFFCURVE",
"12 128 CURVE SMOOTH",
"12 30 OFFCURVE",
"50 -8 OFFCURVE",
"160 -8 CURVE SMOOTH"
);
}
);
width = 321;
},
{
anchors = (
{
name = bottom;
position = "{140, 0}";
},
{
name = top;
position = "{286, 688}";
}
);
layerId = "FA01890A-5211-455F-9108-1209F66A586C";
paths = (
{
closed = 1;
nodes = (
"188 -8 OFFCURVE",
"219 -4 OFFCURVE",
"239 2 CURVE",
"246 36 LINE",
"225 30 OFFCURVE",
"191 26 OFFCURVE",
"167 26 CURVE SMOOTH",
"97 26 OFFCURVE",
"66 38 OFFCURVE",
"66 108 CURVE SMOOTH",
"66 156 OFFCURVE",
"81 229 OFFCURVE",
"105 344 CURVE SMOOTH",
"165 627 OFFCURVE",
"184 662 OFFCURVE",
"302 662 CURVE SMOOTH",
"325 662 OFFCURVE",
"355 657 OFFCURVE",
"375 652 CURVE",
"382 684 LINE",
"362 691 OFFCURVE",
"323 696 OFFCURVE",
"293 696 CURVE SMOOTH",
"165 696 OFFCURVE",
"131 648 OFFCURVE",
"69 344 CURVE SMOOTH",
"46 230 OFFCURVE",
"32 155 OFFCURVE",
"32 103 CURVE SMOOTH",
"32 11 OFFCURVE",
"72 -8 OFFCURVE",
"164 -8 CURVE SMOOTH"
);
}
);
width = 318;
},
{
anchors = (
{
name = bottom;
position = "{272, 0}";
},
{
name = top;
position = "{418, 688}";
}
);
layerId = "20A7088A-67D7-4614-84CF-19C576DDC019";
paths = (
{
closed = 1;
nodes = (
"365 -8 OFFCURVE",
"437 -3 OFFCURVE",
"481 5 CURVE",
"503 106 LINE",
"461 100 OFFCURVE",
"399 96 OFFCURVE",
"355 96 CURVE SMOOTH",
"229 96 OFFCURVE",
"185 105 OFFCURVE",
"185 184 CURVE SMOOTH",
"185 221 OFFCURVE",
"195 272 OFFCURVE",
"210 344 CURVE SMOOTH",
"258 572 OFFCURVE",
"273 592 OFFCURVE",
"460 592 CURVE SMOOTH",
"492 592 OFFCURVE",
"542 589 OFFCURVE",
"600 582 CURVE",
"621 680 LINE",
"577 689 OFFCURVE",
"499 696 OFFCURVE",
"437 696 CURVE SMOOTH",
"189 696 OFFCURVE",
"148 641 OFFCURVE",
"80 344 CURVE SMOOTH",
"62 266 OFFCURVE",
"54 207 OFFCURVE",
"54 161 CURVE SMOOTH",
"54 26 OFFCURVE",
"127 -8 OFFCURVE",
"310 -8 CURVE SMOOTH"
);
}
);
width = 591;
},
{
anchors = (
{
name = bottom;
position = "{165, 0}";
},
{
name = top;
position = "{311, 688}";
}
);
layerId = "C784E404-3F19-435D-96BB-DB276E1DA8D0";
paths = (
{
closed = 1;
nodes = (
"225 -8 OFFCURVE",
"269 -2 OFFCURVE",
"295 7 CURVE",
"315 98 LINE",
"291 94 OFFCURVE",
"254 91 OFFCURVE",
"225 91 CURVE SMOOTH",
"164 91 OFFCURVE",
"138 99 OFFCURVE",
"138 152 CURVE SMOOTH",
"138 185 OFFCURVE",
"151 248 OFFCURVE",
"171 344 CURVE SMOOTH",
"220 575 OFFCURVE",
"231 597 OFFCURVE",
"333 597 CURVE SMOOTH",
"355 597 OFFCURVE",
"387 594 OFFCURVE",
"417 590 CURVE",
"436 681 LINE",
"413 690 OFFCURVE",
"365 696 OFFCURVE",
"321 696 CURVE SMOOTH",
"151 696 OFFCURVE",
"118 627 OFFCURVE",
"58 344 CURVE SMOOTH",
"38 248 OFFCURVE",
"26 178 OFFCURVE",
"26 128 CURVE SMOOTH",
"26 24 OFFCURVE",
"72 -8 OFFCURVE",
"192 -8 CURVE SMOOTH"
);
}
);
width = 378;
},
{
anchors = (
{
name = bottom;
position = "{111, 0}";
},
{
name = top;
position = "{257, 688}";
}
);
layerId = UUID0;
paths = (
{
closed = 1;
nodes = (
"144 -8 OFFCURVE",
"168 -4 OFFCURVE",
"182 2 CURVE",
"189 36 LINE",
"174 30 OFFCURVE",
"147 26 OFFCURVE",
"129 26 CURVE SMOOTH",
"79 26 OFFCURVE",
"55 38 OFFCURVE",
"55 100 CURVE SMOOTH",
"55 148 OFFCURVE",
"70 223 OFFCURVE",
"95 344 CURVE SMOOTH",
"153 625 OFFCURVE",
"172 662 OFFCURVE",
"264 662 CURVE SMOOTH",
"281 662 OFFCURVE",
"304 657 OFFCURVE",
"319 652 CURVE",
"326 684 LINE",
"311 691 OFFCURVE",
"279 696 OFFCURVE",
"255 696 CURVE SMOOTH",
"152 696 OFFCURVE",
"119 646 OFFCURVE",
"59 344 CURVE SMOOTH",
"35 224 OFFCURVE",
"21 147 OFFCURVE",
"21 94 CURVE SMOOTH",
"21 12 OFFCURVE",
"54 -8 OFFCURVE",
"127 -8 CURVE SMOOTH"
);
}
);
width = 250;
},
{
anchors = (
{
name = bottom;
position = "{111, 0}";
},
{
name = top;
position = "{257, 688}";
}
);
layerId = "2A096AB6-16C2-4C34-8164-FCBBBF8CEAEB";
paths = (
{
closed = 1;
nodes = (
"141 -8 OFFCURVE",
"173 3 OFFCURVE",
"190 12 CURVE",
"214 122 LINE",
"202 120 OFFCURVE",
"182 118 OFFCURVE",
"163 118 CURVE SMOOTH",
"147 118 OFFCURVE",
"138 121 OFFCURVE",
"138 145 CURVE SMOOTH",
"138 172 OFFCURVE",
"150 233 OFFCURVE",
"172 344 CURVE SMOOTH",
"215 557 OFFCURVE",
"222 570 OFFCURVE",
"257 570 CURVE SMOOTH",
"274 570 OFFCURVE",
"292 568 OFFCURVE",
"305 566 CURVE",
"331 681 LINE",
"320 686 OFFCURVE",
"290 696 OFFCURVE",
"252 696 CURVE SMOOTH",
"118 696 OFFCURVE",
"90 589 OFFCURVE",
"39 344 CURVE SMOOTH",
"18 244 OFFCURVE",
"7 168 OFFCURVE",
"7 115 CURVE SMOOTH",
"7 32 OFFCURVE",
"34 -8 OFFCURVE",
"118 -8 CURVE SMOOTH"
);
}
);
width = 250;
},
{
anchors = (
{
name = bottom;
position = "{121, 0}";
},
{
name = top;
position = "{267, 688}";
}
);
layerId = "B988E418-9469-42FB-AD32-095B8D65BEE5";
paths = (
{
closed = 1;
nodes = (
"157 -8 OFFCURVE",
"184 -1 OFFCURVE",
"201 6 CURVE",
"214 71 LINE",
"198 66 OFFCURVE",
"174 63 OFFCURVE",
"154 63 CURVE SMOOTH",
"113 63 OFFCURVE",
"95 72 OFFCURVE",
"95 120 CURVE SMOOTH",
"95 154 OFFCURVE",
"110 229 OFFCURVE",
"133 344 CURVE SMOOTH",
"185 596 OFFCURVE",
"196 625 OFFCURVE",
"272 625 CURVE SMOOTH",
"290 625 OFFCURVE",
"315 621 OFFCURVE",
"329 617 CURVE",
"344 682 LINE",
"330 688 OFFCURVE",
"295 696 OFFCURVE",
"266 696 CURVE SMOOTH",
"142 696 OFFCURVE",
"113 629 OFFCURVE",
"54 344 CURVE SMOOTH",
"32 233 OFFCURVE",
"19 155 OFFCURVE",
"19 101 CURVE SMOOTH",
"19 17 OFFCURVE",
"52 -8 OFFCURVE",
"137 -8 CURVE SMOOTH"
);
}
);
width = 270;
},
{
anchors = (
{
name = bottom;
position = "{297, 0}";
},
{
name = top;
position = "{443, 688}";
}
);
layerId = "8AB9AFA2-7010-440B-BFFC-1C7CDFA1A370";
paths = (
{
closed = 1;
nodes = (
"410 -8 OFFCURVE",
"508 -2 OFFCURVE",
"565 7 CURVE",
"603 184 LINE",
"554 178 OFFCURVE",
"485 174 OFFCURVE",
"438 174 CURVE SMOOTH",
"343 174 OFFCURVE",
"311 181 OFFCURVE",
"311 235 CURVE SMOOTH",
"311 257 OFFCURVE",
"319 296 OFFCURVE",
"329 344 CURVE SMOOTH",
"363 508 OFFCURVE",
"369 514 OFFCURVE",
"512 514 CURVE SMOOTH",
"532 514 OFFCURVE",
"564 512 OFFCURVE",
"667 504 CURVE",
"702 676 LINE",
"647 687 OFFCURVE",
"555 696 OFFCURVE",
"482 696 CURVE SMOOTH",
"176 696 OFFCURVE",
"139 658 OFFCURVE",
"62 344 CURVE SMOOTH",
"44 270 OFFCURVE",
"37 212 OFFCURVE",
"37 164 CURVE SMOOTH",
"37 34 OFFCURVE",
"136 -8 OFFCURVE",
"331 -8 CURVE SMOOTH"
);
}
);
width = 642;
},
{
anchors = (
{
name = bottom;
position = "{313, 0}";
},
{
name = top;
position = "{459, 688}";
}
);
layerId = "8494D26F-946F-4BDA-8E04-2FD894ABFEA2";
paths = (
{
closed = 1;
nodes = (
"418 -8 OFFCURVE",
"499 -3 OFFCURVE",
"550 3 CURVE",
"570 105 LINE",
"521 99 OFFCURVE",
"450 95 OFFCURVE",
"400 95 CURVE SMOOTH",
"245 95 OFFCURVE",
"193 102 OFFCURVE",
"193 190 CURVE SMOOTH",
"193 228 OFFCURVE",
"201 279 OFFCURVE",
"215 344 CURVE SMOOTH",
"265 574 OFFCURVE",
"283 593 OFFCURVE",
"508 593 CURVE SMOOTH",
"546 593 OFFCURVE",
"604 588 OFFCURVE",
"669 583 CURVE",
"690 681 LINE",
"639 689 OFFCURVE",
"550 696 OFFCURVE",
"483 696 CURVE SMOOTH",
"208 696 OFFCURVE",
"163 648 OFFCURVE",
"92 344 CURVE SMOOTH",
"75 272 OFFCURVE",
"69 216 OFFCURVE",
"69 170 CURVE SMOOTH",
"69 24 OFFCURVE",
"151 -8 OFFCURVE",
"356 -8 CURVE SMOOTH"
);
}
);
width = 673;
},
{
anchors = (
{
name = bottom;
position = "{318, 0}";
},
{
name = top;
position = "{464, 688}";
}
);
layerId = "527899E9-AC81-44FE-89AA-146AC27955A1";
paths = (
{
closed = 1;
nodes = (
"422 -8 OFFCURVE",
"491 -4 OFFCURVE",
"542 2 CURVE",
"549 36 LINE",
"500 30 OFFCURVE",
"428 26 OFFCURVE",
"373 26 CURVE SMOOTH",
"193 26 OFFCURVE",
"126 38 OFFCURVE",
"126 152 CURVE SMOOTH",
"126 198 OFFCURVE",
"137 260 OFFCURVE",
"155 344 CURVE SMOOTH",
"219 641 OFFCURVE",
"250 662 OFFCURVE",
"508 662 CURVE SMOOTH",
"561 662 OFFCURVE",
"629 659 OFFCURVE",
"675 652 CURVE",
"682 684 LINE",
"636 691 OFFCURVE",
"557 696 OFFCURVE",
"494 696 CURVE SMOOTH",
"235 696 OFFCURVE",
"185 662 OFFCURVE",
"119 344 CURVE SMOOTH",
"102 262 OFFCURVE",
"92 199 OFFCURVE",
"92 149 CURVE SMOOTH",
"92 8 OFFCURVE",
"170 -8 OFFCURVE",
"362 -8 CURVE SMOOTH"
);
}
);
width = 683;
}
);
leftKerningGroup = O;
rightKerningGroup = C;
unicode = 0043;
},
{
glyphname = Ccedilla;
layers = (
{
components = (
{
name = C;
},
{
name = cedillacomb.case;
transform = "{1, 0, 0, 1, 274, -8}";
}
);
layerId = "CD898CA3-FB76-4965-A23E-9AA06D1CE2B1";
width = 578;
},
{
components = (
{
name = C;
},
{
name = cedillacomb.case;
transform = "{1, 0, 0, 1, 257, 0}";
}
);
layerId = "20A7088A-67D7-4614-84CF-19C576DDC019";
width = 591;
},
{
components = (
{
name = C;
},
{
name = cedillacomb.case;
transform = "{1, 0, 0, 1, 201, 0}";
}
);
layerId = "B4DE345C-CFDB-4A54-B125-3358BD91D59F";
width = 550;
},
{
components = (
{
name = C;
},
{
name = cedillacomb.case;
transform = "{1, 0, 0, 1, 138, 0}";
}
);
layerId = "FA01890A-5211-455F-9108-1209F66A586C";
width = 318;
},
{
components = (
{
name = C;
},
{
name = cedillacomb.case;
transform = "{1, 0, 0, 1, 134, 0}";
}
);
layerId = "C784E404-3F19-435D-96BB-DB276E1DA8D0";
width = 378;
},
{
components = (
{
name = C;
},
{
name = cedillacomb.case;
transform = "{1, 0, 0, 1, 94, 0}";
}
);
layerId = "47937877-2CF8-49A0-A6AF-2B1A27CB5FF4";
width = 321;
},
{
background = {
paths = (
{
closed = 1;
nodes = (
"45 -186 LINE",
"123 -8 LINE",
"127 -8 LINE SMOOTH",
"144 -8 OFFCURVE",
"168 -4 OFFCURVE",
"182 2 CURVE",
"189 36 LINE",
"174 30 OFFCURVE",
"147 26 OFFCURVE",
"129 26 CURVE SMOOTH",
"79 26 OFFCURVE",
"55 38 OFFCURVE",
"55 100 CURVE SMOOTH",
"55 148 OFFCURVE",
"70 223 OFFCURVE",
"95 344 CURVE SMOOTH",
"153 625 OFFCURVE",
"172 662 OFFCURVE",
"264 662 CURVE SMOOTH",
"281 662 OFFCURVE",
"304 657 OFFCURVE",
"319 652 CURVE",
"326 684 LINE",
"311 691 OFFCURVE",
"279 696 OFFCURVE",
"255 696 CURVE SMOOTH",
"152 696 OFFCURVE",
"119 646 OFFCURVE",
"59 344 CURVE SMOOTH",
"35 224 OFFCURVE",
"21 147 OFFCURVE",
"21 94 CURVE SMOOTH",
"21 26 OFFCURVE",
"44 0 OFFCURVE",
"93 -6 CURVE",
"3 -181 LINE",
"2 -186 LINE"
);
}
);
};
components = (
{
name = C;
},
{
name = cedillacomb.case;
transform = "{1, 0, 0, 1, 96, 0}";
}
);
layerId = UUID0;
width = 250;
},
{
background = {
paths = (
{
closed = 1;
nodes = (
"77 -199 LINE",
"150 -3 LINE",
"171 3 OFFCURVE",
"190 12 OFFCURVE",
"190 12 CURVE",
"214 122 LINE",
"202 120 OFFCURVE",
"182 118 OFFCURVE",
"163 118 CURVE SMOOTH",
"147 118 OFFCURVE",
"138 121 OFFCURVE",
"138 145 CURVE SMOOTH",
"138 175 OFFCURVE",
"150 233 OFFCURVE",
"172 344 CURVE SMOOTH",
"215 557 OFFCURVE",
"222 570 OFFCURVE",
"257 570 CURVE SMOOTH",
"281 570 OFFCURVE",
"296 567 OFFCURVE",
"305 566 CURVE",
"331 681 LINE",
"320 686 OFFCURVE",
"290 696 OFFCURVE",
"252 696 CURVE SMOOTH",
"118 696 OFFCURVE",
"90 589 OFFCURVE",
"39 344 CURVE SMOOTH",
"18 244 OFFCURVE",
"7 168 OFFCURVE",
"7 115 CURVE SMOOTH",
"7 54 OFFCURVE",
"21 17 OFFCURVE",
"61 1 CURVE",
"-33 -194 LINE",
"-33 -199 LINE"
);
}
);
};
components = (
{
name = C;
},
{
name = cedillacomb.case;
transform = "{1, 0, 0, 1, 62, 0}";
}
);
layerId = "2A096AB6-16C2-4C34-8164-FCBBBF8CEAEB";
width = 250;
},
{
background = {
paths = (
{
closed = 1;
nodes = (
"69 -193 LINE",
"146 -7 LINE",
"164 -6 OFFCURVE",
"186 0 OFFCURVE",
"201 6 CURVE",
"214 71 LINE",
"198 66 OFFCURVE",
"174 63 OFFCURVE",
"154 63 CURVE SMOOTH",
"113 63 OFFCURVE",
"95 72 OFFCURVE",
"95 120 CURVE SMOOTH",
"95 163 OFFCURVE",
"110 229 OFFCURVE",
"133 344 CURVE SMOOTH",
"185 596 OFFCURVE",
"196 625 OFFCURVE",
"272 625 CURVE SMOOTH",
"290 625 OFFCURVE",
"315 621 OFFCURVE",
"329 617 CURVE",
"344 682 LINE",
"330 688 OFFCURVE",
"295 696 OFFCURVE",
"266 696 CURVE SMOOTH",
"142 696 OFFCURVE",
"112 629 OFFCURVE",
"54 344 CURVE SMOOTH",
"32 233 OFFCURVE",
"19 155 OFFCURVE",
"19 101 CURVE SMOOTH",
"19 33 OFFCURVE",
"40 4 OFFCURVE",
"93 -5 CURVE",
"-2 -188 LINE",
"-2 -193 LINE"
);
}
);
};
components = (
{
name = C;
},
{
name = cedillacomb.case;
transform = "{1, 0, 0, 1, 92, 0}";
}
);
layerId = "B988E418-9469-42FB-AD32-095B8D65BEE5";
width = 270;
},
{
background = {
paths = (
{
closed = 1;
nodes = (
"343 -200 LINE",
"416 -6 LINE",
"472 -3 OFFCURVE",
"527 1 OFFCURVE",
"565 7 CURVE",
"603 184 LINE",
"554 178 OFFCURVE",
"485 174 OFFCURVE",
"438 174 CURVE SMOOTH",
"343 174 OFFCURVE",
"311 181 OFFCURVE",
"311 235 CURVE SMOOTH",
"311 260 OFFCURVE",
"319 296 OFFCURVE",
"329 344 CURVE SMOOTH",
"363 508 OFFCURVE",
"369 514 OFFCURVE",
"512 514 CURVE SMOOTH",
"532 514 OFFCURVE",
"564 512 OFFCURVE",
"667 504 CURVE",
"702 676 LINE",
"647 687 OFFCURVE",
"555 696 OFFCURVE",
"482 696 CURVE SMOOTH",
"176 696 OFFCURVE",
"139 658 OFFCURVE",
"62 344 CURVE SMOOTH",
"44 270 OFFCURVE",
"37 212 OFFCURVE",
"37 164 CURVE SMOOTH",
"37 51 OFFCURVE",
"111 5 OFFCURVE",
"257 -5 CURVE",
"128 -195 LINE",
"128 -200 LINE"
);
}
);
};
components = (
{
name = C;
},
{
name = cedillacomb.case;
transform = "{1, 0, 0, 1, 229, -8}";
}
);
layerId = "8AB9AFA2-7010-440B-BFFC-1C7CDFA1A370";
width = 642;
},
{
background = {
paths = (
{
closed = 1;
nodes = (
"302 -201 LINE",
"381 -8 LINE",
"439 -7 OFFCURVE",
"506 -2 OFFCURVE",
"550 3 CURVE",
"570 105 LINE",
"521 99 OFFCURVE",
"450 95 OFFCURVE",
"400 95 CURVE SMOOTH",
"245 95 OFFCURVE",
"193 102 OFFCURVE",
"193 190 CURVE SMOOTH",
"193 228 OFFCURVE",
"201 279 OFFCURVE",
"215 344 CURVE SMOOTH",
"265 574 OFFCURVE",
"283 593 OFFCURVE",
"508 593 CURVE SMOOTH",
"546 593 OFFCURVE",
"604 588 OFFCURVE",
"669 583 CURVE",
"690 681 LINE",
"639 689 OFFCURVE",
"550 696 OFFCURVE",
"483 696 CURVE SMOOTH",
"208 696 OFFCURVE",
"163 648 OFFCURVE",
"92 344 CURVE SMOOTH",
"75 272 OFFCURVE",
"69 216 OFFCURVE",
"69 170 CURVE SMOOTH",
"69 38 OFFCURVE",
"135 0 OFFCURVE",
"299 -7 CURVE",
"193 -196 LINE",
"194 -201 LINE"
);
}
);
};
components = (
{
name = C;
},
{
name = cedillacomb.case;
transform = "{1, 0, 0, 1, 300, -8}";
}
);
layerId = "8494D26F-946F-4BDA-8E04-2FD894ABFEA2";
width = 673;
},
{
background = {
paths = (
{
closed = 1;
nodes = (
"281 -204 LINE",
"364 -8 LINE",
"423 -8 OFFCURVE",
"491 -4 OFFCURVE",
"542 2 CURVE",
"549 36 LINE",
"500 30 OFFCURVE",
"428 26 OFFCURVE",
"373 26 CURVE SMOOTH",
"193 26 OFFCURVE",
"126 38 OFFCURVE",
"126 152 CURVE SMOOTH",
"126 198 OFFCURVE",
"137 260 OFFCURVE",
"155 344 CURVE SMOOTH",
"219 641 OFFCURVE",
"250 662 OFFCURVE",
"508 662 CURVE SMOOTH",
"561 662 OFFCURVE",
"629 659 OFFCURVE",
"675 652 CURVE",
"682 684 LINE",
"636 691 OFFCURVE",
"557 696 OFFCURVE",
"494 696 CURVE SMOOTH",
"235 696 OFFCURVE",
"185 662 OFFCURVE",
"119 344 CURVE SMOOTH",
"102 262 OFFCURVE",
"92 199 OFFCURVE",
"92 149 CURVE SMOOTH",
"92 15 OFFCURVE",
"162 -6 OFFCURVE",
"335 -8 CURVE",
"241 -199 LINE",
"240 -204 LINE"
);
}
);
};
components = (
{
name = C;
},
{
name = cedillacomb.case;
transform = "{1, 0, 0, 1, 334, -8}";
}
);
layerId = "527899E9-AC81-44FE-89AA-146AC27955A1";
width = 683;
}
);
leftKerningGroup = O;
rightKerningGroup = C;
unicode = 00C7;
},
{
glyphname = D;
layers = (
{
anchors = (
{
name = bottom;
position = "{293, 0}";
},
{
name = center;
position = "{153, 344}";
},
{
name = top;
position = "{439, 688}";
}
);
background = {
paths = (
{
closed = 1;
nodes = (
"61 0 LINE",
"266 0 LINE SMOOTH",
"532 0 OFFCURVE",
"557 38 OFFCURVE",
"623 344 CURVE SMOOTH",
"688 650 OFFCURVE",
"679 688 OFFCURVE",
"413 688 CURVE SMOOTH",
"208 688 LINE"
);
},
{
closed = 1;
nodes = (
"105 34 LINE",
"236 654 LINE",
"385 654 LINE SMOOTH",
"634 654 OFFCURVE",
"651 648 OFFCURVE",
"587 344 CURVE SMOOTH",
"522 40 OFFCURVE",
"507 34 OFFCURVE",
"254 34 CURVE SMOOTH"
);
}
);
};
layerId = "CD898CA3-FB76-4965-A23E-9AA06D1CE2B1";
paths = (
{
closed = 1;
nodes = (
"276 0 LINE SMOOTH",
"535 0 OFFCURVE",
"559 38 OFFCURVE",
"623 344 CURVE SMOOTH",
"642 436 OFFCURVE",
"655 504 OFFCURVE",
"655 554 CURVE SMOOTH",
"655 669 OFFCURVE",
"590 688 OFFCURVE",
"404 688 CURVE SMOOTH",
"208 688 LINE",
"61 0 LINE"
);
},
{
closed = 1;
nodes = (
"236 654 LINE",
"385 654 LINE SMOOTH",
"557 654 OFFCURVE",
"619 651 OFFCURVE",
"619 548 CURVE SMOOTH",
"619 503 OFFCURVE",
"607 437 OFFCURVE",
"587 344 CURVE SMOOTH",
"522 40 OFFCURVE",
"507 34 OFFCURVE",
"254 34 CURVE SMOOTH",
"105 34 LINE"
);
}
);
width = 693;
},
{
anchors = (
{
name = bottom;
position = "{279, 0}";
},
{
name = center;
position = "{185, 344}";
},
{
name = top;
position = "{425, 688}";
}
);
background = {
paths = (
{
closed = 1;
nodes = (
"-5 0 LINE",
"249 0 LINE SMOOTH",
"568 0 OFFCURVE",
"587 72 OFFCURVE",
"645 344 CURVE SMOOTH",
"702 616 OFFCURVE",
"715 688 OFFCURVE",
"396 688 CURVE SMOOTH",
"141 688 LINE"
);
},
{
closed = 1;
nodes = (
"264 167 LINE",
"339 521 LINE",
"363 521 LINE SMOOTH",
"447 521 OFFCURVE",
"446 516 OFFCURVE",
"409 343 CURVE SMOOTH",
"373 174 OFFCURVE",
"372 167 OFFCURVE",
"288 167 CURVE SMOOTH"
);
}
);
};
layerId = "B4DE345C-CFDB-4A54-B125-3358BD91D59F";
paths = (
{
closed = 1;
nodes = (
"279 0 LINE SMOOTH",
"571 0 OFFCURVE",
"585 59 OFFCURVE",
"643 334 CURVE SMOOTH {name = \"1.6 \";}",
"659 420 OFFCURVE",
"671 486 OFFCURVE",
"671 537 CURVE SMOOTH",
"671 652 OFFCURVE",
"608 688 OFFCURVE",
"396 688 CURVE SMOOTH",
"141 688 LINE",
"-5 0 LINE"
);
},
{
closed = 1;
nodes = (
"339 521 LINE",
"363 521 LINE SMOOTH",
"413 521 OFFCURVE",
"433 519 OFFCURVE",
"433 481 CURVE SMOOTH",
"433 455 OFFCURVE",
"424 413 OFFCURVE",
"409 343 CURVE SMOOTH",
"373 174 OFFCURVE",
"372 167 OFFCURVE",
"288 167 CURVE SMOOTH",
"264 167 LINE"
);
}
);
width = 666;
},
{
anchors = (
{
name = bottom;
position = "{154, 0}";
},
{
name = center;
position = "{136, 344}";
},
{
name = top;
position = "{300, 688}";
}
);
background = {
paths = (
{
closed = 1;
nodes = (
"-39 0 LINE",
"133 0 LINE SMOOTH",
"317 0 OFFCURVE",
"336 88 OFFCURVE",
"391 344 CURVE SMOOTH",
"445 601 OFFCURVE",
"464 688 OFFCURVE",
"280 688 CURVE SMOOTH",
"107 688 LINE"
);
},
{
closed = 1;
nodes = (
"142 139 LINE",
"229 549 LINE",
"250 549 LINE SMOOTH",
"281 549 OFFCURVE",
"282 548 OFFCURVE",
"239 344 CURVE SMOOTH",
"195 140 OFFCURVE",
"194 139 OFFCURVE",
"163 139 CURVE SMOOTH"
);
}
);
};
layerId = "47937877-2CF8-49A0-A6AF-2B1A27CB5FF4";
paths = (
{
closed = 1;
nodes = (
"167 0 LINE SMOOTH",
"350 0 OFFCURVE",
"361 88 OFFCURVE",
"415 344 CURVE SMOOTH",
"436 442 OFFCURVE",
"449 513 OFFCURVE",
"449 564 CURVE SMOOTH",
"449 653 OFFCURVE",
"412 688 OFFCURVE",
"294 688 CURVE SMOOTH",
"131 688 LINE",
"-15 0 LINE"
);
},
{
closed = 1;
nodes = (
"253 549 LINE",
"274 549 LINE SMOOTH",
"288 549 OFFCURVE",
"296 549 OFFCURVE",
"296 528 CURVE SMOOTH",
"296 504 OFFCURVE",
"286 453 OFFCURVE",
"263 344 CURVE SMOOTH",
"219 140 OFFCURVE",
"218 139 OFFCURVE",
"187 139 CURVE SMOOTH",
"166 139 LINE"
);
}
);
width = 415;
},
{
anchors = (
{
name = bottom;
position = "{150, 0}";
},
{
name = center;
position = "{107, 344}";
},
{
name = top;
position = "{296, 688}";
}
);
background = {
paths = (
{
closed = 1;
nodes = (
"12 0 LINE",
"139 0 LINE SMOOTH",
"285 0 OFFCURVE",
"313 47 OFFCURVE",
"377 344 CURVE SMOOTH",
"440 641 OFFCURVE",
"432 688 OFFCURVE",
"286 688 CURVE SMOOTH",
"158 688 LINE"
);
},
{
closed = 1;
nodes = (
"55 34 LINE",
"186 654 LINE",
"278 654 LINE SMOOTH",
"387 654 OFFCURVE",
"403 639 OFFCURVE",
"341 344 CURVE SMOOTH",
"278 49 OFFCURVE",
"256 34 OFFCURVE",
"147 34 CURVE SMOOTH"
);
}
);
};
layerId = "FA01890A-5211-455F-9108-1209F66A586C";
paths = (
{
closed = 1;
nodes = (
"154 0 LINE SMOOTH",
"294 0 OFFCURVE",
"321 47 OFFCURVE",
"382 344 CURVE SMOOTH {name = \"0.7 \";}",
"406 456 OFFCURVE",
"418 532 OFFCURVE",
"418 584 CURVE SMOOTH",
"418 670 OFFCURVE",
"379 688 OFFCURVE",
"281 688 CURVE SMOOTH",
"163 688 LINE",
"17 0 LINE"
);
},
{
closed = 1;
nodes = (
"191 654 LINE",
"283 654 LINE SMOOTH",
"350 654 OFFCURVE",
"382 648 OFFCURVE",
"382 575 CURVE SMOOTH",
"382 529 OFFCURVE",
"370 457 OFFCURVE",
"346 344 CURVE SMOOTH",
"283 49 OFFCURVE",
"261 34 OFFCURVE",
"152 34 CURVE SMOOTH",
"60 34 LINE"
);
}
);
width = 407;
},
{
anchors = (
{
name = bottom;
position = "{300, 0}";
},
{
name = center;
position = "{180, 344}";
},
{
name = top;
position = "{446, 688}";
}
);
layerId = "20A7088A-67D7-4614-84CF-19C576DDC019";
paths = (
{
closed = 1;
nodes = (
"300 0 LINE SMOOTH",
"581 0 OFFCURVE",
"601 53 OFFCURVE",
"663 341 CURVE SMOOTH",
"680 424 OFFCURVE",
"691 485 OFFCURVE",
"691 532 CURVE SMOOTH",
"691 657 OFFCURVE",
"625 688 OFFCURVE",
"408 688 CURVE SMOOTH",
"187 688 LINE",
"40 0 LINE"
);
},
{
closed = 1;
nodes = (
"294 584 LINE",
"390 584 LINE SMOOTH",
"514 584 OFFCURVE",
"559.001 582.005 OFFCURVE",
"559 507 CURVE SMOOTH",
"559 471 OFFCURVE",
"549 419 OFFCURVE",
"533 344 CURVE SMOOTH",
"482 108 OFFCURVE",
"473 104 OFFCURVE",
"288 104 CURVE SMOOTH",
"192 104 LINE"
);
}
);
width = 708;
},
{
anchors = (
{
name = bottom;
position = "{184, 0}";
},
{
name = center;
position = "{135, 344}";
},
{
name = top;
position = "{330, 688}";
}
);
layerId = "C784E404-3F19-435D-96BB-DB276E1DA8D0";
paths = (
{
closed = 1;
nodes = (
"191 0 LINE SMOOTH",
"381 0 OFFCURVE",
"400 67 OFFCURVE",
"457 343 CURVE SMOOTH",
"478 441 OFFCURVE",
"491 511 OFFCURVE",
"491 562 CURVE SMOOTH",
"491 659 OFFCURVE",
"447 688 OFFCURVE",
"314 688 CURVE SMOOTH",
"151 688 LINE",
"5 0 LINE"
);
},
{
closed = 1;
nodes = (
"242 589 LINE",
"301 589 LINE SMOOTH",
"354 589 OFFCURVE",
"377 587 OFFCURVE",
"377 538 CURVE SMOOTH",
"377 503 OFFCURVE",
"366 445 OFFCURVE",
"345 344 CURVE SMOOTH",
"293 105 OFFCURVE",
"284 99 OFFCURVE",
"197 99 CURVE SMOOTH",
"138 99 LINE"
);
}
);
width = 475;
},
{
anchors = (
{
name = bottom;
position = "{111.798, 0}";
},
{
name = center;
position = "{184.918, 344}";
},
{
name = top;
position = "{258.037, 688}";
}
);
layerId = UUID0;
paths = (
{
closed = 1;
nodes = (
"122 0 LINE SMOOTH",
"231 0 OFFCURVE",
"258 49 OFFCURVE",
"319 344 CURVE SMOOTH",
"344 462 OFFCURVE",
"356 539 OFFCURVE",
"356 592 CURVE SMOOTH",
"356 670 OFFCURVE",
"324 688 OFFCURVE",
"249 688 CURVE SMOOTH",
"151 688 LINE",
"6 0 LINE"
);
},
{
closed = 1;
nodes = (
"180 654 LINE",
"257 654 LINE SMOOTH",
"296 654 OFFCURVE",
"320 647 OFFCURVE",
"320 582 CURVE SMOOTH",
"320 536 OFFCURVE",
"308 463 OFFCURVE",
"283 344 CURVE SMOOTH",
"221 51 OFFCURVE",
"196 34 OFFCURVE",
"126 34 CURVE SMOOTH",
"47 34 LINE"
);
}
);
width = 332;
},
{
anchors = (
{
name = bottom;
position = "{119.798, 0}";
},
{
name = center;
position = "{192.918, 344}";
},
{
name = top;
position = "{266.037, 688}";
}
);
layerId = "2A096AB6-16C2-4C34-8164-FCBBBF8CEAEB";
paths = (
{
closed = 1;
nodes = (
"137 0 LINE SMOOTH",
"292 0 OFFCURVE",
"299 81 OFFCURVE",
"356 348 CURVE SMOOTH",
"378 453 OFFCURVE",
"393 526 OFFCURVE",
"393 577 CURVE SMOOTH",
"393 653 OFFCURVE",
"360 688 OFFCURVE",
"267 688 CURVE SMOOTH",
"129 688 LINE",
"-17 0 LINE"
);
},
{
closed = 1;
nodes = (
"234 562 LINE",
"250 562 LINE SMOOTH",
"256 562 OFFCURVE",
"264 561 OFFCURVE",
"264 550 CURVE SMOOTH",
"264 526 OFFCURVE",
"250 472 OFFCURVE",
"224 344 CURVE SMOOTH",
"179 126 OFFCURVE",
"178 126 OFFCURVE",
"160 126 CURVE SMOOTH",
"141 126 LINE"
);
}
);
width = 348;
},
{
anchors = (
{
name = bottom;
position = "{123.798, 0}";
},
{
name = center;
position = "{196.918, 344}";
},
{
name = top;
position = "{270.037, 688}";
}
);
layerId = "B988E418-9469-42FB-AD32-095B8D65BEE5";
paths = (
{
closed = 1;
nodes = (
"134 0 LINE SMOOTH",
"270 0 OFFCURVE",
"288 67 OFFCURVE",
"348 345 CURVE SMOOTH",
"372 457 OFFCURVE",
"385 534 OFFCURVE",
"385 587 CURVE SMOOTH",
"385 664 OFFCURVE",
"351 688 OFFCURVE",
"265 688 CURVE SMOOTH",
"144 688 LINE",
"-2 0 LINE"
);
},
{
closed = 1;
nodes = (
"205 617 LINE",
"258 617 LINE SMOOTH",
"289 617 OFFCURVE",
"306 612 OFFCURVE",
"306 565 CURVE SMOOTH",
"306 531 OFFCURVE",
"297 464 OFFCURVE",
"271 344 CURVE SMOOTH",
"215 83 OFFCURVE",
"200 71 OFFCURVE",
"143 71 CURVE SMOOTH",
"89 71 LINE"
);
}
);
width = 356;
},
{
anchors = (
{
name = bottom;
position = "{328.798, 0}";
},
{
name = center;
position = "{401.918, 344}";
},
{
name = top;
position = "{475.037, 688}";
}
);
layerId = "8AB9AFA2-7010-440B-BFFC-1C7CDFA1A370";
paths = (
{
closed = 1;
nodes = (
"324 0 LINE SMOOTH",
"660 0 OFFCURVE",
"680 47 OFFCURVE",
"734 330 CURVE SMOOTH",
"749 411 OFFCURVE",
"760 475 OFFCURVE",
"760 526 CURVE SMOOTH",
"760 651 OFFCURVE",
"687 688 OFFCURVE",
"437 688 CURVE SMOOTH",
"145 688 LINE",
"-1 0 LINE"
);
},
{
closed = 1;
nodes = (
"374 510 LINE",
"398 510 LINE SMOOTH",
"463 510 OFFCURVE",
"488 507 OFFCURVE",
"488 462 CURVE SMOOTH",
"488 435 OFFCURVE",
"481 397 OFFCURVE",
"469 342 CURVE SMOOTH",
"437 188 OFFCURVE",
"434 178 OFFCURVE",
"328 178 CURVE SMOOTH",
"304 178 LINE"
);
}
);
width = 766;
},
{
anchors = (
{
name = bottom;
position = "{344.798, 0}";
},
{
name = center;
position = "{417.918, 344}";
},
{
name = top;
position = "{491.037, 688}";
}
);
layerId = "8494D26F-946F-4BDA-8E04-2FD894ABFEA2";
paths = (
{
closed = 1;
nodes = (
"339 0 LINE SMOOTH",
"654 0 OFFCURVE",
"675 46 OFFCURVE",
"738 340 CURVE SMOOTH",
"754 417 OFFCURVE",
"764 475 OFFCURVE",
"764 519 CURVE SMOOTH",
"764 657 OFFCURVE",
"690 688 OFFCURVE",
"445 688 CURVE SMOOTH",
"205 688 LINE",
"57 0 LINE"
);
},
{
closed = 1;
nodes = (
"302 585 LINE",
"424 585 LINE SMOOTH",
"592 585 OFFCURVE",
"640 581 OFFCURVE",
"640 498 CURVE SMOOTH",
"640 461 OFFCURVE",
"630 410 OFFCURVE",
"615 344 CURVE SMOOTH",
"563 107 OFFCURVE",
"554 103 OFFCURVE",
"319 103 CURVE SMOOTH",
"199 103 LINE"
);
}
);
width = 798;
},
{
anchors = (
{
name = bottom;
position = "{349.798, 0}";
},
{
name = center;
position = "{422.918, 344}";
},
{
name = top;
position = "{496.037, 688}";
}
);
layerId = "527899E9-AC81-44FE-89AA-146AC27955A1";
paths = (
{
closed = 1;
nodes = (
"325 0 LINE SMOOTH",
"632 0 OFFCURVE",
"655 34 OFFCURVE",
"720 344 CURVE SMOOTH",
"737 428 OFFCURVE",
"750 493 OFFCURVE",
"750 542 CURVE SMOOTH",
"750 668 OFFCURVE",
"675 688 OFFCURVE",
"454 688 CURVE SMOOTH",
"226 688 LINE",
"79 0 LINE"
);
},
{
closed = 1;
nodes = (
"254 654 LINE",
"426 654 LINE SMOOTH",
"640 654 OFFCURVE",
"714 652 OFFCURVE",
"714 537 CURVE SMOOTH",
"714 493 OFFCURVE",
"702 429 OFFCURVE",
"684 344 CURVE SMOOTH",
"619 36 OFFCURVE",
"606 34 OFFCURVE",
"295 34 CURVE SMOOTH",
"123 34 LINE"
);
}
);
width = 808;
}
);
leftKerningGroup = H;
rightKerningGroup = O;
unicode = 0044;
},
{
glyphname = Eth;
layers = (
{
components = (
{
name = D;
}
);
layerId = "CD898CA3-FB76-4965-A23E-9AA06D1CE2B1";
paths = (
{
closed = 1;
nodes = (
"297 331 LINE",
"305 367 LINE",
"70 367 LINE",
"62 331 LINE"
);
}
);
width = 693;
},
{
components = (
{
name = D;
}
);
layerId = "B4DE345C-CFDB-4A54-B125-3358BD91D59F";
paths = (
{
closed = 1;
nodes = (
"351 280 LINE",
"380 417 LINE",
"24 417 LINE",
"-5 280 LINE"
);
}
);
width = 666;
},
{
components = (
{
name = D;
}
);
layerId = "47937877-2CF8-49A0-A6AF-2B1A27CB5FF4";
paths = (
{
closed = 1;
nodes = (
"229 278 LINE",
"259 417 LINE",
"39 417 LINE",
"9 278 LINE"
);
}
);
width = 415;
},
{
components = (
{
name = D;
}
);
layerId = "FA01890A-5211-455F-9108-1209F66A586C";
paths = (
{
closed = 1;
nodes = (
"238 331 LINE",
"246 367 LINE",
"41 367 LINE",
"33 331 LINE"
);
}
);
width = 407;
},
{
components = (
{
name = D;
}
);
layerId = "20A7088A-67D7-4614-84CF-19C576DDC019";
paths = (
{
closed = 1;
nodes = (
"336 304 LINE",
"355 394 LINE",
"55 394 LINE",
"36 304 LINE"
);
}
);
width = 708;
},
{
components = (
{
name = D;
}
);
layerId = "C784E404-3F19-435D-96BB-DB276E1DA8D0";
paths = (
{
closed = 1;
nodes = (
"256 300 LINE",
"276 396 LINE",
"41 396 LINE",
"21 300 LINE"
);
}
);
width = 475;
},
{
components = (
{
name = D;
}
);
layerId = UUID0;
paths = (
{
closed = 1;
nodes = (
"224 331 LINE",
"231 367 LINE",
"32 367 LINE",
"25 331 LINE"
);
}
);
width = 332;
},
{
components = (
{
name = D;
}
);
layerId = "2A096AB6-16C2-4C34-8164-FCBBBF8CEAEB";
paths = (
{
closed = 1;
nodes = (
"206 319 LINE",
"220 383 LINE",
"37 383 LINE",
"24 319 LINE"
);
}
);
width = 348;
},
{
components = (
{
name = D;
}
);
layerId = "B988E418-9469-42FB-AD32-095B8D65BEE5";
paths = (
{
closed = 1;
nodes = (
"218 323 LINE",
"229 375 LINE",
"35 375 LINE",
"24 323 LINE"
);
}
);
width = 356;
},
{
background = {
paths = (
{
closed = 1;
nodes = (
"324 0 LINE SMOOTH",
"660 0 OFFCURVE",
"680 47 OFFCURVE",
"734 330 CURVE SMOOTH",
"749 411 OFFCURVE",
"760 475 OFFCURVE",
"760 526 CURVE SMOOTH",
"760 651 OFFCURVE",
"687 688 OFFCURVE",
"437 688 CURVE SMOOTH",
"145 688 LINE",
"83 399 LINE",
"20 399 LINE",
"0 299 LINE",
"62 299 LINE",
"-1 0 LINE"
);
},
{
closed = 1;
nodes = (
"329 299 LINE",
"399 299 LINE",
"420 399 LINE",
"350 399 LINE",
"374 510 LINE",
"398 510 LINE SMOOTH",
"463 510 OFFCURVE",
"488 507 OFFCURVE",
"488 462 CURVE SMOOTH",
"488 435 OFFCURVE",
"481 397 OFFCURVE",
"469 342 CURVE SMOOTH",
"437 188 OFFCURVE",
"434 178 OFFCURVE",
"328 178 CURVE SMOOTH",
"304 178 LINE"
);
}
);
};
components = (
{
name = D;
}
);
layerId = "8AB9AFA2-7010-440B-BFFC-1C7CDFA1A370";
paths = (
{
closed = 1;
nodes = (
"399 299 LINE",
"420 399 LINE",
"20 399 LINE",
"0 299 LINE"
);
}
);
width = 766;
},
{
background = {
paths = (
{
closed = 1;
nodes = (
"339 0 LINE SMOOTH",
"654 0 OFFCURVE",
"675 46 OFFCURVE",
"738 340 CURVE SMOOTH",
"754 417 OFFCURVE",
"764 475 OFFCURVE",
"764 519 CURVE SMOOTH",
"764 657 OFFCURVE",
"690 688 OFFCURVE",
"445 688 CURVE SMOOTH",
"205 688 LINE",
"136 368 LINE",
"128 332 LINE",
"57 0 LINE"
);
},
{
closed = 1;
nodes = (
"244 316 LINE",
"360 316 LINE",
"375 384 LINE",
"259 384 LINE",
"302 585 LINE",
"424 585 LINE SMOOTH",
"592 585 OFFCURVE",
"640 581 OFFCURVE",
"640 498 CURVE SMOOTH",
"640 461 OFFCURVE",
"630 410 OFFCURVE",
"615 344 CURVE SMOOTH",
"563 107 OFFCURVE",
"554 103 OFFCURVE",
"319 103 CURVE SMOOTH",
"199 103 LINE"
);
}
);
};
components = (
{
name = D;
}
);
layerId = "8494D26F-946F-4BDA-8E04-2FD894ABFEA2";
paths = (
{
closed = 1;
nodes = (
"361 316 LINE",
"375 384 LINE",
"63 384 LINE",
"48 316 LINE"
);
}
);
width = 798;
},
{
background = {
paths = (
{
closed = 1;
nodes = (
"325 0 LINE SMOOTH",
"632 0 OFFCURVE",
"655 34 OFFCURVE",
"720 344 CURVE SMOOTH",
"737 428 OFFCURVE",
"750 493 OFFCURVE",
"750 542 CURVE SMOOTH",
"750 668 OFFCURVE",
"675 688 OFFCURVE",
"454 688 CURVE SMOOTH",
"226 688 LINE",
"79 0 LINE"
);
},
{
closed = 1;
nodes = (
"186 331 LINE",
"321 331 LINE",
"329 367 LINE",
"193 367 LINE",
"254 654 LINE",
"426 654 LINE SMOOTH",
"640 654 OFFCURVE",
"714 652 OFFCURVE",
"714 537 CURVE SMOOTH",
"714 493 OFFCURVE",
"702 429 OFFCURVE",
"684 344 CURVE SMOOTH",
"619 36 OFFCURVE",
"606 34 OFFCURVE",
"295 34 CURVE SMOOTH",
"123 34 LINE"
);
}
);
};
components = (
{
name = D;
}
);
layerId = "527899E9-AC81-44FE-89AA-146AC27955A1";
paths = (
{
closed = 1;
nodes = (
"322 331 LINE",
"329 367 LINE",
"81 367 LINE",
"73 331 LINE"
);
}
);
width = 808;
}
);
leftKerningGroup = H;
rightKerningGroup = O;
unicode = 00D0;
},
{
glyphname = Dcaron;
layers = (
{
background = {
paths = (
{
closed = 1;
nodes = (
"320 0 LINE SMOOTH",
"586 0 OFFCURVE",
"603 38 OFFCURVE",
"603 344 CURVE SMOOTH",
"603 650 OFFCURVE",
"586 688 OFFCURVE",
"320 688 CURVE SMOOTH",
"115 688 LINE",
"115 0 LINE"
);
},
{
closed = 1;
nodes = (
"151 654 LINE",
"300 654 LINE SMOOTH",
"549 654 OFFCURVE",
"567 648 OFFCURVE",
"567 344 CURVE SMOOTH",
"567 40 OFFCURVE",
"553 34 OFFCURVE",
"300 34 CURVE SMOOTH",
"151 34 LINE"
);
},
{
closed = 1;
nodes = (
"370 750 LINE",
"477 883 LINE",
"477 888 LINE",
"450 888 LINE",
"347 780 LINE",
"244 888 LINE",
"217 888 LINE",
"217 883 LINE",
"324 750 LINE"
);
}
);
};
components = (
{
name = D;
},
{
name = caroncomb.case;
transform = "{1, 0, 0, 1, 255, 178}";
}
);
layerId = "CD898CA3-FB76-4965-A23E-9AA06D1CE2B1";
width = 693;
},
{
background = {
paths = (
{
closed = 1;
nodes = (
"306 0 LINE SMOOTH",
"625 0 OFFCURVE",
"628 72 OFFCURVE",
"628 344 CURVE SMOOTH",
"628 616 OFFCURVE",
"625 688 OFFCURVE",
"306 688 CURVE SMOOTH",
"51 688 LINE",
"51 0 LINE"
);
},
{
closed = 1;
nodes = (
"285 521 LINE",
"309 521 LINE SMOOTH",
"393 521 OFFCURVE",
"393 516 OFFCURVE",
"393 343 CURVE SMOOTH",
"393 174 OFFCURVE",
"393 167 OFFCURVE",
"309 167 CURVE SMOOTH",
"285 167 LINE"
);
},
{
closed = 1;
nodes = (
"429 740 LINE",
"519 880 LINE",
"519 888 LINE",
"385 888 LINE",
"337 816 LINE",
"285 888 LINE",
"151 888 LINE",
"151 880 LINE",
"240 740 LINE"
);
}
);
};
components = (
{
name = D;
},
{
name = caroncomb.case;
transform = "{1, 0, 0, 1, 187, 178}";
}
);
layerId = "B4DE345C-CFDB-4A54-B125-3358BD91D59F";
width = 666;
},
{
background = {
paths = (
{
closed = 1;
nodes = (
"207 0 LINE SMOOTH",
"391 0 OFFCURVE",
"391 88 OFFCURVE",
"391 344 CURVE SMOOTH",
"391 601 OFFCURVE",
"391 688 OFFCURVE",
"207 688 CURVE SMOOTH",
"34 688 LINE",
"34 0 LINE"
);
},
{
closed = 1;
nodes = (
"186 549 LINE",
"207 549 LINE SMOOTH",
"238 549 OFFCURVE",
"239 548 OFFCURVE",
"239 344 CURVE SMOOTH",
"239 140 OFFCURVE",
"238 139 OFFCURVE",
"207 139 CURVE SMOOTH",
"186 139 LINE"
);
},
{
closed = 1;
nodes = (
"278 765 LINE",
"346 879 LINE",
"346 888 LINE",
"247 888 LINE",
"207 832 LINE",
"169 888 LINE",
"70 888 LINE",
"70 879 LINE",
"136 765 LINE"
);
}
);
};
components = (
{
name = D;
},
{
name = caroncomb.case;
transform = "{1, 0, 0, 1, 108, 178}";
}
);
layerId = "47937877-2CF8-49A0-A6AF-2B1A27CB5FF4";
width = 415;
},
{
background = {
paths = (
{
closed = 1;
nodes = (
"193 0 LINE SMOOTH",
"339 0 OFFCURVE",
"357 47 OFFCURVE",
"357 344 CURVE SMOOTH",
"357 641 OFFCURVE",
"339 688 OFFCURVE",
"193 688 CURVE SMOOTH",
"65 688 LINE",
"65 0 LINE"
);
},
{
closed = 1;
nodes = (
"101 654 LINE",
"193 654 LINE SMOOTH",
"302 654 OFFCURVE",
"321 639 OFFCURVE",
"321 344 CURVE SMOOTH",
"321 49 OFFCURVE",
"302 34 OFFCURVE",
"193 34 CURVE SMOOTH",
"101 34 LINE"
);
},
{
closed = 1;
nodes = (
"227 750 LINE",
"294 883 LINE",
"294 888 LINE",
"267 888 LINE",
"204 780 LINE",
"141 888 LINE",
"114 888 LINE",
"114 883 LINE",
"181 750 LINE"
);
}
);
};
components = (
{
name = D;
},
{
name = caroncomb.case;
transform = "{1, 0, 0, 1, 151, 178}";
}
);
layerId = "FA01890A-5211-455F-9108-1209F66A586C";
width = 407;
},
{
background = {
paths = (
{
closed = 1;
nodes = (
"325 0 LINE SMOOTH",
"628 0 OFFCURVE",
"639 57 OFFCURVE",
"639 344 CURVE SMOOTH",
"639 631 OFFCURVE",
"628 688 OFFCURVE",
"325 688 CURVE SMOOTH",
"90 688 LINE",
"90 0 LINE"
);
},
{
closed = 1;
nodes = (
"220 584 LINE",
"316 584 LINE SMOOTH",
"499 584 OFFCURVE",
"509 580 OFFCURVE",
"509 344 CURVE SMOOTH",
"509 108 OFFCURVE",
"501 104 OFFCURVE",
"316 104 CURVE SMOOTH",
"220 104 LINE"
);
},
{
closed = 1;
nodes = (
"412 742 LINE",
"513 882 LINE",
"513 888 LINE",
"435 888 LINE",
"355 796 LINE",
"274 888 LINE",
"196 888 LINE",
"196 882 LINE",
"297 742 LINE"
);
}
);
};
components = (
{
name = D;
},
{
name = caroncomb.case;
transform = "{1, 0, 0, 1, 233, 178}";
}
);
layerId = "20A7088A-67D7-4614-84CF-19C576DDC019";
width = 708;
},
{
background = {
paths = (
{
closed = 1;
nodes = (
"228 0 LINE SMOOTH",
"426 0 OFFCURVE",
"434 68 OFFCURVE",
"434 344 CURVE SMOOTH",
"434 620 OFFCURVE",
"426 688 OFFCURVE",
"228 688 CURVE SMOOTH",
"55 688 LINE",
"55 0 LINE"
);
},
{
closed = 1;
nodes = (
"168 589 LINE",
"226 589 LINE SMOOTH",
"313 589 OFFCURVE",
"321 583 OFFCURVE",
"321 344 CURVE SMOOTH",
"321 105 OFFCURVE",
"313 99 OFFCURVE",
"226 99 CURVE SMOOTH",
"168 99 LINE"
);
},
{
closed = 1;
nodes = (
"291 755 LINE",
"366 881 LINE",
"366 888 LINE",
"293 888 LINE",
"238 808 LINE",
"183 888 LINE",
"110 888 LINE",
"110 881 LINE",
"184 755 LINE"
);
}
);
};
components = (
{
name = D;
},
{
name = caroncomb.case;
transform = "{1, 0, 0, 1, 143, 178}";
}
);
layerId = "C784E404-3F19-435D-96BB-DB276E1DA8D0";
width = 475;
},
{
components = (
{
name = D;
},
{
name = caroncomb.case;
transform = "{1, 0, 0, 1, 124, 178}";
}
);
layerId = UUID0;
width = 332;
},
{
components = (
{
name = D;
},
{
name = caroncomb.case;
transform = "{1, 0, 0, 1, 117, 178}";
}
);
layerId = "B988E418-9469-42FB-AD32-095B8D65BEE5";
width = 356;
},
{
components = (
{
name = D;
},
{
name = caroncomb.case;
transform = "{1, 0, 0, 1, 85, 178}";
}
);
layerId = "2A096AB6-16C2-4C34-8164-FCBBBF8CEAEB";
width = 348;
},
{
components = (
{
name = D;
},
{
name = caroncomb.case;
transform = "{1, 0, 0, 1, 295, 178}";
}
);
layerId = "527899E9-AC81-44FE-89AA-146AC27955A1";
width = 808;
},
{
components = (
{
name = D;
},
{
name = caroncomb.case;
transform = "{1, 0, 0, 1, 271, 178}";
}
);
layerId = "8494D26F-946F-4BDA-8E04-2FD894ABFEA2";
width = 798;
},
{
components = (
{
name = D;
},
{
name = caroncomb.case;
transform = "{1, 0, 0, 1, 219, 178}";
}
);
layerId = "8AB9AFA2-7010-440B-BFFC-1C7CDFA1A370";
width = 766;
}
);
leftKerningGroup = H;
rightKerningGroup = O;
unicode = 010E;
},
{
glyphname = Dcroat;
layers = (
{
components = (
{
name = Eth;
}
);
layerId = "CD898CA3-FB76-4965-A23E-9AA06D1CE2B1";
width = 693;
},
{
components = (
{
name = Eth;
}
);
layerId = "B4DE345C-CFDB-4A54-B125-3358BD91D59F";
width = 666;
},
{
components = (
{
name = Eth;
}
);
layerId = "47937877-2CF8-49A0-A6AF-2B1A27CB5FF4";
width = 415;
},
{
components = (
{
name = Eth;
}
);
layerId = "FA01890A-5211-455F-9108-1209F66A586C";
width = 407;
},
{
components = (
{
name = Eth;
}
);
layerId = "20A7088A-67D7-4614-84CF-19C576DDC019";
width = 708;
},
{
components = (
{
name = Eth;
}
);
layerId = "C784E404-3F19-435D-96BB-DB276E1DA8D0";
width = 475;
},
{
background = {
paths = (
{
closed = 1;
nodes = (
"122 0 LINE SMOOTH",
"231 0 OFFCURVE",
"258 49 OFFCURVE",
"319 344 CURVE SMOOTH",
"344 462 OFFCURVE",
"356 539 OFFCURVE",
"356 592 CURVE SMOOTH",
"356 670 OFFCURVE",
"324 688 OFFCURVE",
"249 688 CURVE SMOOTH",
"151 688 LINE",
"83 367 LINE",
"32 367 LINE",
"25 331 LINE",
"76 331 LINE",
"6 0 LINE"
);
},
{
closed = 1;
nodes = (
"111 331 LINE",
"224 331 LINE",
"231 367 LINE",
"118 367 LINE",
"180 654 LINE",
"257 654 LINE SMOOTH",
"296 654 OFFCURVE",
"320 647 OFFCURVE",
"320 582 CURVE SMOOTH",
"320 536 OFFCURVE",
"308 463 OFFCURVE",
"283 344 CURVE SMOOTH",
"221 51 OFFCURVE",
"196 34 OFFCURVE",
"126 34 CURVE SMOOTH",
"47 34 LINE"
);
}
);
};
components = (
{
name = Eth;
}
);
layerId = UUID0;
width = 332;
},
{
background = {
paths = (
{
closed = 1;
nodes = (
"137 0 LINE SMOOTH",
"292 0 OFFCURVE",
"299 81 OFFCURVE",
"356 348 CURVE SMOOTH",
"378 453 OFFCURVE",
"393 526 OFFCURVE",
"393 577 CURVE SMOOTH",
"393 653 OFFCURVE",
"360 688 OFFCURVE",
"267 688 CURVE SMOOTH",
"129 688 LINE",
"64 383 LINE",
"37 383 LINE",
"24 319 LINE",
"50 319 LINE",
"-17 0 LINE"
);
},
{
closed = 1;
nodes = (
"182 319 LINE",
"208 319 LINE",
"222 383 LINE",
"195 383 LINE",
"234 562 LINE",
"250 562 LINE SMOOTH",
"256 562 OFFCURVE",
"264 561 OFFCURVE",
"264 550 CURVE SMOOTH",
"264 526 OFFCURVE",
"250 472 OFFCURVE",
"224 344 CURVE SMOOTH",
"179 126 OFFCURVE",
"178 126 OFFCURVE",
"160 126 CURVE SMOOTH",
"141 126 LINE"
);
}
);
};
components = (
{
name = Eth;
}
);
layerId = "2A096AB6-16C2-4C34-8164-FCBBBF8CEAEB";
width = 348;
},
{
background = {
paths = (
{
closed = 1;
nodes = (
"134 0 LINE SMOOTH",
"270 0 OFFCURVE",
"288 67 OFFCURVE",
"348 345 CURVE SMOOTH",
"372 457 OFFCURVE",
"385 534 OFFCURVE",
"385 587 CURVE SMOOTH",
"385 664 OFFCURVE",
"351 688 OFFCURVE",
"265 688 CURVE SMOOTH",
"144 688 LINE",
"77 375 LINE",
"35 375 LINE",
"24 323 LINE",
"66 323 LINE",
"-2 0 LINE"
);
},
{
closed = 1;
nodes = (
"142 323 LINE",
"218 323 LINE",
"229 375 LINE",
"153 375 LINE",
"205 617 LINE",
"258 617 LINE SMOOTH",
"289 617 OFFCURVE",
"306 612 OFFCURVE",
"306 565 CURVE SMOOTH",
"306 531 OFFCURVE",
"297 464 OFFCURVE",
"271 344 CURVE SMOOTH",
"215 83 OFFCURVE",
"200 71 OFFCURVE",
"143 71 CURVE SMOOTH",
"89 71 LINE"
);
}
);
};
components = (
{
name = Eth;
}
);
layerId = "B988E418-9469-42FB-AD32-095B8D65BEE5";
width = 356;
},
{
background = {
paths = (
{
closed = 1;
nodes = (
"324 0 LINE SMOOTH",
"660 0 OFFCURVE",
"680 47 OFFCURVE",
"734 330 CURVE SMOOTH",
"749 411 OFFCURVE",
"760 475 OFFCURVE",
"760 526 CURVE SMOOTH",
"760 651 OFFCURVE",
"687 688 OFFCURVE",
"437 688 CURVE SMOOTH",
"145 688 LINE",
"83 399 LINE",
"20 399 LINE",
"0 299 LINE",
"62 299 LINE",
"-1 0 LINE"
);
},
{
closed = 1;
nodes = (
"329 299 LINE",
"399 299 LINE",
"420 399 LINE",
"350 399 LINE",
"374 510 LINE",
"398 510 LINE SMOOTH",
"463 510 OFFCURVE",
"488 507 OFFCURVE",
"488 462 CURVE SMOOTH",
"488 435 OFFCURVE",
"481 397 OFFCURVE",
"469 342 CURVE SMOOTH",
"437 188 OFFCURVE",
"434 178 OFFCURVE",
"328 178 CURVE SMOOTH",
"304 178 LINE"
);
}
);
};
components = (
{
name = Eth;
}
);
layerId = "8AB9AFA2-7010-440B-BFFC-1C7CDFA1A370";
width = 766;
},
{
background = {
paths = (
{
closed = 1;
nodes = (
"339 0 LINE SMOOTH",
"654 0 OFFCURVE",
"675 46 OFFCURVE",
"738 340 CURVE SMOOTH",
"754 417 OFFCURVE",
"764 475 OFFCURVE",
"764 519 CURVE SMOOTH",
"764 657 OFFCURVE",
"690 688 OFFCURVE",
"445 688 CURVE SMOOTH",
"205 688 LINE",
"139 384 LINE",
"63 384 LINE",
"48 316 LINE",
"125 316 LINE",
"57 0 LINE"
);
},
{
closed = 1;
nodes = (
"244 316 LINE",
"360 316 LINE",
"375 384 LINE",
"259 384 LINE",
"302 585 LINE",
"424 585 LINE SMOOTH",
"592 585 OFFCURVE",
"640 581 OFFCURVE",
"640 498 CURVE SMOOTH",
"640 461 OFFCURVE",
"630 410 OFFCURVE",
"615 344 CURVE SMOOTH",
"563 107 OFFCURVE",
"554 103 OFFCURVE",
"319 103 CURVE SMOOTH",
"199 103 LINE"
);
}
);
};
components = (
{
name = Eth;
}
);
layerId = "8494D26F-946F-4BDA-8E04-2FD894ABFEA2";
width = 798;
},
{
background = {
paths = (
{
closed = 1;
nodes = (
"325 0 LINE SMOOTH",
"632 0 OFFCURVE",
"655 34 OFFCURVE",
"720 344 CURVE SMOOTH",
"737 428 OFFCURVE",
"750 493 OFFCURVE",
"750 542 CURVE SMOOTH",
"750 668 OFFCURVE",
"675 688 OFFCURVE",
"454 688 CURVE SMOOTH",
"226 688 LINE",
"157 367 LINE",
"81 367 LINE",
"73 331 LINE",
"150 331 LINE",
"79 0 LINE"
);
},
{
closed = 1;
nodes = (
"186 331 LINE",
"321 331 LINE",
"329 367 LINE",
"193 367 LINE",
"254 654 LINE",
"426 654 LINE SMOOTH",
"640 654 OFFCURVE",
"714 652 OFFCURVE",
"714 537 CURVE SMOOTH",
"714 493 OFFCURVE",
"702 429 OFFCURVE",
"684 344 CURVE SMOOTH",
"619 36 OFFCURVE",
"606 34 OFFCURVE",
"295 34 CURVE SMOOTH",
"123 34 LINE"
);
}
);
};
components = (
{
name = Eth;
}
);
layerId = "527899E9-AC81-44FE-89AA-146AC27955A1";
width = 808;
}
);
leftKerningGroup = H;
rightKerningGroup = O;
unicode = 0110;
},
{
glyphname = E;
layers = (
{
anchors = (
{
name = bottom;
position = "{293, 0}";
},
{
name = ogonek;
position = "{487, 0}";
},
{
name = top;
position = "{421, 688}";
},
{
name = topleft;
position = "{208, 688}";
}
);
layerId = "CD898CA3-FB76-4965-A23E-9AA06D1CE2B1";
paths = (
{
closed = 1;
nodes = (
"487 0 LINE",
"495 34 LINE",
"105 34 LINE",
"168 331 LINE",
"511 331 LINE",
"518 365 LINE",
"175 365 LINE",
"236 654 LINE",
"626 654 LINE",
"634 688 LINE",
"208 688 LINE",
"61 0 LINE"
);
}
);
width = 598;
},
{
anchors = (
{
name = bottom;
position = "{247, 0}";
},
{
name = ogonek;
position = "{498, 0}";
},
{
name = top;
position = "{390, 688}";
},
{
name = topleft;
position = "{141, 688}";
}
);
layerId = "B4DE345C-CFDB-4A54-B125-3358BD91D59F";
paths = (
{
closed = 1;
nodes = (
"498 0 LINE",
"534 167 LINE",
"263 167 LINE",
"284 266 LINE",
"508 266 LINE",
"543 429 LINE",
"319 429 LINE",
"338 521 LINE",
"609 521 LINE",
"645 688 LINE",
"141 688 LINE",
"-5 0 LINE"
);
}
);
width = 593;
},
{
anchors = (
{
name = bottom;
position = "{129, 0}";
},
{
name = ogonek;
position = "{262, 0}";
},
{
name = top;
position = "{275, 688}";
},
{
name = topleft;
position = "{131, 688}";
}
);
layerId = "47937877-2CF8-49A0-A6AF-2B1A27CB5FF4";
paths = (
{
closed = 1;
nodes = (
"262 0 LINE",
"292 139 LINE",
"168 139 LINE",
"197 278 LINE",
"306 278 LINE",
"336 417 LINE",
"227 417 LINE",
"255 549 LINE",
"379 549 LINE",
"409 688 LINE",
"131 688 LINE",
"-15 0 LINE"
);
}
);
width = 338;
},
{
anchors = (
{
name = bottom;
position = "{144, 0}";
},
{
name = ogonek;
position = "{272, 0}";
},
{
name = top;
position = "{290, 688}";
},
{
name = topleft;
position = "{163, 688}";
}
);
layerId = "FA01890A-5211-455F-9108-1209F66A586C";
paths = (
{
closed = 1;
nodes = (
"272 0 LINE",
"280 34 LINE",
"61 34 LINE",
"124 331 LINE",
"315 331 LINE",
"322 365 LINE",
"131 365 LINE",
"192 654 LINE",
"411 654 LINE",
"419 688 LINE",
"163 688 LINE",
"17 0 LINE"
);
}
);
width = 351;
},
{
anchors = (
{
name = bottom;
position = "{275, 0}";
},
{
name = ogonek;
position = "{523, 0}";
},
{
name = top;
position = "{421, 688}";
},
{
name = topleft;
position = "{187, 688}";
}
);
layerId = "20A7088A-67D7-4614-84CF-19C576DDC019";
paths = (
{
closed = 1;
nodes = (
"523 0 LINE",
"545 104 LINE",
"191 104 LINE",
"233 296 LINE",
"536 296 LINE",
"558 398 LINE",
"254 398 LINE",
"294 584 LINE",
"648 584 LINE",
"670 688 LINE",
"187 688 LINE",
"40 0 LINE"
);
}
);
width = 624;
},
{
anchors = (
{
name = bottom;
position = "{166, 0}";
},
{
name = ogonek;
position = "{321, 0}";
},
{
name = top;
position = "{312, 688}";
},
{
name = topleft;
position = "{151, 688}";
}
);
layerId = "C784E404-3F19-435D-96BB-DB276E1DA8D0";
paths = (
{
closed = 1;
nodes = (
"321 0 LINE",
"342 99 LINE",
"139 99 LINE",
"182 298 LINE",
"358 298 LINE",
"379 397 LINE",
"203 397 LINE",
"243 589 LINE",
"447 589 LINE",
"468 688 LINE",
"151 688 LINE",
"5 0 LINE"
);
}
);
width = 404;
},
{
anchors = (
{
name = bottom;
position = "{105, 0}";
},
{
name = ogonek;
position = "{215, 0}";
},
{
name = top;
position = "{251, 688}";
},
{
name = topleft;
position = "{151, 688}";
}
);
layerId = UUID0;
paths = (
{
closed = 1;
nodes = (
"215 0 LINE",
"223 34 LINE",
"48 34 LINE",
"111 331 LINE",
"264 331 LINE",
"271 365 LINE",
"118 365 LINE",
"180 654 LINE",
"354 654 LINE",
"362 688 LINE",
"151 688 LINE",
"6 0 LINE"
);
}
);
width = 286;
},
{
anchors = (
{
name = bottom;
position = "{88, 0}";
},
{
name = ogonek;
position = "{199, 0}";
},
{
name = top;
position = "{234, 688}";
},
{
name = topleft;
position = "{129, 688}";
}
);
layerId = "2A096AB6-16C2-4C34-8164-FCBBBF8CEAEB";
paths = (
{
closed = 1;
nodes = (
"199 0 LINE",
"226 126 LINE",
"141 126 LINE",
"175 284 LINE",
"252 284 LINE",
"279 411 LINE",
"202 411 LINE",
"234 562 LINE",
"317 562 LINE",
"344 688 LINE",
"129 688 LINE",
"-17 0 LINE"
);
}
);
width = 270;
},
{
anchors = (
{
name = bottom;
position = "{109, 0}";
},
{
name = ogonek;
position = "{223, 0}";
},
{
name = top;
position = "{255, 688}";
},
{
name = topleft;
position = "{144, 688}";
}
);
layerId = "B988E418-9469-42FB-AD32-095B8D65BEE5";
paths = (
{
closed = 1;
nodes = (
"223 0 LINE",
"240 71 LINE",
"89 71 LINE",
"141 312 LINE",
"271 312 LINE",
"287 383 LINE",
"156 383 LINE",
"206 617 LINE",
"353 617 LINE",
"370 688 LINE",
"144 688 LINE",
"-2 0 LINE"
);
}
);
width = 297;
},
{
anchors = (
{
name = bottom;
position = "{304, 0}";
},
{
name = ogonek;
position = "{592, 0}";
},
{
name = top;
position = "{450, 688}";
},
{
name = topleft;
position = "{145, 688}";
}
);
layerId = "8AB9AFA2-7010-440B-BFFC-1C7CDFA1A370";
paths = (
{
closed = 1;
nodes = (
"592 0 LINE",
"631 178 LINE",
"301 178 LINE",
"319 261 LINE",
"589 261 LINE",
"626 434 LINE",
"356 434 LINE",
"372 510 LINE",
"701 510 LINE",
"739 688 LINE",
"145 688 LINE",
"-1 0 LINE"
);
}
);
width = 695;
},
{
anchors = (
{
name = bottom;
position = "{328, 0}";
},
{
name = ogonek;
position = "{595, 0}";
},
{
name = top;
position = "{474, 688}";
},
{
name = topleft;
position = "{205, 688}";
}
);
layerId = "8494D26F-946F-4BDA-8E04-2FD894ABFEA2";
paths = (
{
closed = 1;
nodes = (
"595 0 LINE",
"617 103 LINE",
"199 103 LINE",
"240 296 LINE",
"600 296 LINE",
"621 399 LINE",
"262 399 LINE",
"302 585 LINE",
"720 585 LINE",
"742 688 LINE",
"205 688 LINE",
"57 0 LINE"
);
}
);
width = 705;
},
{
anchors = (
{
name = bottom;
position = "{324, 0}";
},
{
name = ogonek;
position = "{573, 0}";
},
{
name = top;
position = "{470, 688}";
},
{
name = topleft;
position = "{226, 688}";
}
);
layerId = "527899E9-AC81-44FE-89AA-146AC27955A1";
paths = (
{
closed = 1;
nodes = (
"573 0 LINE",
"581 34 LINE",
"123 34 LINE",
"186 331 LINE",
"590 331 LINE",
"597 365 LINE",
"193 365 LINE",
"254 654 LINE",
"712 654 LINE",
"720 688 LINE",
"226 688 LINE",
"79 0 LINE"
);
}
);
width = 698;
}
);
leftKerningGroup = H;
rightKerningGroup = E;
unicode = 0045;
},
{
glyphname = Eogonek;
layers = (
{
components = (
{
name = E;
},
{
name = ogonekcomb.case;
transform = "{1, 0, 0, 1, 443, -4}";
}
);
layerId = "CD898CA3-FB76-4965-A23E-9AA06D1CE2B1";
width = 598;
},
{
components = (
{
name = E;
},
{
name = ogonekcomb.case;
transform = "{1, 0, 0, 1, 410, -4}";
}
);
layerId = "20A7088A-67D7-4614-84CF-19C576DDC019";
width = 624;
},
{
components = (
{
name = E;
},
{
name = ogonekcomb.case;
transform = "{1, 0, 0, 1, 321, -4}";
}
);
layerId = "B4DE345C-CFDB-4A54-B125-3358BD91D59F";
width = 593;
},
{
components = (
{
name = E;
},
{
name = ogonekcomb.case;
transform = "{1, 0, 0, 1, 227, -4}";
}
);
layerId = "FA01890A-5211-455F-9108-1209F66A586C";
width = 351;
},
{
components = (
{
name = E;
},
{
name = ogonekcomb.case;
transform = "{1, 0, 0, 1, 236, -4}";
}
);
layerId = "C784E404-3F19-435D-96BB-DB276E1DA8D0";
width = 404;
},
{
components = (
{
name = E;
},
{
name = ogonekcomb.case;
transform = "{1, 0, 0, 1, 166, -4}";
}
);
layerId = "47937877-2CF8-49A0-A6AF-2B1A27CB5FF4";
width = 338;
},
{
background = {
paths = (
{
closed = 1;
nodes = (
"166 -194 OFFCURVE",
"170 -194 OFFCURVE",
"180 -193 CURVE",
"187 -161 LINE",
"178 -162 OFFCURVE",
"174 -162 OFFCURVE",
"170 -162 CURVE SMOOTH",
"142 -162 OFFCURVE",
"131 -149 OFFCURVE",
"131 -131 CURVE SMOOTH",
"131 -93 OFFCURVE",
"179 -31 OFFCURVE",
"215 0 CURVE",
"223 34 LINE",
"48 34 LINE",
"111 331 LINE",
"264 331 LINE",
"271 365 LINE",
"118 365 LINE",
"180 654 LINE",
"354 654 LINE",
"362 688 LINE",
"151 688 LINE",
"6 0 LINE",
"182 0 LINE",
"131 -42 OFFCURVE",
"96 -95 OFFCURVE",
"96 -136 CURVE SMOOTH",
"96 -171 OFFCURVE",
"115 -194 OFFCURVE",
"157 -194 CURVE SMOOTH"
);
}
);
};
components = (
{
name = E;
},
{
name = ogonekcomb.case;
transform = "{1, 0, 0, 1, 170, -4}";
}
);
layerId = UUID0;
width = 286;
},
{
background = {
paths = (
{
closed = 1;
nodes = (
"131 -207 OFFCURVE",
"150 -205 OFFCURVE",
"161 -202 CURVE",
"175 -132 LINE",
"170 -133 OFFCURVE",
"169 -133 OFFCURVE",
"167 -133 CURVE SMOOTH",
"149 -133 OFFCURVE",
"144 -124 OFFCURVE",
"144 -112 CURVE SMOOTH",
"144 -71 OFFCURVE",
"178 -23 OFFCURVE",
"199 0 CURVE",
"226 126 LINE",
"141 126 LINE",
"175 284 LINE",
"252 284 LINE",
"279 411 LINE",
"202 411 LINE",
"234 562 LINE",
"317 562 LINE",
"344 688 LINE",
"129 688 LINE",
"-17 0 LINE",
"118 0 LINE",
"73 -41 OFFCURVE",
"47 -90 OFFCURVE",
"47 -136 CURVE SMOOTH",
"47 -175 OFFCURVE",
"65 -207 OFFCURVE",
"114 -207 CURVE SMOOTH"
);
}
);
};
components = (
{
name = E;
},
{
name = ogonekcomb.case;
transform = "{1, 0, 0, 1, 124, -3}";
}
);
layerId = "2A096AB6-16C2-4C34-8164-FCBBBF8CEAEB";
width = 270;
},
{
background = {
paths = (
{
closed = 1;
nodes = (
"161 -201 OFFCURVE",
"171 -200 OFFCURVE",
"182 -197 CURVE",
"191 -153 LINE",
"185 -154 OFFCURVE",
"181 -154 OFFCURVE",
"178 -154 CURVE SMOOTH",
"154 -154 OFFCURVE",
"145 -143 OFFCURVE",
"145 -127 CURVE SMOOTH",
"145 -86 OFFCURVE",
"191 -24 OFFCURVE",
"223 0 CURVE",
"240 71 LINE",
"89 71 LINE",
"141 312 LINE",
"271 312 LINE",
"287 383 LINE",
"156 383 LINE",
"206 617 LINE",
"353 617 LINE",
"370 688 LINE",
"144 688 LINE",
"-2 0 LINE",
"169 0 LINE",
"118 -43 OFFCURVE",
"85 -97 OFFCURVE",
"85 -139 CURVE SMOOTH",
"85 -176 OFFCURVE",
"104 -201 OFFCURVE",
"149 -201 CURVE SMOOTH"
);
}
);
};
components = (
{
name = E;
},
{
name = ogonekcomb.case;
transform = "{1, 0, 0, 1, 168, -4}";
}
);
layerId = "B988E418-9469-42FB-AD32-095B8D65BEE5";
width = 297;
},
{
background = {
paths = (
{
closed = 1;
nodes = (
"489 -206 OFFCURVE",
"534 -204 OFFCURVE",
"561 -203 CURVE",
"582 -95 LINE",
"572 -96 OFFCURVE",
"566 -96 OFFCURVE",
"563 -96 CURVE SMOOTH",
"525 -96 OFFCURVE",
"515 -87 OFFCURVE",
"515 -72 CURVE SMOOTH",
"515 -46 OFFCURVE",
"554 -17 OFFCURVE",
"592 0 CURVE",
"631 178 LINE",
"301 178 LINE",
"319 261 LINE",
"589 261 LINE",
"626 434 LINE",
"356 434 LINE",
"372 510 LINE",
"701 510 LINE",
"739 688 LINE",
"145 688 LINE",
"-1 0 LINE",
"399 0 LINE",
"346 -42 OFFCURVE",
"311 -87 OFFCURVE",
"311 -132 CURVE SMOOTH",
"311 -172 OFFCURVE",
"345 -206 OFFCURVE",
"458 -206 CURVE SMOOTH"
);
}
);
};
components = (
{
name = E;
},
{
name = ogonekcomb.case;
transform = "{1, 0, 0, 1, 381, -4}";
}
);
layerId = "8AB9AFA2-7010-440B-BFFC-1C7CDFA1A370";
width = 695;
},
{
background = {
paths = (
{
closed = 1;
nodes = (
"523 -209 OFFCURVE",
"541 -208 OFFCURVE",
"559 -206 CURVE",
"572 -138 LINE",
"563 -139 OFFCURVE",
"558 -139 OFFCURVE",
"553 -139 CURVE SMOOTH",
"521 -139 OFFCURVE",
"510 -128 OFFCURVE",
"510 -110 CURVE SMOOTH",
"510 -74 OFFCURVE",
"558 -25 OFFCURVE",
"595 0 CURVE",
"617 103 LINE",
"199 103 LINE",
"240 296 LINE",
"600 296 LINE",
"621 399 LINE",
"262 399 LINE",
"302 585 LINE",
"720 585 LINE",
"742 688 LINE",
"205 688 LINE",
"57 0 LINE",
"493 0 LINE",
"438 -41 OFFCURVE",
"409 -85 OFFCURVE",
"409 -140 CURVE SMOOTH",
"409 -180 OFFCURVE",
"432 -209 OFFCURVE",
"506 -209 CURVE SMOOTH"
);
}
);
};
components = (
{
name = E;
},
{
name = ogonekcomb.case;
transform = "{1, 0, 0, 1, 485, -3}";
}
);
layerId = "8494D26F-946F-4BDA-8E04-2FD894ABFEA2";
width = 705;
},
{
background = {
paths = (
{
closed = 1;
nodes = (
"527 -211 OFFCURVE",
"529 -211 OFFCURVE",
"536 -210 CURVE",
"543 -178 LINE",
"534 -179 OFFCURVE",
"530 -179 OFFCURVE",
"526 -179 CURVE SMOOTH",
"497 -179 OFFCURVE",
"487 -159 OFFCURVE",
"487 -133 CURVE SMOOTH",
"487 -86 OFFCURVE",
"537 -29 OFFCURVE",
"573 0 CURVE",
"581 34 LINE",
"123 34 LINE",
"186 331 LINE",
"590 331 LINE",
"597 365 LINE",
"193 365 LINE",
"254 654 LINE",
"712 654 LINE",
"720 688 LINE",
"226 688 LINE",
"79 0 LINE",
"537 0 LINE",
"481 -46 OFFCURVE",
"452 -99 OFFCURVE",
"452 -146 CURVE SMOOTH",
"452 -185 OFFCURVE",
"470 -211 OFFCURVE",
"521 -211 CURVE SMOOTH"
);
}
);
};
components = (
{
name = E;
},
{
name = ogonekcomb.case;
transform = "{1, 0, 0, 1, 530, -4}";
}
);
layerId = "527899E9-AC81-44FE-89AA-146AC27955A1";
width = 698;
}
);
leftKerningGroup = H;
rightKerningGroup = E;
unicode = 0118;
},
{
glyphname = F;
layers = (
{
anchors = (
{
name = bottom;
position = "{81, 0}";
},
{
name = top;
position = "{373, 688}";
}
);
layerId = "CD898CA3-FB76-4965-A23E-9AA06D1CE2B1";
paths = (
{
closed = 1;
nodes = (
"97 0 LINE",
"165 317 LINE",
"498 317 LINE",
"505 351 LINE",
"172 351 LINE",
"236 654 LINE",
"606 654 LINE",
"614 688 LINE",
"208 688 LINE",
"61 0 LINE"
);
}
);
width = 561;
},
{
anchors = (
{
name = bottom;
position = "{115, 0}";
},
{
name = top;
position = "{368, 688}";
}
);
layerId = "B4DE345C-CFDB-4A54-B125-3358BD91D59F";
paths = (
{
closed = 1;
nodes = (
"227 0 LINE",
"277 233 LINE",
"491 233 LINE",
"526 400 LINE",
"312 400 LINE",
"338 521 LINE",
"589 521 LINE",
"625 688 LINE",
"141 688 LINE",
"-5 0 LINE"
);
}
);
width = 552;
},
{
anchors = (
{
name = bottom;
position = "{63, 0}";
},
{
name = top;
position = "{248, 688}";
}
);
layerId = "47937877-2CF8-49A0-A6AF-2B1A27CB5FF4";
paths = (
{
closed = 1;
nodes = (
"138 0 LINE",
"194 264 LINE",
"291 264 LINE",
"321 403 LINE",
"224 403 LINE",
"255 549 LINE",
"366 549 LINE",
"396 688 LINE",
"131 688 LINE",
"-15 0 LINE"
);
}
);
width = 312;
},
{
anchors = (
{
name = bottom;
position = "{37, 0}";
},
{
name = top;
position = "{259, 688}";
}
);
layerId = "FA01890A-5211-455F-9108-1209F66A586C";
paths = (
{
closed = 1;
nodes = (
"53 0 LINE",
"121 317 LINE",
"306 317 LINE",
"313 351 LINE",
"128 351 LINE",
"192 654 LINE",
"399 654 LINE",
"407 688 LINE",
"163 688 LINE",
"17 0 LINE"
);
}
);
width = 334;
},
{
anchors = (
{
name = bottom;
position = "{106, 0}";
},
{
name = top;
position = "{385, 688}";
}
);
layerId = "20A7088A-67D7-4614-84CF-19C576DDC019";
paths = (
{
closed = 1;
nodes = (
"169 0 LINE",
"227 274 LINE",
"521 274 LINE",
"543 379 LINE",
"249 379 LINE",
"294 584 LINE",
"627 584 LINE",
"649 688 LINE",
"187 688 LINE",
"40 0 LINE"
);
}
);
width = 586;
},
{
anchors = (
{
name = bottom;
position = "{64, 0}";
},
{
name = top;
position = "{281, 688}";
}
);
layerId = "C784E404-3F19-435D-96BB-DB276E1DA8D0";
paths = (
{
closed = 1;
nodes = (
"118 0 LINE",
"178 282 LINE",
"345 282 LINE",
"366 381 LINE",
"199 381 LINE",
"243 589 LINE",
"432 589 LINE",
"454 688 LINE",
"151 688 LINE",
"5 0 LINE"
);
}
);
width = 378;
},
{
anchors = (
{
name = bottom;
position = "{82.798, 0}";
},
{
name = top;
position = "{229.037, 688}";
}
);
layerId = UUID0;
paths = (
{
closed = 1;
nodes = (
"40 0 LINE",
"108 317 LINE",
"256 317 LINE",
"263 351 LINE",
"115 351 LINE",
"180 654 LINE",
"345 654 LINE",
"353 688 LINE",
"151 688 LINE",
"6 0 LINE"
);
}
);
width = 274;
},
{
anchors = (
{
name = bottom;
position = "{69.798, 0}";
},
{
name = top;
position = "{216.037, 688}";
}
);
layerId = "2A096AB6-16C2-4C34-8164-FCBBBF8CEAEB";
paths = (
{
closed = 1;
nodes = (
"115 0 LINE",
"174 278 LINE",
"243 278 LINE",
"269 404 LINE",
"201 404 LINE",
"234 562 LINE",
"308 562 LINE",
"335 688 LINE",
"129 688 LINE",
"-17 0 LINE"
);
}
);
width = 248;
},
{
anchors = (
{
name = bottom;
position = "{85.798, 0}";
},
{
name = top;
position = "{232.037, 688}";
}
);
layerId = "B988E418-9469-42FB-AD32-095B8D65BEE5";
paths = (
{
closed = 1;
nodes = (
"74 0 LINE",
"138 300 LINE",
"261 300 LINE",
"276 371 LINE",
"153 371 LINE",
"206 617 LINE",
"342 617 LINE",
"358 688 LINE",
"144 688 LINE",
"-2 0 LINE"
);
}
);
width = 279;
},
{
anchors = (
{
name = bottom;
position = "{269.798, 0}";
},
{
name = top;
position = "{416.037, 688}";
}
);
layerId = "8AB9AFA2-7010-440B-BFFC-1C7CDFA1A370";
paths = (
{
closed = 1;
nodes = (
"263 0 LINE",
"311 220 LINE",
"571 220 LINE",
"608 399 LINE",
"347 399 LINE",
"372 510 LINE",
"678 510 LINE",
"717 688 LINE",
"145 688 LINE",
"-1 0 LINE"
);
}
);
width = 648;
},
{
anchors = (
{
name = bottom;
position = "{276.798, 0}";
},
{
name = top;
position = "{423.037, 688}";
}
);
layerId = "8494D26F-946F-4BDA-8E04-2FD894ABFEA2";
paths = (
{
closed = 1;
nodes = (
"177 0 LINE",
"236 274 LINE",
"585 274 LINE",
"607 377 LINE",
"257 377 LINE",
"302 585 LINE",
"696 585 LINE",
"718 688 LINE",
"205 688 LINE",
"57 0 LINE"
);
}
);
width = 662;
},
{
anchors = (
{
name = bottom;
position = "{271.798, 0}";
},
{
name = top;
position = "{418.037, 688}";
}
);
layerId = "527899E9-AC81-44FE-89AA-146AC27955A1";
paths = (
{
closed = 1;
nodes = (
"115 0 LINE",
"183 317 LINE",
"575 317 LINE",
"582 351 LINE",
"190 351 LINE",
"254 654 LINE",
"689 654 LINE",
"697 688 LINE",
"226 688 LINE",
"79 0 LINE"
);
}
);
width = 652;
}
);
unicode = 0046;
},
{
glyphname = G;
layers = (
{
anchors = (
{
name = bottom;
position = "{303, 0}";
},
{
name = top;
position = "{429, 688}";
}
);
layerId = "CD898CA3-FB76-4965-A23E-9AA06D1CE2B1";
paths = (
{
closed = 1;
nodes = (
"376 -8 OFFCURVE",
"456 -1 OFFCURVE",
"522 9 CURVE",
"595 349 LINE",
"365 349 LINE",
"357 315 LINE",
"551 315 LINE",
"492 38 LINE",
"446 32 OFFCURVE",
"362 26 OFFCURVE",
"314 26 CURVE SMOOTH",
"163 26 OFFCURVE",
"108 47 OFFCURVE",
"108 150 CURVE SMOOTH",
"108 197 OFFCURVE",
"119 258 OFFCURVE",
"137 344 CURVE SMOOTH",
"203 659 OFFCURVE",
"255 662 OFFCURVE",
"480 662 CURVE SMOOTH",
"524 662 OFFCURVE",
"599 655 OFFCURVE",
"655 646 CURVE",
"661 678 LINE",
"610 688 OFFCURVE",
"518 696 OFFCURVE",
"447 696 CURVE SMOOTH",
"220 696 OFFCURVE",
"166 657 OFFCURVE",
"101 344 CURVE SMOOTH",
"83 258 OFFCURVE",
"73 194 OFFCURVE",
"73 145 CURVE SMOOTH",
"73 13 OFFCURVE",
"152 -8 OFFCURVE",
"316 -8 CURVE SMOOTH"
);
}
);
width = 683;
},
{
anchors = (
{
name = bottom;
position = "{296, 0}";
},
{
name = top;
position = "{432, 688}";
}
);
background = {
paths = (
{
closed = 1;
nodes = (
"404 263 LINE",
"382 156 LINE",
"367 156 OFFCURVE",
"345 155 OFFCURVE",
"338 155 CURVE SMOOTH",
"251 155 OFFCURVE",
"248 183 OFFCURVE",
"283 344 CURVE SMOOTH",
"321 525 OFFCURVE",
"327 529 OFFCURVE",
"483 529 CURVE SMOOTH",
"519 529 OFFCURVE",
"599 523 OFFCURVE",
"659 516 CURVE",
"692 672 LINE",
"619 686 OFFCURVE",
"516 696 OFFCURVE",
"443 696 CURVE SMOOTH",
"184 696 OFFCURVE",
"112 620 OFFCURVE",
"54 344 CURVE SMOOTH",
"-4 68 OFFCURVE",
"35 -8 OFFCURVE",
"294 -8 CURVE SMOOTH",
"369 -8 OFFCURVE",
"478 1 OFFCURVE",
"555 13 CURVE",
"640 414 LINE",
"370 414 LINE",
"338 263 LINE"
);
}
);
};
layerId = "B4DE345C-CFDB-4A54-B125-3358BD91D59F";
paths = (
{
closed = 1;
nodes = (
"375 -8 OFFCURVE",
"480 1 OFFCURVE",
"555 13 CURVE",
"640 414 LINE",
"370 414 LINE",
"338 263 LINE",
"404 263 LINE",
"382 156 LINE",
"367 156 OFFCURVE",
"345 155 OFFCURVE",
"338 155 CURVE SMOOTH",
"284 155 OFFCURVE",
"262 166 OFFCURVE",
"262 213 CURVE SMOOTH",
"262 242 OFFCURVE",
"270 283 OFFCURVE",
"283 344 CURVE SMOOTH",
"321 525 OFFCURVE",
"327 529 OFFCURVE",
"483 529 CURVE SMOOTH",
"519 529 OFFCURVE",
"599 523 OFFCURVE",
"659 516 CURVE",
"692 672 LINE",
"617 686 OFFCURVE",
"510 696 OFFCURVE",
"435 696 CURVE SMOOTH",
"173 696 OFFCURVE",
"111 622 OFFCURVE",
"54 354 CURVE SMOOTH",
"39 283 OFFCURVE",
"30 225 OFFCURVE",
"30 179 CURVE SMOOTH",
"30 40 OFFCURVE",
"109 -8 OFFCURVE",
"302 -8 CURVE SMOOTH"
);
}
);
width = 649;
},
{
anchors = (
{
name = bottom;
position = "{166, 0}";
},
{
name = top;
position = "{302, 688}";
}
);
layerId = "47937877-2CF8-49A0-A6AF-2B1A27CB5FF4";
paths = (
{
closed = 1;
nodes = (
"224 -8 OFFCURVE",
"288 1 OFFCURVE",
"327 14 CURVE",
"412 412 LINE",
"244 412 LINE",
"215 277 LINE",
"246 277 LINE",
"214 127 LINE",
"212 127 OFFCURVE",
"206 126 OFFCURVE",
"194 126 CURVE SMOOTH",
"172 126 OFFCURVE",
"161 130 OFFCURVE",
"161 160 CURVE SMOOTH",
"161 189 OFFCURVE",
"173 244 OFFCURVE",
"194 344 CURVE SMOOTH",
"239 557 OFFCURVE",
"250 557 OFFCURVE",
"337 557 CURVE SMOOTH",
"353 557 OFFCURVE",
"399 553 OFFCURVE",
"440 548 CURVE",
"467 676 LINE",
"427 688 OFFCURVE",
"363 696 OFFCURVE",
"317 696 CURVE SMOOTH",
"150 696 OFFCURVE",
"102 630 OFFCURVE",
"42 344 CURVE SMOOTH",
"23 253 OFFCURVE",
"12 185 OFFCURVE",
"12 135 CURVE SMOOTH",
"12 24 OFFCURVE",
"58 -8 OFFCURVE",
"171 -8 CURVE SMOOTH"
);
}
);
width = 410;
},
{
anchors = (
{
name = bottom;
position = "{162, 0}";
},
{
name = top;
position = "{308, 688}";
}
);
layerId = "FA01890A-5211-455F-9108-1209F66A586C";
paths = (
{
closed = 1;
nodes = (
"203 -8 OFFCURVE",
"251 -1 OFFCURVE",
"289 9 CURVE",
"362 349 LINE",
"224 349 LINE",
"216 315 LINE",
"318 315 LINE",
"259 38 LINE",
"237 31 OFFCURVE",
"197 26 OFFCURVE",
"166 26 CURVE SMOOTH",
"95 26 OFFCURVE",
"66 44 OFFCURVE",
"66 116 CURVE SMOOTH",
"66 164 OFFCURVE",
"79 236 OFFCURVE",
"102 344 CURVE SMOOTH",
"166 649 OFFCURVE",
"195 662 OFFCURVE",
"320 662 CURVE SMOOTH",
"347 662 OFFCURVE",
"392 655 OFFCURVE",
"424 646 CURVE",
"430 678 LINE",
"398 689 OFFCURVE",
"342 696 OFFCURVE",
"299 696 CURVE SMOOTH",
"164 696 OFFCURVE",
"128 642 OFFCURVE",
"66 344 CURVE SMOOTH",
"44 237 OFFCURVE",
"32 165 OFFCURVE",
"32 112 CURVE SMOOTH",
"32 15 OFFCURVE",
"75 -8 OFFCURVE",
"170 -8 CURVE SMOOTH"
);
}
);
width = 392;
},
{
anchors = (
{
name = bottom;
position = "{303, 0}";
},
{
name = top;
position = "{439, 688}";
}
);
layerId = "20A7088A-67D7-4614-84CF-19C576DDC019";
paths = (
{
closed = 1;
nodes = (
"393 -8 OFFCURVE",
"486 0 OFFCURVE",
"555 12 CURVE",
"634 383 LINE",
"378 383 LINE",
"357 285 LINE",
"493 285 LINE",
"454 100 LINE",
"424 97 OFFCURVE",
"371 93 OFFCURVE",
"338 93 CURVE SMOOTH",
"226 93 OFFCURVE",
"184 110 OFFCURVE",
"184 190 CURVE SMOOTH",
"184 227 OFFCURVE",
"192 277 OFFCURVE",
"207 344 CURVE SMOOTH {name = \"0.8 \";}",
"258 589 OFFCURVE",
"290 592 OFFCURVE",
"492 592 CURVE SMOOTH",
"533 592 OFFCURVE",
"608 585 OFFCURVE",
"672 577 CURVE",
"692 675 LINE",
"625 687 OFFCURVE",
"523 696 OFFCURVE",
"448 696 CURVE SMOOTH",
"200 696 OFFCURVE",
"140 632 OFFCURVE",
"79 347 CURVE SMOOTH {name = \"0.8 \";}",
"63 277 OFFCURVE",
"54 221 OFFCURVE",
"54 177 CURVE SMOOTH",
"54 32 OFFCURVE",
"131 -8 OFFCURVE",
"330 -8 CURVE SMOOTH"
);
}
);
width = 693;
},
{
anchors = (
{
name = bottom;
position = "{196, 0}";
},
{
name = top;
position = "{332, 688}";
}
);
layerId = "C784E404-3F19-435D-96BB-DB276E1DA8D0";
paths = (
{
closed = 1;
nodes = (
"252 -8 OFFCURVE",
"318 0 OFFCURVE",
"364 12 CURVE",
"443 386 LINE",
"265 386 LINE",
"245 290 LINE",
"320 290 LINE",
"278 94 LINE",
"264 91 OFFCURVE",
"238 88 OFFCURVE",
"215 88 CURVE SMOOTH",
"160 88 OFFCURVE",
"136 99 OFFCURVE",
"136 153 CURVE SMOOTH",
"136 190 OFFCURVE",
"148 249 OFFCURVE",
"168 344 CURVE SMOOTH",
"221 592 OFFCURVE",
"241 597 OFFCURVE",
"364 597 CURVE SMOOTH",
"389 597 OFFCURVE",
"441 591 OFFCURVE",
"484 584 CURVE",
"503 676 LINE",
"459 688 OFFCURVE",
"390 696 OFFCURVE",
"338 696 CURVE SMOOTH",
"164 696 OFFCURVE",
"117 634 OFFCURVE",
"56 345 CURVE SMOOTH",
"37 254 OFFCURVE",
"26 187 OFFCURVE",
"26 138 CURVE SMOOTH",
"26 23 OFFCURVE",
"78 -8 OFFCURVE",
"203 -8 CURVE SMOOTH"
);
}
);
width = 465;
},
{
anchors = (
{
name = bottom;
position = "{124, 0}";
},
{
name = top;
position = "{270, 688}";
}
);
layerId = UUID0;
paths = (
{
closed = 1;
nodes = (
"157 -8 OFFCURVE",
"197 -1 OFFCURVE",
"227 9 CURVE",
"300 349 LINE",
"187 349 LINE",
"179 315 LINE",
"258 315 LINE",
"199 38 LINE",
"184 31 OFFCURVE",
"154 26 OFFCURVE",
"127 26 CURVE SMOOTH",
"77 26 OFFCURVE",
"55 43 OFFCURVE",
"55 107 CURVE SMOOTH",
"55 155 OFFCURVE",
"69 230 OFFCURVE",
"93 344 CURVE SMOOTH",
"156 647 OFFCURVE",
"179 662 OFFCURVE",
"278 662 CURVE SMOOTH",
"301 662 OFFCURVE",
"338 655 OFFCURVE",
"363 646 CURVE",
"369 678 LINE",
"342 689 OFFCURVE",
"296 696 OFFCURVE",
"260 696 CURVE SMOOTH",
"150 696 OFFCURVE",
"118 638 OFFCURVE",
"57 344 CURVE SMOOTH",
"34 231 OFFCURVE",
"22 157 OFFCURVE",
"22 103 CURVE SMOOTH",
"22 16 OFFCURVE",
"55 -8 OFFCURVE",
"132 -8 CURVE SMOOTH"
);
}
);
width = 315;
},
{
anchors = (
{
name = bottom;
position = "{136, 0}";
},
{
name = top;
position = "{282, 688}";
}
);
background = {
paths = (
{
closed = 1;
nodes = (
"184 -8 OFFCURVE",
"238 1 OFFCURVE",
"267 14 CURVE",
"351 411 LINE",
"209 411 LINE",
"182 284 LINE",
"205 284 LINE",
"169 113 LINE",
"156 113 LINE SMOOTH",
"142 113 OFFCURVE",
"135 113 OFFCURVE",
"135 135 CURVE SMOOTH",
"135 164 OFFCURVE",
"147 226 OFFCURVE",
"171 344 CURVE SMOOTH",
"217 571 OFFCURVE",
"229 570 OFFCURVE",
"298 570 CURVE SMOOTH",
"309 570 OFFCURVE",
"345 567 OFFCURVE",
"382 562 CURVE",
"407 677 LINE",
"377 689 OFFCURVE",
"324 696 OFFCURVE",
"286 696 CURVE SMOOTH",
"144 696 OFFCURVE",
"99 634 OFFCURVE",
"39 340 CURVE SMOOTH",
"19 239 OFFCURVE",
"7 167 OFFCURVE",
"7 114 CURVE SMOOTH",
"7 17 OFFCURVE",
"44 -8 OFFCURVE",
"136 -8 CURVE SMOOTH"
);
}
);
};
layerId = "2A096AB6-16C2-4C34-8164-FCBBBF8CEAEB";
paths = (
{
closed = 1;
nodes = (
"184 -8 OFFCURVE",
"238 1 OFFCURVE",
"267 14 CURVE",
"351 411 LINE",
"209 411 LINE",
"182 284 LINE",
"205 284 LINE",
"169 114 LINE",
"166 114 OFFCURVE",
"160 113 OFFCURVE",
"156 113 CURVE SMOOTH",
"142 113 OFFCURVE",
"135 113 OFFCURVE",
"135 135 CURVE SMOOTH",
"135 164 OFFCURVE",
"147 226 OFFCURVE",
"171 344 CURVE SMOOTH",
"216 565 OFFCURVE",
"218 570 OFFCURVE",
"298 570 CURVE SMOOTH",
"309 570 OFFCURVE",
"345 567 OFFCURVE",
"382 562 CURVE",
"407 677 LINE",
"377 689 OFFCURVE",
"324 696 OFFCURVE",
"286 696 CURVE SMOOTH",
"144 696 OFFCURVE",
"99 634 OFFCURVE",
"39 340 CURVE SMOOTH",
"19 239 OFFCURVE",
"7 167 OFFCURVE",
"7 114 CURVE SMOOTH",
"7 17 OFFCURVE",
"44 -8 OFFCURVE",
"136 -8 CURVE SMOOTH"
);
}
);
width = 346;
},
{
anchors = (
{
name = bottom;
position = "{129, 0}";
},
{
name = top;
position = "{275, 688}";
}
);
layerId = "B988E418-9469-42FB-AD32-095B8D65BEE5";
paths = (
{
closed = 1;
nodes = (
"179 -8 OFFCURVE",
"228 0 OFFCURVE",
"260 11 CURVE",
"337 373 LINE",
"205 373 LINE",
"190 302 LINE",
"248 302 LINE",
"199 70 LINE",
"187 67 OFFCURVE",
"170 63 OFFCURVE",
"151 63 CURVE SMOOTH",
"111 63 OFFCURVE",
"93 72 OFFCURVE",
"93 121 CURVE SMOOTH",
"93 161 OFFCURVE",
"107 230 OFFCURVE",
"130 344 CURVE SMOOTH",
"186 616 OFFCURVE",
"205 625 OFFCURVE",
"298 625 CURVE SMOOTH",
"316 625 OFFCURVE",
"358 619 OFFCURVE",
"386 613 CURVE",
"401 678 LINE",
"372 688 OFFCURVE",
"319 696 OFFCURVE",
"281 696 CURVE SMOOTH",
"150 696 OFFCURVE",
"113 638 OFFCURVE",
"52 343 CURVE SMOOTH",
"30 236 OFFCURVE",
"19 162 OFFCURVE",
"19 109 CURVE SMOOTH",
"19 17 OFFCURVE",
"56 -8 OFFCURVE",
"143 -8 CURVE SMOOTH"
);
}
);
width = 346;
},
{
anchors = (
{
name = bottom;
position = "{317.798, 0}";
},
{
name = top;
position = "{464.037, 688}";
}
);
layerId = "8AB9AFA2-7010-440B-BFFC-1C7CDFA1A370";
paths = (
{
closed = 1;
nodes = (
"436 -8 OFFCURVE",
"557 1 OFFCURVE",
"646 12 CURVE",
"731 415 LINE",
"420 415 LINE",
"387 258 LINE",
"467 258 LINE",
"449 167 LINE",
"427 167 OFFCURVE",
"401 167 OFFCURVE",
"396 167 CURVE SMOOTH",
"329 167 OFFCURVE",
"303 180 OFFCURVE",
"303 234 CURVE SMOOTH",
"303 263 OFFCURVE",
"309 299 OFFCURVE",
"319 344 CURVE SMOOTH",
"354 512 OFFCURVE",
"358 518 OFFCURVE",
"541 518 CURVE SMOOTH",
"586 518 OFFCURVE",
"679 511 OFFCURVE",
"747 503 CURVE",
"782 670 LINE",
"693 685 OFFCURVE",
"569 696 OFFCURVE",
"482 696 CURVE SMOOTH",
"182 696 OFFCURVE",
"115 619 OFFCURVE",
"59 358 CURVE SMOOTH",
"46 295 OFFCURVE",
"37 241 OFFCURVE",
"37 196 CURVE SMOOTH",
"37 47 OFFCURVE",
"129 -8 OFFCURVE",
"354 -8 CURVE SMOOTH"
);
}
);
width = 744;
},
{
anchors = (
{
name = bottom;
position = "{337.798, 0}";
},
{
name = top;
position = "{484.037, 688}";
}
);
layerId = "8494D26F-946F-4BDA-8E04-2FD894ABFEA2";
paths = (
{
closed = 1;
nodes = (
"446 -8 OFFCURVE",
"548 0 OFFCURVE",
"626 12 CURVE",
"704 377 LINE",
"422 377 LINE",
"399 277 LINE",
"560 277 LINE",
"523 103 LINE",
"485 99 OFFCURVE",
"422 95 OFFCURVE",
"383 95 CURVE SMOOTH",
"243 95 OFFCURVE",
"194 113 OFFCURVE",
"194 199 CURVE SMOOTH",
"194 236 OFFCURVE",
"201 284 OFFCURVE",
"214 344 CURVE SMOOTH",
"270 590 OFFCURVE",
"305 593 OFFCURVE",
"541 593 CURVE SMOOTH",
"588 593 OFFCURVE",
"672 585 OFFCURVE",
"741 577 CURVE",
"762 675 LINE",
"690 687 OFFCURVE",
"576 696 OFFCURVE",
"493 696 CURVE SMOOTH",
"218 696 OFFCURVE",
"157 635 OFFCURVE",
"91 348 CURVE SMOOTH",
"76 283 OFFCURVE",
"68 230 OFFCURVE",
"68 187 CURVE SMOOTH",
"68 32 OFFCURVE",
"156 -8 OFFCURVE",
"377 -8 CURVE SMOOTH"
);
}
);
width = 783;
},
{
anchors = (
{
name = bottom;
position = "{345.798, 0}";
},
{
name = top;
position = "{492.037, 688}";
}
);
layerId = "527899E9-AC81-44FE-89AA-146AC27955A1";
paths = (
{
closed = 1;
nodes = (
"446 -8 OFFCURVE",
"539 -1 OFFCURVE",
"616 9 CURVE",
"689 349 LINE",
"421 349 LINE",
"414 315 LINE",
"645 315 LINE",
"586 38 LINE",
"530 33 OFFCURVE",
"429 26 OFFCURVE",
"373 26 CURVE SMOOTH",
"191 26 OFFCURVE",
"125 48 OFFCURVE",
"125 164 CURVE SMOOTH",
"125 210 OFFCURVE",
"135 267 OFFCURVE",
"151 344 CURVE SMOOTH",
"218 662 OFFCURVE",
"279 662 OFFCURVE",
"544 662 CURVE SMOOTH",
"594 662 OFFCURVE",
"680 655 OFFCURVE",
"748 646 CURVE",
"754 678 LINE",
"695 687 OFFCURVE",
"589 696 OFFCURVE",
"506 696 CURVE SMOOTH",
"243 696 OFFCURVE",
"182 663 OFFCURVE",
"115 344 CURVE SMOOTH",
"99 266 OFFCURVE",
"90 205 OFFCURVE",
"90 158 CURVE SMOOTH",
"90 12 OFFCURVE",
"183 -8 OFFCURVE",
"375 -8 CURVE SMOOTH"
);
}
);
width = 800;
}
);
leftKerningGroup = O;
rightKerningGroup = G;
unicode = 0047;
},
{
glyphname = H;
layers = (
{
anchors = (
{
name = bottom;
position = "{315, 0}";
},
{
name = center;
position = "{422, 510}";
},
{
name = top;
position = "{461, 688}";
},
{
name = topleft;
position = "{208, 688}";
}
);
layerId = "CD898CA3-FB76-4965-A23E-9AA06D1CE2B1";
paths = (
{
closed = 1;
nodes = (
"97 0 LINE",
"168 331 LINE",
"604 331 LINE",
"533 0 LINE",
"569 0 LINE",
"716 688 LINE",
"680 688 LINE",
"611 365 LINE",
"175 365 LINE",
"244 688 LINE",
"208 688 LINE",
"61 0 LINE"
);
}
);
width = 738;
},
{
anchors = (
{
name = bottom;
position = "{293, 0}";
},
{
name = center;
position = "{400, 510}";
},
{
name = top;
position = "{439, 688}";
},
{
name = topleft;
position = "{141, 688}";
}
);
layerId = "B4DE345C-CFDB-4A54-B125-3358BD91D59F";
paths = (
{
closed = 1;
nodes = (
"228 0 LINE",
"282 251 LINE",
"409 251 LINE",
"355 0 LINE",
"589 0 LINE",
"736 688 LINE",
"502 688 LINE",
"448 438 LINE",
"321 438 LINE",
"375 688 LINE",
"141 688 LINE",
"-5 0 LINE"
);
}
);
width = 693;
},
{
anchors = (
{
name = bottom;
position = "{162, 0}";
},
{
name = center;
position = "{275, 510}";
},
{
name = top;
position = "{308, 688}";
},
{
name = topleft;
position = "{130, 688}";
}
);
layerId = "47937877-2CF8-49A0-A6AF-2B1A27CB5FF4";
paths = (
{
closed = 1;
nodes = (
"137 0 LINE",
"195 273 LINE",
"251 273 LINE",
"193 0 LINE",
"347 0 LINE",
"494 688 LINE",
"340 688 LINE",
"283 420 LINE",
"227 420 LINE",
"284 688 LINE",
"130 688 LINE",
"-16 0 LINE"
);
}
);
width = 432;
},
{
anchors = (
{
name = bottom;
position = "{163, 0}";
},
{
name = center;
position = "{272, 510}";
},
{
name = top;
position = "{309, 688}";
},
{
name = topleft;
position = "{163, 688}";
}
);
layerId = "FA01890A-5211-455F-9108-1209F66A586C";
paths = (
{
closed = 1;
nodes = (
"52 0 LINE",
"123 331 LINE",
"355 331 LINE",
"284 0 LINE",
"320 0 LINE",
"467 688 LINE",
"431 688 LINE",
"362 365 LINE",
"130 365 LINE",
"199 688 LINE",
"163 688 LINE",
"17 0 LINE"
);
}
);
width = 434;
},
{
anchors = (
{
name = bottom;
position = "{320, 0}";
},
{
name = center;
position = "{431, 510}";
},
{
name = top;
position = "{466, 688}";
},
{
name = topleft;
position = "{187, 688}";
}
);
layerId = "20A7088A-67D7-4614-84CF-19C576DDC019";
paths = (
{
closed = 1;
nodes = (
"169 0 LINE",
"231 290 LINE",
"542 290 LINE",
"480 0 LINE",
"609 0 LINE",
"756 688 LINE",
"627 688 LINE",
"566 402 LINE",
"255 402 LINE",
"316 688 LINE",
"187 688 LINE",
"40 0 LINE"
);
}
);
width = 748;
},
{
anchors = (
{
name = bottom;
position = "{196, 0}";
},
{
name = center;
position = "{304, 510}";
},
{
name = top;
position = "{342, 688}";
},
{
name = topleft;
position = "{151, 688}";
}
);
layerId = "C784E404-3F19-435D-96BB-DB276E1DA8D0";
paths = (
{
closed = 1;
nodes = (
"118 0 LINE",
"180 295 LINE",
"344 295 LINE",
"281 0 LINE",
"395 0 LINE",
"542 688 LINE",
"428 688 LINE",
"366 399 LINE",
"203 399 LINE",
"265 688 LINE",
"151 688 LINE",
"5 0 LINE"
);
}
);
width = 500;
},
{
anchors = (
{
name = bottom;
position = "{122.798, 0}";
},
{
name = center;
position = "{195.918, 344}";
},
{
name = top;
position = "{269.037, 688}";
},
{
name = topleft;
position = "{151, 688}";
}
);
layerId = UUID0;
paths = (
{
closed = 1;
nodes = (
"40 0 LINE",
"111 331 LINE",
"290 331 LINE",
"220 0 LINE",
"254 0 LINE",
"401 688 LINE",
"365 688 LINE",
"297 365 LINE",
"118 365 LINE",
"187 688 LINE",
"151 688 LINE",
"6 0 LINE"
);
}
);
width = 354;
},
{
anchors = (
{
name = bottom;
position = "{126.798, 0}";
},
{
name = center;
position = "{199.918, 344}";
},
{
name = top;
position = "{273.037, 688}";
},
{
name = topleft;
position = "{127, 688}";
}
);
layerId = "2A096AB6-16C2-4C34-8164-FCBBBF8CEAEB";
paths = (
{
closed = 1;
nodes = (
"112 0 LINE",
"172 283 LINE",
"212 283 LINE",
"152 0 LINE",
"283 0 LINE",
"430 688 LINE",
"298 688 LINE",
"239 412 LINE",
"200 412 LINE",
"259 688 LINE",
"127 688 LINE",
"-19 0 LINE"
);
}
);
width = 362;
},
{
anchors = (
{
name = bottom;
position = "{133.798, 0}";
},
{
name = center;
position = "{206.918, 344}";
},
{
name = top;
position = "{280.037, 688}";
},
{
name = topleft;
position = "{144, 688}";
}
);
layerId = "B988E418-9469-42FB-AD32-095B8D65BEE5";
paths = (
{
closed = 1;
nodes = (
"74 0 LINE",
"140 310 LINE",
"271 310 LINE",
"205 0 LINE",
"281 0 LINE",
"428 688 LINE",
"351 688 LINE",
"287 385 LINE",
"156 385 LINE",
"221 688 LINE",
"144 688 LINE",
"-2 0 LINE"
);
}
);
width = 376;
},
{
anchors = (
{
name = bottom;
position = "{344.798, 0}";
},
{
name = center;
position = "{417.918, 344}";
},
{
name = top;
position = "{491.037, 688}";
},
{
name = topleft;
position = "{145, 688}";
}
);
layerId = "8AB9AFA2-7010-440B-BFFC-1C7CDFA1A370";
paths = (
{
closed = 1;
nodes = (
"264 0 LINE",
"316 243 LINE",
"472 243 LINE",
"421 0 LINE",
"686 0 LINE",
"833 688 LINE",
"567 688 LINE",
"515 445 LINE",
"359 445 LINE",
"411 688 LINE",
"145 688 LINE",
"-1 0 LINE"
);
}
);
width = 797;
},
{
anchors = (
{
name = bottom;
position = "{367.798, 0}";
},
{
name = center;
position = "{440.918, 344}";
},
{
name = top;
position = "{514.037, 688}";
},
{
name = topleft;
position = "{206, 688}";
}
);
layerId = "8494D26F-946F-4BDA-8E04-2FD894ABFEA2";
paths = (
{
closed = 1;
nodes = (
"178 0 LINE",
"241 295 LINE",
"630 295 LINE",
"567 0 LINE",
"687 0 LINE",
"834 688 LINE",
"715 688 LINE",
"652 398 LINE",
"263 398 LINE",
"325 688 LINE",
"206 688 LINE",
"58 0 LINE"
);
}
);
width = 844;
},
{
anchors = (
{
name = bottom;
position = "{375.798, 0}";
},
{
name = center;
position = "{448.918, 344}";
},
{
name = top;
position = "{522.037, 688}";
},
{
name = topleft;
position = "{226, 688}";
}
);
layerId = "527899E9-AC81-44FE-89AA-146AC27955A1";
paths = (
{
closed = 1;
nodes = (
"115 0 LINE",
"186 331 LINE",
"704 331 LINE",
"633 0 LINE",
"669 0 LINE",
"816 688 LINE",
"780 688 LINE",
"711 365 LINE",
"193 365 LINE",
"262 688 LINE",
"226 688 LINE",
"79 0 LINE"
);
}
);
width = 860;
}
);
leftKerningGroup = H;
rightKerningGroup = H;
unicode = 0048;
},
{
glyphname = Hbar;
layers = (
{
layerId = "CD898CA3-FB76-4965-A23E-9AA06D1CE2B1";
paths = (
{
closed = 1;
nodes = (
"97 0 LINE",
"163 311 LINE",
"599 311 LINE",
"533 0 LINE",
"569 0 LINE",
"715 688 LINE",
"679 688 LINE",
"646 530 LINE",
"210 530 LINE",
"243 688 LINE",
"207 688 LINE",
"61 0 LINE"
);
},
{
closed = 1;
nodes = (
"202 494 LINE",
"638 494 LINE",
"606 345 LINE",
"170 345 LINE"
);
}
);
width = 738;
},
{
layerId = "B4DE345C-CFDB-4A54-B125-3358BD91D59F";
paths = (
{
closed = 1;
nodes = (
"229 0 LINE",
"274 211 LINE",
"401 211 LINE",
"356 0 LINE",
"590 0 LINE",
"736 688 LINE",
"502 688 LINE",
"486 611 LINE",
"359 611 LINE",
"375 688 LINE",
"141 688 LINE",
"-5 0 LINE"
);
},
{
closed = 1;
nodes = (
"330 474 LINE",
"457 474 LINE",
"441 398 LINE",
"314 398 LINE"
);
}
);
width = 693;
},
{
layerId = "47937877-2CF8-49A0-A6AF-2B1A27CB5FF4";
paths = (
{
closed = 1;
nodes = (
"138 0 LINE",
"188 233 LINE",
"244 233 LINE",
"194 0 LINE",
"348 0 LINE",
"494 688 LINE",
"340 688 LINE",
"324 612 LINE",
"268 612 LINE",
"284 688 LINE",
"130 688 LINE",
"-16 0 LINE"
);
},
{
closed = 1;
nodes = (
"239 473 LINE",
"295 473 LINE",
"275 380 LINE",
"219 380 LINE"
);
}
);
width = 432;
},
{
layerId = "FA01890A-5211-455F-9108-1209F66A586C";
paths = (
{
closed = 1;
nodes = (
"53 0 LINE",
"119 311 LINE",
"351 311 LINE",
"285 0 LINE",
"321 0 LINE",
"467 688 LINE",
"431 688 LINE",
"398 530 LINE",
"166 530 LINE",
"199 688 LINE",
"163 688 LINE",
"17 0 LINE"
);
},
{
closed = 1;
nodes = (
"158 494 LINE",
"390 494 LINE",
"358 345 LINE",
"126 345 LINE"
);
}
);
width = 434;
},
{
layerId = "20A7088A-67D7-4614-84CF-19C576DDC019";
paths = (
{
closed = 1;
nodes = (
"169 0 LINE",
"223 256 LINE",
"534 256 LINE",
"480 0 LINE",
"609 0 LINE",
"755 688 LINE",
"626 688 LINE",
"601 568 LINE",
"290 568 LINE",
"315 688 LINE",
"186 688 LINE",
"40 0 LINE"
);
},
{
closed = 1;
nodes = (
"271 479 LINE",
"582 479 LINE",
"558 368 LINE",
"247 368 LINE"
);
}
);
width = 748;
},
{
layerId = "C784E404-3F19-435D-96BB-DB276E1DA8D0";
paths = (
{
closed = 1;
nodes = (
"119 0 LINE",
"175 262 LINE",
"338 262 LINE",
"282 0 LINE",
"396 0 LINE",
"542 688 LINE",
"428 688 LINE",
"405 577 LINE",
"242 577 LINE",
"265 688 LINE",
"151 688 LINE",
"5 0 LINE"
);
},
{
closed = 1;
nodes = (
"221 481 LINE",
"384 481 LINE",
"360 367 LINE",
"197 367 LINE"
);
}
);
width = 500;
},
{
background = {
paths = (
{
closed = 1;
nodes = (
"6 0 LINE",
"42 0 LINE",
"108 311 LINE",
"286 311 LINE",
"220 0 LINE",
"256 0 LINE",
"402 688 LINE",
"366 688 LINE",
"333 530 LINE",
"155 530 LINE",
"188 688 LINE",
"152 688 LINE"
);
},
{
closed = 1;
nodes = (
"115 345 LINE",
"147 494 LINE",
"325 494 LINE",
"293 345 LINE"
);
}
);
};
layerId = UUID0;
paths = (
{
closed = 1;
nodes = (
"41 0 LINE",
"107 311 LINE",
"286 311 LINE",
"220 0 LINE",
"256 0 LINE",
"403 688 LINE",
"367 688 LINE",
"333 529 LINE",
"154 529 LINE",
"188 688 LINE",
"152 688 LINE",
"5 0 LINE"
);
},
{
closed = 1;
nodes = (
"146 494 LINE",
"325 494 LINE",
"294 345 LINE",
"115 345 LINE"
);
}
);
width = 354;
},
{
layerId = "2A096AB6-16C2-4C34-8164-FCBBBF8CEAEB";
paths = (
{
closed = 1;
nodes = (
"112 0 LINE",
"172 283 LINE",
"212 283 LINE",
"152 0 LINE",
"283 0 LINE",
"430 688 LINE",
"298 688 LINE",
"274 577 LINE",
"235 577 LINE",
"259 688 LINE",
"127 688 LINE",
"-19 0 LINE"
);
},
{
closed = 1;
nodes = (
"221 513 LINE",
"260 513 LINE",
"239 412 LINE",
"200 412 LINE"
);
}
);
width = 362;
},
{
layerId = "B988E418-9469-42FB-AD32-095B8D65BEE5";
paths = (
{
closed = 1;
nodes = (
"74 0 LINE",
"135 286 LINE",
"266 286 LINE",
"205 0 LINE",
"281 0 LINE",
"428 688 LINE",
"352 688 LINE",
"322 549 LINE",
"191 549 LINE",
"221 688 LINE",
"144 688 LINE",
"-2 0 LINE"
);
},
{
closed = 1;
nodes = (
"180 497 LINE",
"311 497 LINE",
"282 362 LINE",
"151 362 LINE"
);
}
);
width = 376;
},
{
layerId = "8AB9AFA2-7010-440B-BFFC-1C7CDFA1A370";
paths = (
{
closed = 1;
nodes = (
"265 0 LINE",
"308 202 LINE",
"463 202 LINE",
"420 0 LINE",
"686 0 LINE",
"833 688 LINE",
"567 688 LINE",
"546 592 LINE",
"391 592 LINE",
"412 688 LINE",
"146 688 LINE",
"0 0 LINE"
);
},
{
closed = 1;
nodes = (
"370 492 LINE",
"525 492 LINE",
"506 405 LINE",
"351 405 LINE"
);
}
);
width = 797;
},
{
layerId = "8494D26F-946F-4BDA-8E04-2FD894ABFEA2";
paths = (
{
closed = 1;
nodes = (
"177 0 LINE",
"233 261 LINE",
"622 261 LINE",
"566 0 LINE",
"686 0 LINE",
"833 688 LINE",
"714 688 LINE",
"685 554 LINE",
"295 554 LINE",
"324 688 LINE",
"205 688 LINE",
"57 0 LINE"
);
},
{
closed = 1;
nodes = (
"281 486 LINE",
"670 486 LINE",
"644 365 LINE",
"255 365 LINE"
);
}
);
width = 844;
},
{
layerId = "527899E9-AC81-44FE-89AA-146AC27955A1";
paths = (
{
closed = 1;
nodes = (
"115 0 LINE",
"181 311 LINE",
"698 311 LINE",
"632 0 LINE",
"668 0 LINE",
"815 688 LINE",
"779 688 LINE",
"745 530 LINE",
"228 530 LINE",
"262 688 LINE",
"226 688 LINE",
"79 0 LINE"
);
},
{
closed = 1;
nodes = (
"221 496 LINE",
"738 496 LINE",
"706 345 LINE",
"189 345 LINE"
);
}
);
width = 860;
}
);
leftKerningGroup = H;
widthMetricsKey = H;
rightKerningGroup = H;
unicode = 0126;
},
{
glyphname = I;
layers = (
{
anchors = (
{
name = bottom;
position = "{79, 0}";
},
{
name = ogonek;
position = "{97, 0}";
},
{
name = top;
position = "{225, 688}";
},
{
name = topleft;
position = "{208, 688}";
}
);
layerId = "CD898CA3-FB76-4965-A23E-9AA06D1CE2B1";
paths = (
{
closed = 1;
nodes = (
"97 0 LINE",
"244 688 LINE",
"208 688 LINE",
"61 0 LINE"
);
}
);
width = 266;
},
{
anchors = (
{
name = bottom;
position = "{112, 0}";
},
{
name = ogonek;
position = "{228, 0}";
},
{
name = top;
position = "{258, 688}";
},
{
name = topleft;
position = "{141, 688}";
}
);
layerId = "B4DE345C-CFDB-4A54-B125-3358BD91D59F";
paths = (
{
closed = 1;
nodes = (
"228 0 LINE",
"375 688 LINE",
"141 688 LINE",
"-5 0 LINE"
);
}
);
width = 332;
},
{
anchors = (
{
name = bottom;
position = "{57, 0}";
},
{
name = ogonek;
position = "{138, 0}";
},
{
name = top;
position = "{203, 688}";
},
{
name = topleft;
position = "{131, 688}";
}
);
layerId = "47937877-2CF8-49A0-A6AF-2B1A27CB5FF4";
paths = (
{
closed = 1;
nodes = (
"138 0 LINE",
"285 688 LINE",
"131 688 LINE",
"-15 0 LINE"
);
}
);
width = 222;
},
{
anchors = (
{
name = bottom;
position = "{34, 0}";
},
{
name = ogonek;
position = "{52, 0}";
},
{
name = top;
position = "{180, 688}";
},
{
name = topleft;
position = "{163, 688}";
}
);
layerId = "FA01890A-5211-455F-9108-1209F66A586C";
paths = (
{
closed = 1;
nodes = (
"52 0 LINE",
"199 688 LINE",
"163 688 LINE",
"17 0 LINE"
);
}
);
width = 176;
},
{
anchors = (
{
name = bottom;
position = "{103, 0}";
},
{
name = ogonek;
position = "{169, 0}";
},
{
name = top;
position = "{246, 688}";
},
{
name = topleft;
position = "{187, 688}";
}
);
layerId = "20A7088A-67D7-4614-84CF-19C576DDC019";
paths = (
{
closed = 1;
nodes = (
"169 0 LINE",
"316 688 LINE",
"187 688 LINE",
"40 0 LINE"
);
}
);
width = 308;
},
{
anchors = (
{
name = bottom;
position = "{60, 0}";
},
{
name = ogonek;
position = "{118, 0}";
},
{
name = top;
position = "{206, 688}";
},
{
name = topleft;
position = "{151, 688}";
}
);
layerId = "C784E404-3F19-435D-96BB-DB276E1DA8D0";
paths = (
{
closed = 1;
nodes = (
"118 0 LINE",
"265 688 LINE",
"151 688 LINE",
"5 0 LINE"
);
}
);
width = 227;
},
{
anchors = (
{
name = bottom;
position = "{21.798, 0}";
},
{
name = ogonek;
position = "{40, 0}";
},
{
name = top;
position = "{168.037, 688}";
},
{
name = topleft;
position = "{151, 688}";
}
);
layerId = UUID0;
paths = (
{
closed = 1;
nodes = (
"40 0 LINE",
"187 688 LINE",
"151 688 LINE",
"6 0 LINE"
);
}
);
width = 152;
},
{
anchors = (
{
name = bottom;
position = "{41.798, 0}";
},
{
name = ogonek;
position = "{114, 0}";
},
{
name = top;
position = "{188.037, 688}";
},
{
name = topleft;
position = "{129, 688}";
}
);
layerId = "2A096AB6-16C2-4C34-8164-FCBBBF8CEAEB";
paths = (
{
closed = 1;
nodes = (
"114 0 LINE",
"261 688 LINE",
"129 688 LINE",
"-17 0 LINE"
);
}
);
width = 192;
},
{
anchors = (
{
name = bottom;
position = "{32.798, 0}";
},
{
name = ogonek;
position = "{74, 0}";
},
{
name = top;
position = "{179.037, 688}";
},
{
name = topleft;
position = "{144, 688}";
}
);
layerId = "B988E418-9469-42FB-AD32-095B8D65BEE5";
paths = (
{
closed = 1;
nodes = (
"74 0 LINE",
"221 688 LINE",
"144 688 LINE",
"-2 0 LINE"
);
}
);
width = 174;
},
{
anchors = (
{
name = bottom;
position = "{133.798, 0}";
},
{
name = ogonek;
position = "{264, 0}";
},
{
name = top;
position = "{280.037, 688}";
},
{
name = topleft;
position = "{145, 688}";
}
);
layerId = "8AB9AFA2-7010-440B-BFFC-1C7CDFA1A370";
paths = (
{
closed = 1;
nodes = (
"264 0 LINE",
"411 688 LINE",
"145 688 LINE",
"-1 0 LINE"
);
}
);
width = 376;
},
{
anchors = (
{
name = bottom;
position = "{112.798, 0}";
},
{
name = ogonek;
position = "{177, 0}";
},
{
name = top;
position = "{259.037, 688}";
},
{
name = topleft;
position = "{205, 688}";
}
);
layerId = "8494D26F-946F-4BDA-8E04-2FD894ABFEA2";
paths = (
{
closed = 1;
nodes = (
"177 0 LINE",
"324 688 LINE",
"205 688 LINE",
"57 0 LINE"
);
}
);
width = 334;
},
{
anchors = (
{
name = bottom;
position = "{96.798, 0}";
},
{
name = ogonek;
position = "{115, 0}";
},
{
name = top;
position = "{243.037, 688}";
},
{
name = topleft;
position = "{226, 688}";
}
);
layerId = "527899E9-AC81-44FE-89AA-146AC27955A1";
paths = (
{
closed = 1;
nodes = (
"115 0 LINE",
"262 688 LINE",
"226 688 LINE",
"79 0 LINE"
);
}
);
width = 302;
}
);
leftKerningGroup = H;
rightKerningGroup = H;
unicode = 0049;
},
{
glyphname = Iogonek;
layers = (
{
components = (
{
name = I;
},
{
name = ogonekcomb.case;
transform = "{1, 0, 0, 1, 53, -4}";
}
);
layerId = "CD898CA3-FB76-4965-A23E-9AA06D1CE2B1";
width = 266;
},
{
components = (
{
name = I;
},
{
name = ogonekcomb.case;
transform = "{1, 0, 0, 1, 56, -4}";
}
);
layerId = "20A7088A-67D7-4614-84CF-19C576DDC019";
width = 308;
},
{
components = (
{
name = I;
},
{
name = ogonekcomb.case;
transform = "{1, 0, 0, 1, 51, -4}";
}
);
layerId = "B4DE345C-CFDB-4A54-B125-3358BD91D59F";
width = 332;
},
{
components = (
{
name = I;
},
{
name = ogonekcomb.case;
transform = "{1, 0, 0, 1, 7, -4}";
}
);
layerId = "FA01890A-5211-455F-9108-1209F66A586C";
width = 176;
},
{
components = (
{
name = I;
},
{
name = ogonekcomb.case;
transform = "{1, 0, 0, 1, 33, -4}";
}
);
layerId = "C784E404-3F19-435D-96BB-DB276E1DA8D0";
width = 227;
},
{
components = (
{
name = I;
},
{
name = ogonekcomb.case;
transform = "{1, 0, 0, 1, 42, -4}";
}
);
layerId = "47937877-2CF8-49A0-A6AF-2B1A27CB5FF4";
width = 222;
},
{
background = {
paths = (
{
closed = 1;
nodes = (
"-9 -194 OFFCURVE",
"-5 -194 OFFCURVE",
"5 -193 CURVE",
"12 -161 LINE",
"3 -162 OFFCURVE",
"-1 -162 OFFCURVE",
"-5 -162 CURVE SMOOTH",
"-33 -162 OFFCURVE",
"-44 -149 OFFCURVE",
"-44 -131 CURVE SMOOTH",
"-44 -93 OFFCURVE",
"4 -31 OFFCURVE",
"40 0 CURVE",
"187 688 LINE",
"151 688 LINE",
"6 0 LINE",
"7 0 LINE",
"-44 -42 OFFCURVE",
"-79 -95 OFFCURVE",
"-79 -136 CURVE SMOOTH",
"-79 -171 OFFCURVE",
"-60 -194 OFFCURVE",
"-18 -194 CURVE SMOOTH"
);
}
);
};
components = (
{
name = I;
},
{
name = ogonekcomb.case;
transform = "{1, 0, 0, 1, -5, -4}";
}
);
layerId = UUID0;
width = 152;
},
{
background = {
paths = (
{
closed = 1;
nodes = (
"46 -207 OFFCURVE",
"65 -205 OFFCURVE",
"76 -202 CURVE",
"90 -132 LINE",
"85 -133 OFFCURVE",
"84 -133 OFFCURVE",
"82 -133 CURVE SMOOTH",
"64 -133 OFFCURVE",
"59 -124 OFFCURVE",
"59 -112 CURVE SMOOTH",
"59 -71 OFFCURVE",
"93 -23 OFFCURVE",
"114 0 CURVE",
"261 688 LINE",
"129 688 LINE",
"-17 0 LINE",
"33 0 LINE",
"-12 -41 OFFCURVE",
"-38 -90 OFFCURVE",
"-38 -136 CURVE SMOOTH",
"-38 -175 OFFCURVE",
"-20 -207 OFFCURVE",
"29 -207 CURVE SMOOTH"
);
}
);
};
components = (
{
name = I;
},
{
name = ogonekcomb.case;
transform = "{1, 0, 0, 1, 39, -3}";
}
);
layerId = "2A096AB6-16C2-4C34-8164-FCBBBF8CEAEB";
width = 192;
},
{
background = {
paths = (
{
closed = 1;
nodes = (
"12 -201 OFFCURVE",
"22 -200 OFFCURVE",
"33 -197 CURVE",
"42 -153 LINE",
"36 -154 OFFCURVE",
"32 -154 OFFCURVE",
"29 -154 CURVE SMOOTH",
"5 -154 OFFCURVE",
"-4 -143 OFFCURVE",
"-4 -127 CURVE SMOOTH",
"-4 -86 OFFCURVE",
"42 -24 OFFCURVE",
"74 0 CURVE",
"221 688 LINE",
"144 688 LINE",
"-2 0 LINE",
"20 0 LINE",
"-31 -43 OFFCURVE",
"-64 -97 OFFCURVE",
"-64 -139 CURVE SMOOTH",
"-64 -176 OFFCURVE",
"-45 -201 OFFCURVE",
"0 -201 CURVE SMOOTH"
);
}
);
};
components = (
{
name = I;
},
{
name = ogonekcomb.case;
transform = "{1, 0, 0, 1, 19, -4}";
}
);
layerId = "B988E418-9469-42FB-AD32-095B8D65BEE5";
width = 174;
},
{
background = {
paths = (
{
closed = 1;
nodes = (
"161 -206 OFFCURVE",
"206 -204 OFFCURVE",
"233 -203 CURVE",
"254 -95 LINE",
"244 -96 OFFCURVE",
"238 -96 OFFCURVE",
"235 -96 CURVE SMOOTH",
"197 -96 OFFCURVE",
"187 -87 OFFCURVE",
"187 -72 CURVE SMOOTH",
"187 -46 OFFCURVE",
"226 -17 OFFCURVE",
"264 0 CURVE",
"411 688 LINE",
"145 688 LINE",
"-1 0 LINE",
"71 0 LINE",
"18 -42 OFFCURVE",
"-17 -87 OFFCURVE",
"-17 -132 CURVE SMOOTH",
"-17 -172 OFFCURVE",
"17 -206 OFFCURVE",
"130 -206 CURVE SMOOTH"
);
}
);
};
components = (
{
name = I;
},
{
name = ogonekcomb.case;
transform = "{1, 0, 0, 1, 53, -4}";
}
);
layerId = "8AB9AFA2-7010-440B-BFFC-1C7CDFA1A370";
width = 376;
},
{
background = {
paths = (
{
closed = 1;
nodes = (
"104 -209 OFFCURVE",
"122 -208 OFFCURVE",
"140 -206 CURVE",
"153 -138 LINE",
"144 -139 OFFCURVE",
"139 -139 OFFCURVE",
"134 -139 CURVE SMOOTH",
"102 -139 OFFCURVE",
"91 -128 OFFCURVE",
"91 -110 CURVE SMOOTH",
"91 -73 OFFCURVE",
"139 -25 OFFCURVE",
"177 0 CURVE",
"324 688 LINE",
"205 688 LINE",
"57 0 LINE",
"74 0 LINE",
"19 -41 OFFCURVE",
"-10 -85 OFFCURVE",
"-10 -140 CURVE SMOOTH",
"-10 -180 OFFCURVE",
"13 -209 OFFCURVE",
"87 -209 CURVE SMOOTH"
);
}
);
};
components = (
{
name = I;
},
{
name = ogonekcomb.case;
transform = "{1, 0, 0, 1, 67, -3}";
}
);
layerId = "8494D26F-946F-4BDA-8E04-2FD894ABFEA2";
width = 334;
},
{
background = {
paths = (
{
closed = 1;
nodes = (
"69 -211 OFFCURVE",
"71 -211 OFFCURVE",
"78 -210 CURVE",
"85 -178 LINE",
"76 -179 OFFCURVE",
"72 -179 OFFCURVE",
"68 -179 CURVE SMOOTH",
"39 -179 OFFCURVE",
"29 -159 OFFCURVE",
"29 -133 CURVE SMOOTH",
"29 -86 OFFCURVE",
"79 -29 OFFCURVE",
"115 0 CURVE",
"262 688 LINE",
"226 688 LINE",
"79 0 LINE",
"80 0 LINE",
"24 -46 OFFCURVE",
"-6 -99 OFFCURVE",
"-6 -146 CURVE SMOOTH",
"-6 -185 OFFCURVE",
"12 -211 OFFCURVE",
"63 -211 CURVE SMOOTH"
);
}
);
};
components = (
{
name = I;
},
{
name = ogonekcomb.case;
transform = "{1, 0, 0, 1, 72, -4}";
}
);
layerId = "527899E9-AC81-44FE-89AA-146AC27955A1";
width = 302;
}
);
leftKerningGroup = H;
rightKerningGroup = H;
unicode = 012E;
},
{
glyphname = J;
layers = (
{
anchors = (
{
name = bottom;
position = "{138, 0}";
},
{
name = top;
position = "{284, 688}";
}
);
layerId = "CD898CA3-FB76-4965-A23E-9AA06D1CE2B1";
paths = (
{
closed = 1;
nodes = (
"150 0 OFFCURVE",
"155 5 OFFCURVE",
"207 245 CURVE SMOOTH",
"302 688 LINE",
"266 688 LINE",
"168 226 LINE SMOOTH",
"128 38 OFFCURVE",
"124 34 OFFCURVE",
"-15 34 CURVE",
"-23 0 LINE"
);
}
);
width = 324;
},
{
anchors = (
{
name = bottom;
position = "{209, 0}";
},
{
name = top;
position = "{355, 688}";
}
);
background = {
paths = (
{
closed = 1;
nodes = (
"-40 0 LINE",
"314 0 OFFCURVE",
"331 13 OFFCURVE",
"398 328 CURVE SMOOTH",
"475 688 LINE",
"241 688 LINE",
"152 271 LINE SMOOTH",
"129 163 OFFCURVE",
"123 158 OFFCURVE",
"-6 158 CURVE"
);
}
);
};
layerId = "B4DE345C-CFDB-4A54-B125-3358BD91D59F";
paths = (
{
closed = 1;
nodes = (
"326 0 OFFCURVE",
"333 11 OFFCURVE",
"391 288 CURVE SMOOTH",
"475 688 LINE",
"241 688 LINE",
"152 271 LINE SMOOTH",
"129 163 OFFCURVE",
"123 158 OFFCURVE",
"-6 158 CURVE",
"-40 0 LINE"
);
}
);
width = 427;
},
{
anchors = (
{
name = bottom;
position = "{107, 0}";
},
{
name = top;
position = "{253, 688}";
}
);
layerId = "47937877-2CF8-49A0-A6AF-2B1A27CB5FF4";
paths = (
{
closed = 1;
nodes = (
"179 0 OFFCURVE",
"186 3 OFFCURVE",
"256 328 CURVE SMOOTH",
"333 688 LINE",
"179 688 LINE",
"83 240 LINE SMOOTH",
"61 138 OFFCURVE",
"55 130 OFFCURVE",
"-21 130 CURVE",
"-49 0 LINE"
);
}
);
width = 270;
},
{
anchors = (
{
name = bottom;
position = "{36, 0}";
},
{
name = top;
position = "{182, 688}";
}
);
layerId = "FA01890A-5211-455F-9108-1209F66A586C";
paths = (
{
closed = 1;
nodes = (
"48 3 OFFCURVE",
"56 15 OFFCURVE",
"101 224 CURVE SMOOTH",
"200 688 LINE",
"164 688 LINE",
"65 226 LINE SMOOTH",
"25 41 OFFCURVE",
"24 38 OFFCURVE",
"-45 34 CURVE",
"-53 0 LINE"
);
}
);
width = 177;
},
{
anchors = (
{
name = bottom;
position = "{185, 0}";
},
{
name = top;
position = "{331, 688}";
}
);
layerId = "20A7088A-67D7-4614-84CF-19C576DDC019";
paths = (
{
closed = 1;
nodes = (
"246 0 OFFCURVE",
"255 11 OFFCURVE",
"312 281 CURVE SMOOTH",
"398 688 LINE",
"268 688 LINE",
"177 261 LINE SMOOTH",
"145 107 OFFCURVE",
"140 101 OFFCURVE",
"-2 99 CURVE",
"-24 0 LINE"
);
}
);
width = 388;
},
{
anchors = (
{
name = bottom;
position = "{101, 0}";
},
{
name = top;
position = "{247, 688}";
}
);
layerId = "C784E404-3F19-435D-96BB-DB276E1DA8D0";
paths = (
{
closed = 1;
nodes = (
"157 0 OFFCURVE",
"161 10 OFFCURVE",
"219 284 CURVE SMOOTH",
"305 688 LINE",
"191 688 LINE",
"96 240 LINE SMOOTH",
"66 101 OFFCURVE",
"62 95 OFFCURVE",
"-27 93 CURVE",
"-47 0 LINE"
);
}
);
width = 267;
},
{
anchors = (
{
name = bottom;
position = "{4, 0}";
},
{
name = top;
position = "{150, 688}";
}
);
layerId = UUID0;
paths = (
{
closed = 1;
nodes = (
"20 4 OFFCURVE",
"29 19 OFFCURVE",
"72 218 CURVE SMOOTH",
"172 688 LINE",
"136 688 LINE",
"39 226 LINE SMOOTH {name = \"1.1 \";}",
"-1 43 OFFCURVE",
"-3 39 OFFCURVE",
"-53 34 CURVE",
"-61 0 LINE"
);
}
);
width = 139;
},
{
anchors = (
{
name = bottom;
position = "{77, 0}";
},
{
name = top;
position = "{223, 688}";
}
);
layerId = "2A096AB6-16C2-4C34-8164-FCBBBF8CEAEB";
paths = (
{
closed = 1;
nodes = (
"140 0 OFFCURVE",
"146 0 OFFCURVE",
"222 346 CURVE SMOOTH {name = \"1.0 \";}",
"295 688 LINE",
"163 688 LINE",
"65 226 LINE SMOOTH {name = \"0.8 \";}",
"43 127 OFFCURVE",
"37 117 OFFCURVE",
"-25 117 CURVE",
"-51 0 LINE"
);
}
);
width = 228;
},
{
anchors = (
{
name = bottom;
position = "{41, 0}";
},
{
name = top;
position = "{187, 688}";
}
);
layerId = "B988E418-9469-42FB-AD32-095B8D65BEE5";
paths = (
{
closed = 1;
nodes = (
"73 0 OFFCURVE",
"84 9 OFFCURVE",
"139 264 CURVE SMOOTH",
"230 688 LINE",
"153 688 LINE",
"55 226 LINE SMOOTH {name = \"0.9 \";}",
"22 76 OFFCURVE",
"18 71 OFFCURVE",
"-40 69 CURVE",
"-55 0 LINE"
);
}
);
width = 184;
},
{
anchors = (
{
name = bottom;
position = "{241, 0}";
},
{
name = top;
position = "{387, 688}";
}
);
layerId = "8AB9AFA2-7010-440B-BFFC-1C7CDFA1A370";
paths = (
{
closed = 1;
nodes = (
"378 0 OFFCURVE",
"387 5 OFFCURVE",
"444 272 CURVE SMOOTH",
"532 688 LINE",
"266 688 LINE",
"180 284 LINE SMOOTH",
"156 171 OFFCURVE",
"152 169 OFFCURVE",
"0 169 CURVE",
"-36 0 LINE"
);
}
);
width = 490;
},
{
anchors = (
{
name = bottom;
position = "{221, 0}";
},
{
name = top;
position = "{367, 688}";
}
);
layerId = "8494D26F-946F-4BDA-8E04-2FD894ABFEA2";
paths = (
{
closed = 1;
nodes = (
"268 0 OFFCURVE",
"275 6 OFFCURVE",
"334 277 CURVE SMOOTH",
"422 688 LINE",
"303 688 LINE",
"213 270 LINE SMOOTH {name = \"1.8 \";}",
"180 105 OFFCURVE",
"176 102 OFFCURVE",
"6 100 CURVE",
"-15 0 LINE"
);
}
);
width = 427;
},
{
anchors = (
{
name = bottom;
position = "{178, 0}";
},
{
name = top;
position = "{324, 688}";
}
);
layerId = "527899E9-AC81-44FE-89AA-146AC27955A1";
paths = (
{
closed = 1;
nodes = (
"192 0 OFFCURVE",
"197 5 OFFCURVE",
"250 253 CURVE SMOOTH",
"343 688 LINE",
"307 688 LINE",
"209 226 LINE SMOOTH",
"169 36 OFFCURVE",
"165 32 OFFCURVE",
"-3 34 CURVE",
"-11 0 LINE"
);
}
);
width = 383;
}
);
leftKerningGroup = J;
rightKerningGroup = U;
unicode = 004A;
},
{
glyphname = K;
layers = (
{
anchors = (
{
name = bottom;
position = "{279, 0}";
},
{
name = top;
position = "{425, 688}";
}
);
background = {
paths = (
{
closed = 1;
nodes = (
"528 0 LINE",
"571 0 LINE",
"375 349 LINE",
"715 688 LINE",
"673 688 LINE",
"348 366 LINE",
"175 366 LINE",
"244 688 LINE",
"208 688 LINE",
"61 0 LINE",
"97 0 LINE",
"168 332 LINE",
"341 332 LINE"
);
}
);
};
layerId = "CD898CA3-FB76-4965-A23E-9AA06D1CE2B1";
paths = (
{
closed = 1;
nodes = (
"97 0 LINE",
"168 332 LINE",
"341 332 LINE",
"532 0 LINE",
"571 0 LINE",
"373 346 LINE",
"715 688 LINE",
"669 688 LINE",
"348 366 LINE",
"175 366 LINE",
"244 688 LINE",
"208 688 LINE",
"61 0 LINE"
);
}
);
width = 665;
},
{
anchors = (
{
name = bottom;
position = "{293, 0}";
},
{
name = top;
position = "{439, 688}";
}
);
background = {
paths = (
{
closed = 1;
nodes = (
"384 0 LINE",
"639 0 LINE",
"507 365 LINE",
"783 688 LINE",
"534 688 LINE",
"330 431 LINE",
"320 431 LINE",
"375 688 LINE",
"141 688 LINE",
"-5 0 LINE",
"228 0 LINE",
"285 268 LINE",
"295 268 LINE"
);
}
);
};
layerId = "B4DE345C-CFDB-4A54-B125-3358BD91D59F";
paths = (
{
closed = 1;
nodes = (
"228 0 LINE",
"285 268 LINE",
"295 268 LINE",
"391 0 LINE",
"639 0 LINE",
"504 350 LINE",
"783 688 LINE",
"528 688 LINE",
"330 431 LINE",
"320 431 LINE",
"375 688 LINE",
"141 688 LINE",
"-5 0 LINE"
);
}
);
width = 693;
},
{
anchors = (
{
name = bottom;
position = "{174, 0}";
},
{
name = top;
position = "{310, 688}";
}
);
background = {
paths = (
{
closed = 1;
nodes = (
"179 0 LINE",
"339 0 LINE",
"323 358 LINE",
"485 688 LINE",
"329 688 LINE",
"218 422 LINE",
"204 422 LINE",
"261 688 LINE",
"107 688 LINE",
"-39 0 LINE",
"114 0 LINE",
"173 275 LINE",
"187 275 LINE"
);
}
);
};
layerId = "47937877-2CF8-49A0-A6AF-2B1A27CB5FF4";
paths = (
{
closed = 1;
nodes = (
"138 0 LINE",
"197 275 LINE",
"211 275 LINE",
"211 0 LINE",
"363 0 LINE",
"345 347 LINE",
"509 688 LINE",
"350 688 LINE",
"242 422 LINE",
"228 422 LINE",
"285 688 LINE",
"131 688 LINE",
"-15 0 LINE"
);
}
);
width = 416;
},
{
anchors = (
{
name = bottom;
position = "{159, 0}";
},
{
name = top;
position = "{295, 688}";
}
);
background = {
paths = (
{
closed = 1;
nodes = (
"278 0 LINE",
"317 0 LINE",
"237 349 LINE",
"462 688 LINE",
"424 688 LINE",
"209 366 LINE",
"125 366 LINE",
"194 688 LINE",
"158 688 LINE",
"12 0 LINE",
"47 0 LINE",
"118 332 LINE",
"202 332 LINE"
);
}
);
};
layerId = "FA01890A-5211-455F-9108-1209F66A586C";
paths = (
{
closed = 1;
nodes = (
"52 0 LINE",
"123 332 LINE",
"207 332 LINE",
"285 0 LINE",
"322 0 LINE",
"240 347 LINE",
"467 688 LINE",
"427 688 LINE",
"214 366 LINE",
"130 366 LINE",
"199 688 LINE",
"163 688 LINE",
"17 0 LINE"
);
}
);
width = 386;
},
{
anchors = (
{
name = bottom;
position = "{298, 0}";
},
{
name = top;
position = "{444, 688}";
}
);
layerId = "20A7088A-67D7-4614-84CF-19C576DDC019";
paths = (
{
closed = 1;
nodes = (
"169 0 LINE",
"233 299 LINE",
"329 299 LINE",
"493 0 LINE",
"634 0 LINE",
"442 346 LINE",
"778 688 LINE",
"630 688 LINE",
"351 401 LINE",
"255 401 LINE",
"316 688 LINE",
"187 688 LINE",
"40 0 LINE"
);
}
);
width = 703;
},
{
anchors = (
{
name = bottom;
position = "{191, 0}";
},
{
name = top;
position = "{337, 688}";
}
);
layerId = "C784E404-3F19-435D-96BB-DB276E1DA8D0";
paths = (
{
closed = 1;
nodes = (
"118 0 LINE",
"182 298 LINE",
"234 298 LINE",
"294 0 LINE",
"408 0 LINE",
"333 346 LINE",
"554 688 LINE",
"433 688 LINE",
"256 400 LINE",
"203 400 LINE",
"265 688 LINE",
"151 688 LINE",
"5 0 LINE"
);
}
);
width = 469;
},
{
anchors = (
{
name = bottom;
position = "{120, 0}";
},
{
name = top;
position = "{258, 688}";
}
);
layerId = UUID0;
paths = (
{
closed = 1;
nodes = (
"40 0 LINE",
"111 332 LINE",
"172 332 LINE",
"220 0 LINE",
"256 0 LINE",
"205 347 LINE",
"402 688 LINE",
"364 688 LINE",
"179 366 LINE",
"118 366 LINE",
"187 688 LINE",
"151 688 LINE",
"6 0 LINE"
);
}
);
width = 312;
},
{
anchors = (
{
name = bottom;
position = "{136, 0}";
},
{
name = top;
position = "{283, 688}";
}
);
layerId = "2A096AB6-16C2-4C34-8164-FCBBBF8CEAEB";
paths = (
{
closed = 1;
nodes = (
"114 0 LINE",
"174 283 LINE",
"189 283 LINE",
"163 0 LINE",
"293 0 LINE",
"307 346 LINE",
"437 688 LINE",
"303 688 LINE",
"217 412 LINE",
"202 412 LINE",
"261 688 LINE",
"129 688 LINE",
"-17 0 LINE"
);
}
);
width = 342;
},
{
anchors = (
{
name = bottom;
position = "{128, 0}";
},
{
name = top;
position = "{273, 688}";
}
);
layerId = "B988E418-9469-42FB-AD32-095B8D65BEE5";
paths = (
{
closed = 1;
nodes = (
"74 0 LINE",
"140 311 LINE",
"185 311 LINE",
"209 0 LINE",
"286 0 LINE",
"255 348 LINE",
"431 688 LINE",
"351 688 LINE",
"200 386 LINE",
"157 386 LINE",
"221 688 LINE",
"144 688 LINE",
"-2 0 LINE"
);
}
);
width = 342;
},
{
anchors = (
{
name = bottom;
position = "{347.798, 0}";
},
{
name = top;
position = "{494.037, 688}";
}
);
layerId = "8AB9AFA2-7010-440B-BFFC-1C7CDFA1A370";
paths = (
{
closed = 1;
nodes = (
"264 0 LINE",
"320 265 LINE",
"329 265 LINE",
"463 0 LINE",
"749 0 LINE",
"568 351 LINE",
"893 688 LINE",
"599 688 LINE",
"365 435 LINE",
"357 435 LINE",
"411 688 LINE",
"145 688 LINE",
"-1 0 LINE"
);
}
);
width = 804;
},
{
anchors = (
{
name = bottom;
position = "{340.798, 0}";
},
{
name = top;
position = "{487.037, 688}";
}
);
layerId = "8494D26F-946F-4BDA-8E04-2FD894ABFEA2";
paths = (
{
closed = 1;
nodes = (
"177 0 LINE",
"241 298 LINE",
"373 298 LINE",
"577 0 LINE",
"715 0 LINE",
"475 346 LINE",
"856 688 LINE",
"709 688 LINE",
"390 401 LINE",
"263 401 LINE",
"324 688 LINE",
"205 688 LINE",
"57 0 LINE"
);
}
);
width = 789;
},
{
anchors = (
{
name = bottom;
position = "{334.798, 0}";
},
{
name = top;
position = "{481.037, 688}";
}
);
layerId = "527899E9-AC81-44FE-89AA-146AC27955A1";
paths = (
{
closed = 1;
nodes = (
"115 0 LINE",
"186 332 LINE",
"395 332 LINE",
"630 0 LINE",
"671 0 LINE",
"426 345 LINE",
"815 688 LINE",
"767 688 LINE",
"402 366 LINE",
"193 366 LINE",
"262 688 LINE",
"226 688 LINE",
"79 0 LINE"
);
}
);
width = 777;
}
);
leftKerningGroup = H;
rightKerningGroup = X;
unicode = 004B;
},
{
glyphname = L;
layers = (
{
anchors = (
{
name = bottom;
position = "{264, 0}";
},
{
name = center;
position = "{154, 344}";
},
{
name = top;
position = "{227, 688}";
},
{
name = topright;
position = "{347, 510}";
}
);
layerId = "CD898CA3-FB76-4965-A23E-9AA06D1CE2B1";
paths = (
{
closed = 1;
nodes = (
"447 0 LINE",
"455 34 LINE",
"105 34 LINE",
"244 688 LINE",
"208 688 LINE",
"61 0 LINE"
);
}
);
width = 536;
},
{
anchors = (
{
name = bottom;
position = "{227, 0}";
},
{
name = center;
position = "{186, 344}";
},
{
name = top;
position = "{259, 688}";
},
{
name = topright;
position = "{383, 510}";
}
);
layerId = "B4DE345C-CFDB-4A54-B125-3358BD91D59F";
paths = (
{
closed = 1;
nodes = (
"458 0 LINE",
"496 176 LINE",
"266 176 LINE",
"375 688 LINE",
"141 688 LINE",
"-5 0 LINE"
);
}
);
width = 521;
},
{
anchors = (
{
name = bottom;
position = "{118, 0}";
},
{
name = center;
position = "{135, 344}";
},
{
name = top;
position = "{208, 688}";
},
{
name = topright;
position = "{251, 510}";
}
);
layerId = "47937877-2CF8-49A0-A6AF-2B1A27CB5FF4";
paths = (
{
closed = 1;
nodes = (
"251 0 LINE",
"282 142 LINE",
"169 142 LINE",
"285 688 LINE",
"131 688 LINE",
"-15 0 LINE"
);
}
);
width = 311;
},
{
anchors = (
{
name = bottom;
position = "{135, 0}";
},
{
name = center;
position = "{109, 344}";
},
{
name = top;
position = "{182, 688}";
},
{
name = topright;
position = "{212, 510}";
}
);
layerId = "FA01890A-5211-455F-9108-1209F66A586C";
paths = (
{
closed = 1;
nodes = (
"248 0 LINE",
"256 34 LINE",
"61 34 LINE",
"200 688 LINE",
"163 688 LINE",
"17 0 LINE"
);
}
);
width = 302;
},
{
anchors = (
{
name = bottom;
position = "{272, 0}";
},
{
name = center;
position = "{178, 344}";
},
{
name = top;
position = "{251, 688}";
},
{
name = topright;
position = "{368, 510}";
}
);
layerId = "20A7088A-67D7-4614-84CF-19C576DDC019";
paths = (
{
closed = 1;
nodes = (
"479 0 LINE",
"503 109 LINE",
"193 109 LINE",
"316 688 LINE",
"187 688 LINE",
"40 0 LINE"
);
}
);
width = 554;
},
{
anchors = (
{
name = bottom;
position = "{155, 0}";
},
{
name = center;
position = "{134, 344}";
},
{
name = top;
position = "{207, 688}";
},
{
name = topright;
position = "{272, 510}";
}
);
layerId = "C784E404-3F19-435D-96BB-DB276E1DA8D0";
paths = (
{
closed = 1;
nodes = (
"299 0 LINE",
"321 102 LINE",
"140 102 LINE",
"265 688 LINE",
"151 688 LINE",
"5 0 LINE"
);
}
);
width = 360;
},
{
anchors = (
{
name = bottom;
position = "{98, 0}";
},
{
name = center;
position = "{138.918, 344}";
},
{
name = top;
position = "{169, 688}";
},
{
name = topright;
position = "{174, 510}";
}
);
layerId = UUID0;
paths = (
{
closed = 1;
nodes = (
"196 0 LINE",
"204 34 LINE",
"48 34 LINE",
"187 688 LINE",
"151 688 LINE",
"6 0 LINE"
);
}
);
width = 240;
},
{
anchors = (
{
name = bottom;
position = "{73.798, 0}";
},
{
name = center;
position = "{146.918, 344}";
},
{
name = top;
position = "{194, 688}";
},
{
name = topright;
position = "{214, 510}";
}
);
layerId = "2A096AB6-16C2-4C34-8164-FCBBBF8CEAEB";
paths = (
{
closed = 1;
nodes = (
"198 0 LINE",
"225 127 LINE",
"141 127 LINE",
"261 688 LINE",
"129 688 LINE",
"-17 0 LINE"
);
}
);
width = 255;
},
{
anchors = (
{
name = bottom;
position = "{105, 0}";
},
{
name = center;
position = "{149.918, 344}";
},
{
name = top;
position = "{181, 688}";
},
{
name = topright;
position = "{211, 510}";
}
);
layerId = "B988E418-9469-42FB-AD32-095B8D65BEE5";
paths = (
{
closed = 1;
nodes = (
"208 0 LINE",
"224 73 LINE",
"89 73 LINE",
"221 688 LINE",
"144 688 LINE",
"-2 0 LINE"
);
}
);
width = 262;
},
{
anchors = (
{
name = bottom;
position = "{278, 0}";
},
{
name = center;
position = "{321.918, 344}";
},
{
name = top;
position = "{275, 688}";
},
{
name = topright;
position = "{437, 510}";
}
);
layerId = "8AB9AFA2-7010-440B-BFFC-1C7CDFA1A370";
paths = (
{
closed = 1;
nodes = (
"541 0 LINE",
"582 190 LINE",
"304 190 LINE",
"411 688 LINE",
"145 688 LINE",
"-1 0 LINE"
);
}
);
width = 605;
},
{
anchors = (
{
name = bottom;
position = "{307, 0}";
},
{
name = center;
position = "{332.918, 344}";
},
{
name = top;
position = "{263, 688}";
},
{
name = topright;
position = "{431, 510}";
}
);
layerId = "8494D26F-946F-4BDA-8E04-2FD894ABFEA2";
paths = (
{
closed = 1;
nodes = (
"544 0 LINE",
"566 107 LINE",
"200 107 LINE",
"324 688 LINE",
"205 688 LINE",
"57 0 LINE"
);
}
);
width = 628;
},
{
anchors = (
{
name = bottom;
position = "{313, 0}";
},
{
name = center;
position = "{333.918, 344}";
},
{
name = top;
position = "{245, 688}";
},
{
name = topright;
position = "{388, 510}";
}
);
layerId = "527899E9-AC81-44FE-89AA-146AC27955A1";
paths = (
{
closed = 1;
nodes = (
"527 0 LINE",
"535 34 LINE",
"123 34 LINE",
"262 688 LINE",
"226 688 LINE",
"79 0 LINE"
);
}
);
width = 630;
}
);
leftKerningGroup = H;
rightKerningGroup = L;
unicode = 004C;
},
{
glyphname = Lslash;
layers = (
{
components = (
{
name = L;
}
);
layerId = "CD898CA3-FB76-4965-A23E-9AA06D1CE2B1";
paths = (
{
closed = 1;
nodes = (
"396 401 LINE",
"403 435 LINE",
"60 319 LINE",
"53 285 LINE"
);
}
);
width = 536;
},
{
components = (
{
name = L;
}
);
layerId = "B4DE345C-CFDB-4A54-B125-3358BD91D59F";
paths = (
{
closed = 1;
nodes = (
"433 379 LINE",
"463 521 LINE",
"24 372 LINE",
"-7 230 LINE"
);
}
);
width = 533;
},
{
components = (
{
name = L;
}
);
layerId = "47937877-2CF8-49A0-A6AF-2B1A27CB5FF4";
paths = (
{
closed = 1;
nodes = (
"282 333 LINE",
"309 462 LINE",
"27 363 LINE",
"0 234 LINE"
);
}
);
width = 311;
},
{
components = (
{
name = L;
}
);
layerId = "FA01890A-5211-455F-9108-1209F66A586C";
paths = (
{
closed = 1;
nodes = (
"260 352 LINE",
"267 386 LINE",
"37 308 LINE",
"30 274 LINE"
);
}
);
width = 302;
},
{
components = (
{
name = L;
}
);
layerId = "20A7088A-67D7-4614-84CF-19C576DDC019";
paths = (
{
closed = 1;
nodes = (
"433 393 LINE",
"455 484 LINE",
"53 346 LINE",
"31 255 LINE"
);
}
);
width = 558;
},
{
components = (
{
name = L;
}
);
layerId = "C784E404-3F19-435D-96BB-DB276E1DA8D0";
paths = (
{
closed = 1;
nodes = (
"312 352 LINE",
"331 443 LINE",
"32 342 LINE",
"12 251 LINE"
);
}
);
width = 361;
},
{
background = {
paths = (
{
closed = 1;
nodes = (
"196 0 LINE",
"204 34 LINE",
"48 34 LINE",
"103 295 LINE",
"223 337 LINE",
"230 372 LINE",
"111 331 LINE",
"187 688 LINE",
"151 688 LINE",
"6 0 LINE"
);
}
);
};
components = (
{
name = L;
}
);
layerId = UUID0;
paths = (
{
closed = 1;
nodes = (
"222 336 LINE",
"230 372 LINE",
"30 303 LINE",
"23 268 LINE"
);
}
);
width = 240;
},
{
background = {
paths = (
{
closed = 1;
nodes = (
"198 0 LINE",
"225 127 LINE",
"141 127 LINE",
"176 291 LINE",
"242 312 LINE",
"268 434 LINE",
"202 413 LINE",
"261 688 LINE",
"129 688 LINE",
"-17 0 LINE"
);
}
);
};
components = (
{
name = L;
}
);
layerId = "2A096AB6-16C2-4C34-8164-FCBBBF8CEAEB";
paths = (
{
closed = 1;
nodes = (
"242 311 LINE",
"268 434 LINE",
"27 358 LINE",
"1 235 LINE"
);
}
);
width = 255;
},
{
components = (
{
name = L;
}
);
layerId = "B988E418-9469-42FB-AD32-095B8D65BEE5";
paths = (
{
closed = 1;
nodes = (
"237 331 LINE",
"252 401 LINE",
"31 328 LINE",
"18 259 LINE"
);
}
);
width = 262;
},
{
background = {
paths = (
{
closed = 1;
nodes = (
"541 0 LINE",
"582 190 LINE",
"304 190 LINE",
"338 351 LINE",
"495 404 LINE",
"524 544 LINE",
"368 491 LINE",
"411 688 LINE",
"145 688 LINE",
"-1 0 LINE"
);
}
);
};
components = (
{
name = L;
}
);
layerId = "8AB9AFA2-7010-440B-BFFC-1C7CDFA1A370";
paths = (
{
closed = 1;
nodes = (
"494 404 LINE",
"524 544 LINE",
"22 375 LINE",
"-8 235 LINE"
);
}
);
width = 605;
},
{
background = {
paths = (
{
closed = 1;
nodes = (
"544 0 LINE",
"566 107 LINE",
"200 107 LINE",
"248 332 LINE",
"475 410 LINE",
"495 493 LINE",
"265 415 LINE",
"324 688 LINE",
"205 688 LINE",
"57 0 LINE"
);
}
);
};
components = (
{
name = L;
}
);
layerId = "8494D26F-946F-4BDA-8E04-2FD894ABFEA2";
paths = (
{
closed = 1;
nodes = (
"477 409 LINE",
"495 493 LINE",
"61 345 LINE",
"41 261 LINE"
);
}
);
width = 628;
},
{
background = {
paths = (
{
closed = 1;
nodes = (
"527 0 LINE",
"535 34 LINE",
"123 34 LINE",
"187 331 LINE",
"451 421 LINE",
"458 455 LINE",
"194 365 LINE",
"262 688 LINE",
"226 688 LINE",
"153 343 LINE",
"149 327 LINE",
"79 0 LINE"
);
}
);
};
components = (
{
name = L;
}
);
layerId = "527899E9-AC81-44FE-89AA-146AC27955A1";
paths = (
{
closed = 1;
nodes = (
"450 421 LINE",
"458 455 LINE",
"69 323 LINE",
"62 289 LINE"
);
}
);
width = 630;
}
);
leftKerningGroup = H;
rightKerningGroup = L;
unicode = 0141;
},
{
glyphname = M;
layers = (
{
anchors = (
{
name = bottom;
position = "{404, 0}";
},
{
name = top;
position = "{550, 688}";
}
);
background = {
paths = (
{
closed = 1;
nodes = (
"690 0 LINE",
"726 0 LINE",
"873 688 LINE",
"828 688 LINE",
"398 53 LINE",
"393 53 LINE",
"234 688 LINE",
"188 688 LINE",
"41 0 LINE",
"76 0 LINE",
"208 618 LINE",
"212 618 LINE",
"367 0 LINE",
"399 0 LINE",
"818 618 LINE",
"822 618 LINE"
);
}
);
};
layerId = "CD898CA3-FB76-4965-A23E-9AA06D1CE2B1";
paths = (
{
closed = 1;
nodes = (
"97 0 LINE",
"229 618 LINE",
"233 618 LINE",
"388 0 LINE",
"419 0 LINE",
"838 618 LINE",
"842 618 LINE",
"710 0 LINE",
"746 0 LINE",
"893 688 LINE",
"846 688 LINE",
"416 53 LINE",
"411 53 LINE",
"252 688 LINE",
"208 688 LINE",
"61 0 LINE"
);
}
);
width = 915;
},
{
anchors = (
{
name = bottom;
position = "{396, 0}";
},
{
name = top;
position = "{542, 688}";
}
);
background = {
paths = (
{
closed = 1;
nodes = (
"572 0 LINE",
"795 0 LINE",
"942 688 LINE",
"623 688 LINE",
"478 365 LINE",
"469 365 LINE",
"461 688 LINE",
"141 688 LINE",
"-5 0 LINE",
"211 0 LINE",
"294 387 LINE",
"305 387 LINE",
"314 0 LINE",
"469 0 LINE",
"644 387 LINE",
"655 387 LINE"
);
}
);
};
layerId = "B4DE345C-CFDB-4A54-B125-3358BD91D59F";
paths = (
{
closed = 1;
nodes = (
"211 0 LINE",
"294 387 LINE",
"305 387 LINE",
"314 0 LINE",
"469 0 LINE",
"644 387 LINE",
"655 387 LINE",
"572 0 LINE",
"795 0 LINE",
"942 688 LINE",
"623 688 LINE",
"478 365 LINE",
"469 365 LINE",
"461 688 LINE",
"141 688 LINE",
"-5 0 LINE"
);
}
);
width = 899;
},
{
anchors = (
{
name = bottom;
position = "{263, 0}";
},
{
name = top;
position = "{409, 688}";
}
);
background = {
paths = (
{
closed = 1;
nodes = (
"378 0 LINE",
"526 0 LINE",
"673 688 LINE",
"438 688 LINE",
"298 224 LINE",
"290 224 LINE",
"347 688 LINE",
"107 688 LINE",
"-39 0 LINE",
"105 0 LINE",
"213 507 LINE",
"222 507 LINE",
"165 0 LINE",
"318 0 LINE",
"478 507 LINE",
"486 507 LINE"
);
}
);
};
layerId = "47937877-2CF8-49A0-A6AF-2B1A27CB5FF4";
paths = (
{
closed = 1;
nodes = (
"129 0 LINE",
"237 507 LINE",
"246 507 LINE",
"189 0 LINE",
"342 0 LINE",
"502 507 LINE",
"510 507 LINE",
"402 0 LINE",
"550 0 LINE",
"697 688 LINE",
"459 688 LINE",
"319 224 LINE",
"311 224 LINE",
"368 688 LINE",
"131 688 LINE",
"-15 0 LINE"
);
}
);
width = 634;
},
{
anchors = (
{
name = bottom;
position = "{217, 0}";
},
{
name = top;
position = "{363, 688}";
}
);
background = {
paths = (
{
closed = 1;
nodes = (
"391 0 LINE",
"427 0 LINE",
"574 688 LINE",
"523 688 LINE",
"240 73 LINE",
"235 73 LINE",
"215 688 LINE",
"163 688 LINE",
"17 0 LINE",
"51 0 LINE",
"178 595 LINE",
"182 595 LINE",
"199 0 LINE",
"241 0 LINE",
"514 595 LINE",
"518 595 LINE"
);
}
);
};
layerId = "FA01890A-5211-455F-9108-1209F66A586C";
paths = (
{
closed = 1;
nodes = (
"51 0 LINE",
"178 595 LINE",
"182 595 LINE",
"199 0 LINE",
"241 0 LINE",
"514 595 LINE",
"518 595 LINE",
"391 0 LINE",
"427 0 LINE",
"574 688 LINE",
"521 688 LINE",
"239 73 LINE",
"233 73 LINE",
"213 688 LINE",
"163 688 LINE",
"17 0 LINE"
);
}
);
width = 541;
},
{
anchors = (
{
name = bottom;
position = "{412, 0}";
},
{
name = top;
position = "{558, 688}";
}
);
layerId = "20A7088A-67D7-4614-84CF-19C576DDC019";
paths = (
{
closed = 1;
nodes = (
"161 0 LINE",
"265 492 LINE",
"271 492 LINE",
"371 0 LINE",
"456 0 LINE",
"766 492 LINE",
"772 492 LINE",
"667 0 LINE",
"792 0 LINE",
"939 688 LINE",
"763 688 LINE",
"463 218 LINE",
"457 218 LINE",
"357 688 LINE",
"187 688 LINE",
"40 0 LINE"
);
}
);
width = 931;
},
{
anchors = (
{
name = bottom;
position = "{280, 0}";
},
{
name = top;
position = "{426, 688}";
}
);
layerId = "C784E404-3F19-435D-96BB-DB276E1DA8D0";
paths = (
{
closed = 1;
nodes = (
"111 0 LINE",
"224 529 LINE",
"231 529 LINE",
"229 0 LINE",
"333 0 LINE",
"559 529 LINE",
"566 529 LINE",
"453 0 LINE",
"562 0 LINE",
"709 688 LINE",
"540 688 LINE",
"323 178 LINE",
"317 178 LINE",
"317 688 LINE",
"151 688 LINE",
"5 0 LINE"
);
}
);
width = 668;
},
{
anchors = (
{
name = bottom;
position = "{167.798, 0}";
},
{
name = top;
position = "{314.037, 688}";
}
);
background = {
paths = (
{
closed = 1;
nodes = (
"6 0 LINE",
"39 0 LINE",
"164 589 LINE",
"168 589 LINE",
"149 0 LINE",
"195 0 LINE",
"429 589 LINE",
"433 589 LINE",
"309 0 LINE",
"343 0 LINE",
"490 688 LINE",
"433 688 LINE",
"192 79 LINE",
"186 79 LINE",
"202 688 LINE",
"151 688 LINE"
);
}
);
};
layerId = UUID0;
paths = (
{
closed = 1;
nodes = (
"39 0 LINE",
"164 594 LINE",
"168 594 LINE",
"149 0 LINE",
"195 0 LINE",
"429 594 LINE",
"433 594 LINE",
"309 0 LINE",
"343 0 LINE",
"490 688 LINE",
"433 688 LINE",
"191 72 LINE",
"185 72 LINE",
"202 688 LINE",
"151 688 LINE",
"6 0 LINE"
);
}
);
width = 443;
},
{
anchors = (
{
name = bottom;
position = "{227.798, 0}";
},
{
name = top;
position = "{374.037, 688}";
}
);
layerId = "2A096AB6-16C2-4C34-8164-FCBBBF8CEAEB";
paths = (
{
closed = 1;
nodes = (
"107 0 LINE",
"222 563 LINE",
"230 563 LINE",
"155 0 LINE",
"308 0 LINE",
"465 563 LINE",
"473 563 LINE",
"356 0 LINE",
"485 0 LINE",
"632 688 LINE",
"415 688 LINE",
"277 158 LINE",
"269 158 LINE",
"343 688 LINE",
"129 688 LINE",
"-17 0 LINE"
);
}
);
width = 564;
},
{
anchors = (
{
name = bottom;
position = "{202.798, 0}";
},
{
name = top;
position = "{349.037, 688}";
}
);
layerId = "B988E418-9469-42FB-AD32-095B8D65BEE5";
paths = (
{
closed = 1;
nodes = (
"69 0 LINE",
"191 574 LINE",
"196 574 LINE",
"161 0 LINE",
"254 0 LINE",
"463 574 LINE",
"468 574 LINE",
"346 0 LINE",
"421 0 LINE",
"568 688 LINE",
"442 688 LINE",
"237 117 LINE",
"231 117 LINE",
"265 688 LINE",
"144 688 LINE",
"-2 0 LINE"
);
}
);
width = 514;
},
{
anchors = (
{
name = bottom;
position = "{448.798, 0}";
},
{
name = top;
position = "{595.037, 688}";
}
);
layerId = "8AB9AFA2-7010-440B-BFFC-1C7CDFA1A370";
paths = (
{
closed = 1;
nodes = (
"244 0 LINE",
"317 339 LINE",
"328 339 LINE",
"364 0 LINE",
"520 0 LINE",
"701 339 LINE",
"713 339 LINE",
"640 0 LINE",
"893 0 LINE",
"1040 688 LINE",
"688 688 LINE",
"542 421 LINE",
"533 421 LINE",
"498 688 LINE",
"145 688 LINE",
"-1 0 LINE"
);
}
);
width = 1005;
},
{
anchors = (
{
name = bottom;
position = "{461.798, 0}";
},
{
name = top;
position = "{608.037, 688}";
}
);
layerId = "8494D26F-946F-4BDA-8E04-2FD894ABFEA2";
paths = (
{
closed = 1;
nodes = (
"175 0 LINE",
"282 501 LINE",
"289 501 LINE",
"419 0 LINE",
"513 0 LINE",
"855 501 LINE",
"862 501 LINE",
"754 0 LINE",
"874 0 LINE",
"1021 688 LINE",
"854 688 LINE",
"503 174 LINE",
"496 174 LINE",
"358 688 LINE",
"205 688 LINE",
"57 0 LINE"
);
}
);
width = 1031;
},
{
anchors = (
{
name = bottom;
position = "{478.798, 0}";
},
{
name = top;
position = "{625.037, 688}";
}
);
layerId = "527899E9-AC81-44FE-89AA-146AC27955A1";
paths = (
{
closed = 1;
nodes = (
"116 0 LINE",
"249 627 LINE",
"253 627 LINE",
"464 0 LINE",
"492 0 LINE",
"969 627 LINE",
"973 627 LINE",
"838 0 LINE",
"874 0 LINE",
"1021 688 LINE",
"976 688 LINE",
"487 45 LINE",
"483 45 LINE",
"268 688 LINE",
"226 688 LINE",
"79 0 LINE"
);
}
);
width = 1066;
}
);
leftKerningGroup = H;
rightKerningGroup = H;
unicode = 004D;
},
{
glyphname = N;
layers = (
{
anchors = (
{
name = bottom;
position = "{315, 0}";
},
{
name = top;
position = "{461, 688}";
}
);
layerId = "CD898CA3-FB76-4965-A23E-9AA06D1CE2B1";
paths = (
{
closed = 1;
nodes = (
"97 0 LINE",
"230 622 LINE",
"234 622 LINE",
"535 0 LINE",
"569 0 LINE",
"716 688 LINE",
"680 688 LINE",
"547 66 LINE",
"543 66 LINE",
"242 688 LINE",
"208 688 LINE",
"61 0 LINE"
);
}
);
width = 738;
},
{
anchors = (
{
name = bottom;
position = "{297, 0}";
},
{
name = top;
position = "{443, 688}";
}
);
layerId = "B4DE345C-CFDB-4A54-B125-3358BD91D59F";
paths = (
{
closed = 1;
nodes = (
"212 0 LINE",
"281 321 LINE",
"287 321 LINE",
"377 0 LINE",
"597 0 LINE",
"744 688 LINE",
"526 688 LINE",
"469 422 LINE",
"462 422 LINE",
"385 688 LINE",
"141 688 LINE",
"-5 0 LINE"
);
}
);
width = 701;
},
{
anchors = (
{
name = bottom;
position = "{165, 0}";
},
{
name = top;
position = "{319, 688}";
}
);
layerId = "47937877-2CF8-49A0-A6AF-2B1A27CB5FF4";
paths = (
{
closed = 1;
nodes = (
"128 0 LINE",
"193 304 LINE",
"197 304 LINE",
"219 0 LINE",
"353 0 LINE",
"500 688 LINE",
"356 688 LINE",
"299 422 LINE",
"293 422 LINE",
"274 688 LINE",
"131 688 LINE",
"-15 0 LINE"
);
}
);
width = 437;
},
{
anchors = (
{
name = bottom;
position = "{163, 0}";
},
{
name = top;
position = "{309, 688}";
}
);
background = {
paths = (
{
closed = 1;
nodes = (
"277 0 LINE",
"320 0 LINE",
"467 688 LINE",
"432 688 LINE",
"305 93 LINE",
"301 93 LINE",
"206 688 LINE",
"163 688 LINE",
"17 0 LINE",
"51 0 LINE",
"178 595 LINE",
"182 595 LINE"
);
}
);
};
layerId = "FA01890A-5211-455F-9108-1209F66A586C";
paths = (
{
closed = 1;
nodes = (
"52 0 LINE",
"179 595 LINE",
"183 595 LINE",
"278 0 LINE",
"320 0 LINE",
"467 688 LINE",
"431 688 LINE",
"304 93 LINE",
"300 93 LINE",
"205 688 LINE",
"163 688 LINE",
"17 0 LINE"
);
}
);
width = 434;
},
{
anchors = (
{
name = bottom;
position = "{321, 0}";
},
{
name = top;
position = "{467, 688}";
}
);
layerId = "20A7088A-67D7-4614-84CF-19C576DDC019";
paths = (
{
closed = 1;
nodes = (
"164 0 LINE",
"267 484 LINE",
"274 484 LINE",
"489 0 LINE",
"611 0 LINE",
"758 688 LINE",
"634 688 LINE",
"535 228 LINE",
"528 228 LINE",
"320 688 LINE",
"187 688 LINE",
"40 0 LINE"
);
}
);
width = 750;
},
{
anchors = (
{
name = bottom;
position = "{198, 0}";
},
{
name = top;
position = "{344, 688}";
}
);
layerId = "C784E404-3F19-435D-96BB-DB276E1DA8D0";
paths = (
{
closed = 1;
nodes = (
"111 0 LINE",
"204 433 LINE",
"208 433 LINE",
"293 0 LINE",
"397 0 LINE",
"544 688 LINE",
"437 688 LINE",
"350 278 LINE",
"344 278 LINE",
"262 688 LINE",
"151 688 LINE",
"5 0 LINE"
);
}
);
width = 503;
},
{
anchors = (
{
name = bottom;
position = "{127, 0}";
},
{
name = top;
position = "{273, 688}";
}
);
layerId = UUID0;
paths = (
{
closed = 1;
nodes = (
"40 0 LINE",
"165 588 LINE",
"169 588 LINE",
"211 0 LINE",
"254 0 LINE",
"401 688 LINE",
"365 688 LINE",
"241 101 LINE",
"237 101 LINE",
"195 688 LINE",
"151 688 LINE",
"6 0 LINE"
);
}
);
width = 354;
},
{
anchors = (
{
name = bottom;
position = "{129.798, 0}";
},
{
name = top;
position = "{276.037, 688}";
}
);
layerId = "2A096AB6-16C2-4C34-8164-FCBBBF8CEAEB";
paths = (
{
closed = 1;
nodes = (
"106 0 LINE",
"170 296 LINE",
"173 296 LINE",
"177 0 LINE",
"288 0 LINE",
"435 688 LINE",
"310 688 LINE",
"253 422 LINE",
"248 422 LINE",
"244 688 LINE",
"129 688 LINE",
"-17 0 LINE"
);
}
);
width = 367;
},
{
anchors = (
{
name = bottom;
position = "{134.798, 0}";
},
{
name = top;
position = "{281.037, 688}";
}
);
layerId = "B988E418-9469-42FB-AD32-095B8D65BEE5";
paths = (
{
closed = 1;
nodes = (
"70 0 LINE",
"171 473 LINE",
"175 473 LINE",
"207 0 LINE",
"285 0 LINE",
"432 688 LINE",
"359 688 LINE",
"261 228 LINE",
"256 228 LINE",
"224 688 LINE",
"144 688 LINE",
"-2 0 LINE"
);
}
);
width = 378;
},
{
anchors = (
{
name = bottom;
position = "{349.798, 0}";
},
{
name = top;
position = "{496.037, 688}";
}
);
layerId = "8AB9AFA2-7010-440B-BFFC-1C7CDFA1A370";
paths = (
{
closed = 1;
nodes = (
"246 0 LINE",
"316 328 LINE",
"323 328 LINE",
"440 0 LINE",
"695 0 LINE",
"842 688 LINE",
"594 688 LINE",
"537 422 LINE",
"530 422 LINE",
"429 688 LINE",
"145 688 LINE",
"-1 0 LINE"
);
}
);
width = 807;
},
{
anchors = (
{
name = bottom;
position = "{368.798, 0}";
},
{
name = top;
position = "{515.037, 688}";
}
);
layerId = "8494D26F-946F-4BDA-8E04-2FD894ABFEA2";
paths = (
{
closed = 1;
nodes = (
"175 0 LINE",
"284 512 LINE",
"292 512 LINE",
"575 0 LINE",
"688 0 LINE",
"835 688 LINE",
"719 688 LINE",
"614 197 LINE",
"604 197 LINE",
"328 688 LINE",
"205 688 LINE",
"57 0 LINE"
);
}
);
width = 845;
},
{
anchors = (
{
name = bottom;
position = "{375.798, 0}";
},
{
name = top;
position = "{522.037, 688}";
}
);
layerId = "527899E9-AC81-44FE-89AA-146AC27955A1";
paths = (
{
closed = 1;
nodes = (
"115 0 LINE",
"250 633 LINE",
"254 633 LINE",
"636 0 LINE",
"669 0 LINE",
"816 688 LINE",
"780 688 LINE",
"645 55 LINE",
"641 55 LINE",
"259 688 LINE",
"226 688 LINE",
"79 0 LINE"
);
}
);
width = 860;
}
);
leftKerningGroup = H;
rightKerningGroup = H;
unicode = 004E;
},
{
glyphname = Ncaron;
layers = (
{
background = {
paths = (
{
closed = 1;
nodes = (
"150 0 LINE",
"150 622 LINE",
"154 622 LINE",
"588 0 LINE",
"623 0 LINE",
"623 688 LINE",
"588 688 LINE",
"588 66 LINE",
"584 66 LINE",
"150 688 LINE",
"115 688 LINE",
"115 0 LINE"
);
},
{
closed = 1;
nodes = (
"392 750 LINE",
"499 883 LINE",
"499 888 LINE",
"472 888 LINE",
"369 780 LINE",
"266 888 LINE",
"239 888 LINE",
"239 883 LINE",
"346 750 LINE"
);
}
);
};
components = (
{
name = N;
},
{
name = caroncomb.case;
transform = "{1, 0, 0, 1, 277, 178}";
}
);
layerId = "CD898CA3-FB76-4965-A23E-9AA06D1CE2B1";
width = 738;
},
{
components = (
{
name = N;
},
{
name = caroncomb.case;
transform = "{1, 0, 0, 1, 205, 178}";
}
);
layerId = "B4DE345C-CFDB-4A54-B125-3358BD91D59F";
width = 701;
},
{
components = (
{
name = N;
},
{
name = caroncomb.case;
transform = "{1, 0, 0, 1, 127, 178}";
}
);
layerId = "47937877-2CF8-49A0-A6AF-2B1A27CB5FF4";
width = 437;
},
{
components = (
{
name = N;
},
{
name = caroncomb.case;
transform = "{1, 0, 0, 1, 164, 178}";
}
);
layerId = "FA01890A-5211-455F-9108-1209F66A586C";
width = 434;
},
{
components = (
{
name = N;
},
{
name = caroncomb.case;
transform = "{1, 0, 0, 1, 254, 178}";
}
);
layerId = "20A7088A-67D7-4614-84CF-19C576DDC019";
width = 750;
},
{
components = (
{
name = N;
},
{
name = caroncomb.case;
transform = "{1, 0, 0, 1, 157, 178}";
}
);
layerId = "C784E404-3F19-435D-96BB-DB276E1DA8D0";
width = 503;
},
{
components = (
{
name = N;
},
{
name = caroncomb.case;
transform = "{1, 0, 0, 1, 139, 178}";
}
);
layerId = UUID0;
width = 354;
},
{
components = (
{
name = N;
},
{
name = caroncomb.case;
transform = "{1, 0, 0, 1, 128, 178}";
}
);
layerId = "B988E418-9469-42FB-AD32-095B8D65BEE5";
width = 378;
},
{
components = (
{
name = N;
},
{
name = caroncomb.case;
transform = "{1, 0, 0, 1, 95, 178}";
}
);
layerId = "2A096AB6-16C2-4C34-8164-FCBBBF8CEAEB";
width = 367;
},
{
components = (
{
name = N;
},
{
name = caroncomb.case;
transform = "{1, 0, 0, 1, 321, 178}";
}
);
layerId = "527899E9-AC81-44FE-89AA-146AC27955A1";
width = 860;
},
{
components = (
{
name = N;
},
{
name = caroncomb.case;
transform = "{1, 0, 0, 1, 295, 178}";
}
);
layerId = "8494D26F-946F-4BDA-8E04-2FD894ABFEA2";
width = 845;
},
{
components = (
{
name = N;
},
{
name = caroncomb.case;
transform = "{1, 0, 0, 1, 240, 178}";
}
);
layerId = "8AB9AFA2-7010-440B-BFFC-1C7CDFA1A370";
width = 807;
}
);
leftKerningGroup = H;
rightKerningGroup = H;
unicode = 0147;
},
{
glyphname = Eng;
layers = (
{
background = {
paths = (
{
closed = 1;
nodes = (
"485 -200 OFFCURVE",
"530 -195 OFFCURVE",
"549 -103 CURVE SMOOTH",
"717 688 LINE",
"682 688 LINE",
"550 66 LINE",
"546 66 LINE",
"244 688 LINE",
"209 688 LINE",
"63 0 LINE",
"98 0 LINE",
"230 622 LINE",
"234 622 LINE",
"536 0 LINE",
"512 -113 LINE SMOOTH",
"503 -158 OFFCURVE",
"491 -170 OFFCURVE",
"398 -170 CURVE",
"392 -200 LINE"
);
}
);
};
layerId = "CD898CA3-FB76-4965-A23E-9AA06D1CE2B1";
paths = (
{
closed = 1;
nodes = (
"496 -200 OFFCURVE",
"529 -198 OFFCURVE",
"548 -103 CURVE SMOOTH {name = \"1.0 \";}",
"716 688 LINE",
"680 688 LINE",
"547 66 LINE",
"543 66 LINE",
"242 688 LINE",
"208 688 LINE",
"61 0 LINE",
"97 0 LINE",
"230 622 LINE",
"234 622 LINE",
"535 0 LINE",
"511 -113 LINE SMOOTH",
"500 -163 OFFCURVE",
"486 -170 OFFCURVE",
"398 -170 CURVE",
"391 -200 LINE"
);
}
);
width = 738;
},
{
background = {
paths = (
{
closed = 1;
nodes = (
"513 -199 OFFCURVE",
"561 -179 OFFCURVE",
"607 37 CURVE SMOOTH",
"745 688 LINE",
"522 688 LINE",
"466 422 LINE",
"459 422 LINE",
"381 688 LINE",
"142 688 LINE",
"-4 0 LINE",
"219 0 LINE",
"287 321 LINE",
"293 321 LINE",
"379 16 LINE",
"374 -10 LINE SMOOTH",
"367 -45 OFFCURVE",
"360 -61 OFFCURVE",
"291 -61 CURVE",
"262 -199 LINE"
);
}
);
};
layerId = "B4DE345C-CFDB-4A54-B125-3358BD91D59F";
paths = (
{
closed = 1;
nodes = (
"516 -199 OFFCURVE",
"557 -199 OFFCURVE",
"605 37 CURVE SMOOTH {name = \"1.7 \";}",
"744 688 LINE",
"526 688 LINE",
"469 422 LINE",
"462 422 LINE",
"385 688 LINE",
"141 688 LINE",
"-5 0 LINE",
"212 0 LINE",
"281 321 LINE",
"287 321 LINE",
"377 3 LINE",
"376 -3 LINE",
"365 -59 OFFCURVE",
"366 -61 OFFCURVE",
"292 -61 CURVE",
"262 -199 LINE"
);
}
);
width = 701;
},
{
background = {
paths = (
{
closed = 1;
nodes = (
"290 -198 OFFCURVE",
"311 -179 OFFCURVE",
"356 35 CURVE SMOOTH",
"457 510 LINE",
"313 510 LINE",
"197 -39 LINE SMOOTH",
"190 -73 OFFCURVE",
"187 -89 OFFCURVE",
"141 -89 CURVE",
"117 -198 LINE"
);
}
);
};
layerId = "47937877-2CF8-49A0-A6AF-2B1A27CB5FF4";
paths = (
{
closed = 1;
nodes = (
"290 -198 OFFCURVE",
"310 -179 OFFCURVE",
"356 35 CURVE SMOOTH",
"497 688 LINE",
"351 688 LINE",
"295 422 LINE",
"289 422 LINE",
"269 688 LINE",
"128 688 LINE",
"-18 0 LINE",
"128 0 LINE",
"193 304 LINE",
"197 304 LINE",
"215 45 LINE",
"197 -39 LINE SMOOTH",
"190 -73 OFFCURVE",
"187 -89 OFFCURVE",
"141 -89 CURVE",
"117 -198 LINE"
);
}
);
width = 437;
},
{
background = {
paths = (
{
closed = 1;
nodes = (
"250 -190 OFFCURVE",
"280 -185 OFFCURVE",
"300 -93 CURVE SMOOTH",
"466 688 LINE",
"431 688 LINE",
"307 101 LINE",
"303 101 LINE",
"205 688 LINE",
"162 688 LINE",
"16 0 LINE",
"51 0 LINE",
"178 595 LINE",
"182 595 LINE",
"285 0 LINE",
"263 -103 LINE SMOOTH",
"253 -148 OFFCURVE",
"246 -160 OFFCURVE",
"190 -160 CURVE",
"184 -190 LINE"
);
}
);
};
layerId = "FA01890A-5211-455F-9108-1209F66A586C";
paths = (
{
closed = 1;
nodes = (
"267 -190 OFFCURVE",
"280 -185 OFFCURVE",
"300 -93 CURVE SMOOTH",
"467 688 LINE",
"431 688 LINE",
"307 99 LINE",
"303 99 LINE",
"205 688 LINE",
"163 688 LINE",
"17 0 LINE",
"52 0 LINE",
"179 595 LINE",
"183 595 LINE",
"285 0 LINE",
"264 -103 LINE SMOOTH",
"254 -151 OFFCURVE",
"245 -160 OFFCURVE",
"191 -160 CURVE",
"184 -190 LINE"
);
}
);
width = 434;
},
{
background = {
paths = (
{
closed = 1;
nodes = (
"524 -200 OFFCURVE",
"570 -187 OFFCURVE",
"603 -31 CURVE SMOOTH",
"755 688 LINE",
"632 688 LINE",
"536 233 LINE",
"531 233 LINE",
"318 688 LINE",
"184 688 LINE",
"38 0 LINE",
"162 0 LINE",
"264 478 LINE",
"269 478 LINE",
"486 1 LINE",
"474 -58 LINE SMOOTH",
"465 -98 OFFCURVE",
"455 -112 OFFCURVE",
"369 -112 CURVE",
"351 -200 LINE"
);
}
);
};
layerId = "20A7088A-67D7-4614-84CF-19C576DDC019";
paths = (
{
closed = 1;
nodes = (
"533 -200 OFFCURVE",
"571 -195 OFFCURVE",
"604 -34 CURVE SMOOTH {name = \"1.1 \";}",
"758 688 LINE",
"634 688 LINE",
"535 228 LINE",
"528 228 LINE",
"320 688 LINE",
"187 688 LINE",
"40 0 LINE",
"164 0 LINE",
"267 484 LINE",
"274 484 LINE",
"489 0 LINE",
"477 -58 LINE SMOOTH",
"467 -109 OFFCURVE",
"460 -112 OFFCURVE",
"374 -112 CURVE",
"355 -200 LINE"
);
}
);
width = 750;
},
{
layerId = "C784E404-3F19-435D-96BB-DB276E1DA8D0";
paths = (
{
closed = 1;
nodes = (
"333 -196 OFFCURVE",
"355 -184 OFFCURVE",
"390 -20 CURVE SMOOTH",
"542 688 LINE",
"435 688 LINE",
"348 281 LINE",
"342 281 LINE",
"260 688 LINE",
"149 688 LINE",
"3 0 LINE",
"111 0 LINE",
"203 432 LINE",
"208 432 LINE",
"293 21 LINE",
"275 -63 LINE SMOOTH",
"267 -102 OFFCURVE",
"262 -116 OFFCURVE",
"204 -116 CURVE",
"187 -196 LINE"
);
}
);
width = 503;
},
{
layerId = UUID0;
paths = (
{
closed = 1;
nodes = (
"207 -188 OFFCURVE",
"216 -182 OFFCURVE",
"235 -91 CURVE SMOOTH",
"401 688 LINE",
"365 688 LINE",
"246 119 LINE",
"242 119 LINE",
"193 688 LINE",
"151 688 LINE",
"6 0 LINE",
"40 0 LINE",
"165 588 LINE",
"169 588 LINE",
"219 0 LINE",
"199 -101 LINE SMOOTH",
"189 -148 OFFCURVE",
"182 -158 OFFCURVE",
"137 -158 CURVE",
"130 -188 LINE"
);
}
);
width = 354;
},
{
layerId = "2A096AB6-16C2-4C34-8164-FCBBBF8CEAEB";
paths = (
{
closed = 1;
nodes = (
"236 -199 OFFCURVE",
"253 -171 OFFCURVE",
"296 34 CURVE SMOOTH",
"435 688 LINE",
"310 688 LINE",
"253 422 LINE",
"248 422 LINE",
"244 688 LINE",
"129 688 LINE",
"-17 0 LINE",
"106 0 LINE",
"170 296 LINE",
"173 296 LINE",
"176 55 LINE",
"155 -57 LINE SMOOTH",
"150 -81 OFFCURVE",
"145 -103 OFFCURVE",
"107 -103 CURVE",
"85 -199 LINE"
);
}
);
width = 367;
},
{
layerId = "B988E418-9469-42FB-AD32-095B8D65BEE5";
paths = (
{
closed = 1;
nodes = (
"234 -193 OFFCURVE",
"247 -183 OFFCURVE",
"277 -43 CURVE SMOOTH",
"432 688 LINE",
"359 688 LINE",
"264 243 LINE",
"258 243 LINE",
"224 688 LINE",
"144 688 LINE",
"-2 0 LINE",
"70 0 LINE",
"171 473 LINE",
"175 473 LINE",
"213 0 LINE",
"196 -83 LINE SMOOTH",
"187 -125 OFFCURVE",
"182 -137 OFFCURVE",
"137 -137 CURVE",
"124 -193 LINE"
);
}
);
width = 378;
},
{
background = {
paths = (
{
closed = 1;
nodes = (
"602 -200 OFFCURVE",
"651 -206 OFFCURVE",
"703 38 CURVE SMOOTH",
"841 688 LINE",
"594 688 LINE",
"537 422 LINE",
"530 422 LINE",
"429 688 LINE",
"145 688 LINE",
"-1 0 LINE",
"246 0 LINE",
"316 328 LINE",
"323 328 LINE",
"440 1 LINE",
"440 0 LINE",
"429 -53 OFFCURVE",
"427 -50 OFFCURVE",
"348 -50 CURVE",
"315 -200 LINE"
);
}
);
};
layerId = "8AB9AFA2-7010-440B-BFFC-1C7CDFA1A370";
paths = (
{
closed = 1;
nodes = (
"602 -200 OFFCURVE",
"651 -206 OFFCURVE",
"703 38 CURVE SMOOTH",
"841 688 LINE",
"594 688 LINE",
"537 422 LINE",
"530 422 LINE",
"429 688 LINE",
"145 688 LINE",
"-1 0 LINE",
"246 0 LINE",
"316 328 LINE",
"323 328 LINE",
"440 0 LINE",
"439 -5 LINE",
"430 -49 OFFCURVE",
"426 -50 OFFCURVE",
"348 -50 CURVE",
"315 -200 LINE"
);
}
);
width = 807;
},
{
layerId = "8494D26F-946F-4BDA-8E04-2FD894ABFEA2";
paths = (
{
closed = 1;
nodes = (
"603 -201 OFFCURVE",
"647 -199 OFFCURVE",
"678 -46 CURVE SMOOTH {name = \"1.4 \";}",
"835 688 LINE",
"719 688 LINE",
"614 197 LINE",
"604 197 LINE",
"328 688 LINE",
"205 688 LINE",
"57 0 LINE",
"175 0 LINE",
"284 512 LINE",
"292 512 LINE",
"573 3 LINE",
"559 -64 LINE SMOOTH",
"548 -118 OFFCURVE",
"539 -119 OFFCURVE",
"442 -119 CURVE",
"424 -201 LINE"
);
}
);
width = 845;
},
{
layerId = "527899E9-AC81-44FE-89AA-146AC27955A1";
paths = (
{
closed = 1;
nodes = (
"587 -204 OFFCURVE",
"626 -203 OFFCURVE",
"646 -107 CURVE SMOOTH",
"816 688 LINE",
"780 688 LINE",
"645 55 LINE",
"641 55 LINE",
"259 688 LINE",
"226 688 LINE",
"79 0 LINE",
"115 0 LINE",
"250 633 LINE",
"254 633 LINE",
"634 2 LINE",
"610 -117 LINE SMOOTH",
"599 -168 OFFCURVE",
"582 -174 OFFCURVE",
"480 -174 CURVE",
"473 -204 LINE"
);
}
);
width = 860;
}
);
leftKerningGroup = H;
rightKerningGroup = H;
unicode = 014A;
},
{
glyphname = Nhookleft;
layers = (
{
anchors = (
{
name = bottom;
position = "{315, 0}";
},
{
name = top;
position = "{461, 688}";
}
);
background = {
paths = (
{
closed = 1;
nodes = (
"12 -200 OFFCURVE",
"57 -195 OFFCURVE",
"76 -103 CURVE SMOOTH",
"230 622 LINE",
"234 622 LINE",
"536 0 LINE",
"571 0 LINE",
"717 688 LINE",
"682 688 LINE",
"550 66 LINE",
"546 66 LINE",
"244 688 LINE",
"209 688 LINE",
"39 -113 LINE SMOOTH",
"30 -158 OFFCURVE",
"18 -170 OFFCURVE",
"-75 -170 CURVE",
"-81 -200 LINE"
);
}
);
};
layerId = "CD898CA3-FB76-4965-A23E-9AA06D1CE2B1";
paths = (
{
closed = 1;
nodes = (
"21 -200 OFFCURVE",
"57 -195 OFFCURVE",
"76 -103 CURVE SMOOTH",
"230 622 LINE",
"234 622 LINE",
"536 0 LINE",
"571 0 LINE",
"717 688 LINE",
"682 688 LINE",
"550 66 LINE",
"546 66 LINE",
"244 688 LINE",
"209 688 LINE",
"42 -103 LINE SMOOTH",
"30 -158 OFFCURVE",
"18 -170 OFFCURVE",
"-75 -170 CURVE",
"-81 -200 LINE"
);
}
);
width = 738;
},
{
anchors = (
{
name = bottom;
position = "{299, 0}";
},
{
name = top;
position = "{445, 688}";
}
);
layerId = "B4DE345C-CFDB-4A54-B125-3358BD91D59F";
paths = (
{
closed = 1;
nodes = (
"136 -199 OFFCURVE",
"184 -179 OFFCURVE",
"230 37 CURVE SMOOTH",
"290 321 LINE",
"296 321 LINE",
"387 0 LINE",
"602 0 LINE",
"748 688 LINE",
"525 688 LINE",
"469 422 LINE",
"462 422 LINE",
"384 688 LINE",
"145 688 LINE",
"-3 -10 LINE SMOOTH",
"-11 -45 OFFCURVE",
"-17 -61 OFFCURVE",
"-86 -61 CURVE",
"-115 -199 LINE"
);
}
);
width = 705;
},
{
anchors = (
{
name = bottom;
position = "{165, 0}";
},
{
name = top;
position = "{311, 688}";
}
);
layerId = "47937877-2CF8-49A0-A6AF-2B1A27CB5FF4";
paths = (
{
closed = 1;
nodes = (
"49 -198 OFFCURVE",
"90 -179 OFFCURVE",
"135 35 CURVE SMOOTH",
"193 304 LINE",
"197 304 LINE",
"219 0 LINE",
"351 0 LINE",
"497 688 LINE",
"351 688 LINE",
"295 422 LINE",
"289 422 LINE",
"269 688 LINE",
"128 688 LINE",
"-26 -39 LINE SMOOTH {name = \"0.7 \";}",
"-34 -73 OFFCURVE",
"-37 -89 OFFCURVE",
"-83 -89 CURVE",
"-106 -198 LINE"
);
}
);
width = 437;
},
{
anchors = (
{
name = bottom;
position = "{163, 0}";
},
{
name = top;
position = "{309, 688}";
}
);
layerId = "FA01890A-5211-455F-9108-1209F66A586C";
paths = (
{
closed = 1;
nodes = (
"-23 -190 OFFCURVE",
"8 -185 OFFCURVE",
"27 -93 CURVE SMOOTH",
"174 595 LINE",
"178 595 LINE",
"273 0 LINE",
"316 0 LINE",
"462 688 LINE",
"427 688 LINE",
"301 93 LINE",
"297 93 LINE",
"201 688 LINE",
"158 688 LINE",
"-10 -103 LINE SMOOTH",
"-19 -145 OFFCURVE",
"-27 -160 OFFCURVE",
"-83 -160 CURVE",
"-89 -190 LINE"
);
}
);
width = 434;
},
{
anchors = (
{
name = bottom;
position = "{322, 0}";
},
{
name = top;
position = "{468, 688}";
}
);
layerId = "20A7088A-67D7-4614-84CF-19C576DDC019";
paths = (
{
closed = 1;
nodes = (
"75 -200 OFFCURVE",
"122 -187 OFFCURVE",
"155 -34 CURVE SMOOTH",
"264 478 LINE",
"269 478 LINE",
"487 0 LINE",
"609 0 LINE",
"755 688 LINE",
"632 688 LINE",
"536 234 LINE",
"531 234 LINE",
"318 688 LINE",
"184 688 LINE",
"26 -58 LINE SMOOTH",
"17 -98 OFFCURVE",
"7 -112 OFFCURVE",
"-79 -112 CURVE",
"-97 -200 LINE"
);
}
);
width = 751;
},
{
anchors = (
{
name = bottom;
position = "{198, 0}";
},
{
name = top;
position = "{344, 688}";
}
);
background = {
paths = (
{
closed = 1;
nodes = (
"46 -196 OFFCURVE",
"68 -184 OFFCURVE",
"103 -20 CURVE SMOOTH",
"215 510 LINE",
"109 510 LINE",
"-12 -63 LINE SMOOTH",
"-20 -102 OFFCURVE",
"-25 -116 OFFCURVE",
"-83 -116 CURVE",
"-100 -196 LINE"
);
}
);
};
layerId = "C784E404-3F19-435D-96BB-DB276E1DA8D0";
paths = (
{
closed = 1;
nodes = (
"44 -196 OFFCURVE",
"72 -182 OFFCURVE",
"106 -20 CURVE SMOOTH",
"203 432 LINE",
"208 432 LINE",
"293 0 LINE",
"396 0 LINE",
"542 688 LINE",
"435 688 LINE",
"348 279 LINE",
"342 279 LINE",
"260 688 LINE",
"149 688 LINE",
"-11 -63 LINE SMOOTH",
"-19 -102 OFFCURVE",
"-25 -116 OFFCURVE",
"-83 -116 CURVE",
"-100 -196 LINE"
);
}
);
width = 503;
},
{
anchors = (
{
name = bottom;
position = "{122.798, 0}";
},
{
name = top;
position = "{269.037, 688}";
}
);
layerId = UUID0;
paths = (
{
closed = 1;
nodes = (
"-26 -188 OFFCURVE",
"1 -183 OFFCURVE",
"21 -91 CURVE SMOOTH",
"165 588 LINE",
"169 588 LINE",
"211 0 LINE",
"254 0 LINE",
"401 688 LINE",
"365 688 LINE",
"241 101 LINE",
"237 101 LINE",
"195 688 LINE",
"151 688 LINE",
"-16 -103 LINE SMOOTH",
"-24 -142 OFFCURVE",
"-40 -158 OFFCURVE",
"-77 -158 CURVE",
"-83 -188 LINE"
);
}
);
width = 354;
},
{
anchors = (
{
name = bottom;
position = "{128.798, 0}";
},
{
name = top;
position = "{275.037, 688}";
}
);
layerId = "2A096AB6-16C2-4C34-8164-FCBBBF8CEAEB";
paths = (
{
closed = 1;
nodes = (
"29 -199 OFFCURVE",
"67 -180 OFFCURVE",
"113 34 CURVE SMOOTH",
"170 296 LINE",
"173 296 LINE",
"177 0 LINE",
"288 0 LINE",
"435 688 LINE",
"310 688 LINE",
"253 422 LINE",
"248 422 LINE",
"244 688 LINE",
"129 688 LINE",
"-29 -54 LINE SMOOTH",
"-36 -87 OFFCURVE",
"-40 -103 OFFCURVE",
"-79 -103 CURVE",
"-101 -199 LINE"
);
}
);
width = 366;
},
{
anchors = (
{
name = bottom;
position = "{134.798, 0}";
},
{
name = top;
position = "{281.037, 688}";
}
);
layerId = "B988E418-9469-42FB-AD32-095B8D65BEE5";
paths = (
{
closed = 1;
nodes = (
"0 -193 OFFCURVE",
"32 -185 OFFCURVE",
"62 -43 CURVE SMOOTH",
"171 473 LINE",
"175 473 LINE",
"207 0 LINE",
"285 0 LINE",
"432 688 LINE",
"359 688 LINE",
"261 228 LINE",
"256 228 LINE",
"224 688 LINE",
"144 688 LINE",
"-19 -83 LINE SMOOTH",
"-27 -120 OFFCURVE",
"-34 -137 OFFCURVE",
"-79 -137 CURVE",
"-91 -193 LINE"
);
}
);
width = 378;
},
{
anchors = (
{
name = bottom;
position = "{351.798, 0}";
},
{
name = top;
position = "{498.037, 688}";
}
);
layerId = "8AB9AFA2-7010-440B-BFFC-1C7CDFA1A370";
paths = (
{
closed = 1;
nodes = (
"164 -200 OFFCURVE",
"208 -179 OFFCURVE",
"254 38 CURVE SMOOTH",
"316 328 LINE",
"323 328 LINE",
"440 0 LINE",
"695 0 LINE",
"842 688 LINE",
"594 688 LINE",
"537 422 LINE",
"530 422 LINE",
"429 688 LINE",
"145 688 LINE",
"-1 1 LINE SMOOTH",
"-8 -34 OFFCURVE",
"-16 -50 OFFCURVE",
"-94 -50 CURVE",
"-126 -200 LINE"
);
}
);
width = 812;
},
{
anchors = (
{
name = bottom;
position = "{368.798, 0}";
},
{
name = top;
position = "{515.037, 688}";
}
);
layerId = "8494D26F-946F-4BDA-8E04-2FD894ABFEA2";
paths = (
{
closed = 1;
nodes = (
"82 -201 OFFCURVE",
"135 -190 OFFCURVE",
"165 -47 CURVE SMOOTH",
"284 512 LINE",
"292 512 LINE",
"575 0 LINE",
"688 0 LINE",
"835 688 LINE",
"719 688 LINE",
"614 197 LINE",
"604 197 LINE",
"328 688 LINE",
"205 688 LINE",
"44 -62 LINE SMOOTH",
"35 -106 OFFCURVE",
"23 -119 OFFCURVE",
"-74 -119 CURVE",
"-91 -201 LINE"
);
}
);
width = 846;
},
{
anchors = (
{
name = bottom;
position = "{375.798, 0}";
},
{
name = top;
position = "{522.037, 688}";
}
);
layerId = "527899E9-AC81-44FE-89AA-146AC27955A1";
paths = (
{
closed = 1;
nodes = (
"39 -204 OFFCURVE",
"76 -199 OFFCURVE",
"96 -107 CURVE SMOOTH",
"254 633 LINE",
"258 633 LINE",
"640 0 LINE",
"673 0 LINE",
"820 688 LINE",
"784 688 LINE",
"649 55 LINE",
"645 55 LINE",
"263 688 LINE",
"230 688 LINE",
"61 -103 LINE SMOOTH",
"48 -163 OFFCURVE",
"36 -174 OFFCURVE",
"-72 -174 CURVE",
"-78 -204 LINE"
);
}
);
width = 860;
}
);
leftKerningGroup = j;
rightKerningGroup = H;
unicode = 019D;
},
{
glyphname = O;
layers = (
{
anchors = (
{
name = bottom;
position = "{309, 0}";
},
{
name = center;
position = "{382, 344}";
},
{
name = ogonek;
position = "{351, 0}";
},
{
name = top;
position = "{455, 688}";
},
{
name = topleft;
position = "{112, 688}";
},
{
name = topright;
position = "{574, 688}";
}
);
layerId = "CD898CA3-FB76-4965-A23E-9AA06D1CE2B1";
paths = (
{
closed = 1;
nodes = (
"566 -8 OFFCURVE",
"586 31 OFFCURVE",
"653 344 CURVE SMOOTH",
"674 442 OFFCURVE",
"686 512 OFFCURVE",
"686 564 CURVE SMOOTH",
"686 677 OFFCURVE",
"624 696 OFFCURVE",
"444 696 CURVE SMOOTH",
"194 696 OFFCURVE",
"176 664 OFFCURVE",
"107 344 CURVE SMOOTH",
"86 245 OFFCURVE",
"73 173 OFFCURVE",
"73 122 CURVE SMOOTH",
"73 10 OFFCURVE",
"135 -8 OFFCURVE",
"315 -8 CURVE SMOOTH"
);
},
{
closed = 1;
nodes = (
"165 26 OFFCURVE",
"109 29 OFFCURVE",
"109 128 CURVE SMOOTH",
"109 175 OFFCURVE",
"122 243 OFFCURVE",
"143 344 CURVE SMOOTH",
"208 656 OFFCURVE",
"230 662 OFFCURVE",
"447 662 CURVE SMOOTH",
"594 662 OFFCURVE",
"650 659 OFFCURVE",
"650 559 CURVE SMOOTH",
"650 512 OFFCURVE",
"638 444 OFFCURVE",
"617 344 CURVE SMOOTH",
"550 32 OFFCURVE",
"529 26 OFFCURVE",
"312 26 CURVE SMOOTH"
);
}
);
width = 726;
},
{
anchors = (
{
name = bottom;
position = "{294, 0}";
},
{
name = center;
position = "{367, 344}";
},
{
name = ogonek;
position = "{398, 0}";
},
{
name = top;
position = "{440, 688}";
},
{
name = topleft;
position = "{112, 688}";
},
{
name = topright;
position = "{537, 688}";
}
);
background = {
paths = (
{
closed = 1;
nodes = (
"592 -8 OFFCURVE",
"613 73 OFFCURVE",
"671 344 CURVE SMOOTH",
"728 615 OFFCURVE",
"741 696 OFFCURVE",
"439 696 CURVE SMOOTH",
"137 696 OFFCURVE",
"117 615 OFFCURVE",
"60 344 CURVE SMOOTH",
"3 73 OFFCURVE",
"-11 -8 OFFCURVE",
"290 -8 CURVE SMOOTH"
);
},
{
closed = 1;
nodes = (
"255 159 OFFCURVE",
"256 163 OFFCURVE",
"295 344 CURVE SMOOTH",
"333 525 OFFCURVE",
"334 529 OFFCURVE",
"404 529 CURVE SMOOTH",
"474 529 OFFCURVE",
"474 525 OFFCURVE",
"436 344 CURVE SMOOTH",
"397 163 OFFCURVE",
"395 159 OFFCURVE",
"325 159 CURVE SMOOTH"
);
}
);
};
layerId = "B4DE345C-CFDB-4A54-B125-3358BD91D59F";
paths = (
{
closed = 1;
nodes = (
"594 -8 OFFCURVE",
"604 54 OFFCURVE",
"668 334 CURVE SMOOTH",
"688 422 OFFCURVE",
"700 489 OFFCURVE",
"700 541 CURVE SMOOTH",
"700 656 OFFCURVE",
"636 696 OFFCURVE",
"423 696 CURVE SMOOTH",
"136 696 OFFCURVE",
"116 632 OFFCURVE",
"63 354 CURVE SMOOTH",
"46 265 OFFCURVE",
"30 197 OFFCURVE",
"30 146 CURVE SMOOTH",
"30 32 OFFCURVE",
"95 -8 OFFCURVE",
"310 -8 CURVE SMOOTH"
);
},
{
closed = 1;
nodes = (
"285 159 OFFCURVE",
"268 160 OFFCURVE",
"268 194 CURVE SMOOTH",
"268 220 OFFCURVE",
"278 265 OFFCURVE",
"295 344 CURVE SMOOTH",
"333 525 OFFCURVE",
"334 529 OFFCURVE",
"404 529 CURVE SMOOTH",
"444 529 OFFCURVE",
"461 528 OFFCURVE",
"461 492 CURVE SMOOTH",
"461 466 OFFCURVE",
"452 420 OFFCURVE",
"436 344 CURVE SMOOTH",
"397 163 OFFCURVE",
"395 159 OFFCURVE",
"325 159 CURVE SMOOTH"
);
}
);
width = 695;
},
{
anchors = (
{
name = bottom;
position = "{154, 0}";
},
{
name = center;
position = "{227, 344}";
},
{
name = ogonek;
position = "{225, 0}";
},
{
name = top;
position = "{303, 688}";
},
{
name = topleft;
position = "{112, 688}";
},
{
name = topright;
position = "{316, 688}";
}
);
background = {
paths = (
{
closed = 1;
nodes = (
"341 -8 OFFCURVE",
"360 82 OFFCURVE",
"416 344 CURVE SMOOTH",
"471 607 OFFCURVE",
"490 696 OFFCURVE",
"306 696 CURVE SMOOTH",
"122 696 OFFCURVE",
"103 607 OFFCURVE",
"48 344 CURVE SMOOTH",
"-7 82 OFFCURVE",
"-26 -8 OFFCURVE",
"157 -8 CURVE SMOOTH"
);
},
{
closed = 1;
nodes = (
"156 131 OFFCURVE",
"157 133 OFFCURVE",
"202 344 CURVE SMOOTH",
"246 555 OFFCURVE",
"247 557 OFFCURVE",
"277 557 CURVE SMOOTH",
"307 557 OFFCURVE",
"306 555 OFFCURVE",
"262 344 CURVE SMOOTH",
"217 133 OFFCURVE",
"216 131 OFFCURVE",
"186 131 CURVE SMOOTH"
);
}
);
};
layerId = "47937877-2CF8-49A0-A6AF-2B1A27CB5FF4";
paths = (
{
closed = 1;
nodes = (
"351 -8 OFFCURVE",
"362 93 OFFCURVE",
"416 344 CURVE SMOOTH",
"438 446 OFFCURVE",
"453 522 OFFCURVE",
"453 576 CURVE SMOOTH",
"453 663 OFFCURVE",
"411 696 OFFCURVE",
"286 696 CURVE SMOOTH",
"116 696 OFFCURVE",
"103 606 OFFCURVE",
"48 344 CURVE SMOOTH",
"27 242 OFFCURVE",
"11 166 OFFCURVE",
"11 112 CURVE SMOOTH",
"11 26 OFFCURVE",
"53 -8 OFFCURVE",
"177 -8 CURVE SMOOTH"
);
},
{
closed = 1;
nodes = (
"173 131 OFFCURVE",
"165 131 OFFCURVE",
"165 150 CURVE SMOOTH",
"165 174 OFFCURVE",
"177 226 OFFCURVE",
"202 344 CURVE SMOOTH",
"246 555 OFFCURVE",
"247 557 OFFCURVE",
"277 557 CURVE SMOOTH",
"290 557 OFFCURVE",
"297 556 OFFCURVE",
"297 537 CURVE SMOOTH",
"297 514 OFFCURVE",
"287 461 OFFCURVE",
"262 344 CURVE SMOOTH",
"217 133 OFFCURVE",
"216 131 OFFCURVE",
"186 131 CURVE SMOOTH"
);
}
);
width = 416;
},
{
anchors = (
{
name = bottom;
position = "{160, 0}";
},
{
name = center;
position = "{233, 344}";
},
{
name = ogonek;
position = "{199, 0}";
},
{
name = top;
position = "{306, 688}";
},
{
name = topleft;
position = "{112, 688}";
},
{
name = topright;
position = "{355, 688}";
}
);
background = {
paths = (
{
closed = 1;
nodes = (
"305 -8 OFFCURVE",
"333 40 OFFCURVE",
"398 344 CURVE SMOOTH",
"462 648 OFFCURVE",
"454 696 OFFCURVE",
"308 696 CURVE SMOOTH",
"162 696 OFFCURVE",
"134 648 OFFCURVE",
"70 344 CURVE SMOOTH",
"6 40 OFFCURVE",
"14 -8 OFFCURVE",
"159 -8 CURVE SMOOTH"
);
},
{
closed = 1;
nodes = (
"57 26 OFFCURVE",
"41 41 OFFCURVE",
"106 344 CURVE SMOOTH",
"170 647 OFFCURVE",
"192 662 OFFCURVE",
"301 662 CURVE SMOOTH",
"410 662 OFFCURVE",
"426 647 OFFCURVE",
"362 344 CURVE SMOOTH",
"297 41 OFFCURVE",
"275 26 OFFCURVE",
"166 26 CURVE SMOOTH"
);
}
);
};
layerId = "FA01890A-5211-455F-9108-1209F66A586C";
paths = (
{
closed = 1;
nodes = (
"309 -8 OFFCURVE",
"336 40 OFFCURVE",
"398 344 CURVE SMOOTH",
"422 459 OFFCURVE",
"436 537 OFFCURVE",
"436 590 CURVE SMOOTH",
"436 677 OFFCURVE",
"396 696 OFFCURVE",
"298 696 CURVE SMOOTH",
"158 696 OFFCURVE",
"131 648 OFFCURVE",
"70 344 CURVE SMOOTH",
"46 229 OFFCURVE",
"32 150 OFFCURVE",
"32 97 CURVE SMOOTH",
"32 10 OFFCURVE",
"72 -8 OFFCURVE",
"169 -8 CURVE SMOOTH"
);
},
{
closed = 1;
nodes = (
"99 26 OFFCURVE",
"67 31 OFFCURVE",
"67 105 CURVE SMOOTH",
"67 151 OFFCURVE",
"81 225 OFFCURVE",
"106 344 CURVE SMOOTH",
"170 647 OFFCURVE",
"192 662 OFFCURVE",
"301 662 CURVE SMOOTH",
"368 662 OFFCURVE",
"399 656 OFFCURVE",
"399 582 CURVE SMOOTH",
"399 536 OFFCURVE",
"387 461 OFFCURVE",
"362 344 CURVE SMOOTH",
"297 41 OFFCURVE",
"274 26 OFFCURVE",
"166 26 CURVE SMOOTH"
);
}
);
width = 428;
},
{
anchors = (
{
name = bottom;
position = "{316, 0}";
},
{
name = center;
position = "{389, 344}";
},
{
name = ogonek;
position = "{383, 0}";
},
{
name = top;
position = "{462, 688}";
},
{
name = topleft;
position = "{112, 688}";
},
{
name = topright;
position = "{575, 688}";
}
);
layerId = "20A7088A-67D7-4614-84CF-19C576DDC019";
paths = (
{
closed = 1;
nodes = (
"602 -8 OFFCURVE",
"620 49 OFFCURVE",
"685 341 CURVE SMOOTH",
"704 426 OFFCURVE",
"714 488 OFFCURVE",
"714 537 CURVE SMOOTH",
"714 662 OFFCURVE",
"651 696 OFFCURVE",
"444 696 CURVE SMOOTH",
"166 696 OFFCURVE",
"145 638 OFFCURVE",
"85 347 CURVE SMOOTH",
"67 261 OFFCURVE",
"55 198 OFFCURVE",
"55 150 CURVE SMOOTH",
"55 26 OFFCURVE",
"118 -8 OFFCURVE",
"326 -8 CURVE SMOOTH"
);
},
{
closed = 1;
nodes = (
"226 96 OFFCURVE",
"186 98 OFFCURVE",
"186 169 CURVE SMOOTH",
"186 206 OFFCURVE",
"197 261 OFFCURVE",
"215 344 CURVE SMOOTH",
"266 587 OFFCURVE",
"276 592 OFFCURVE",
"437 592 CURVE SMOOTH",
"542 592 OFFCURVE",
"581 590 OFFCURVE",
"581 518 CURVE SMOOTH",
"581 480 OFFCURVE",
"572 425 OFFCURVE",
"554 344 CURVE SMOOTH",
"502 101 OFFCURVE",
"491 96 OFFCURVE",
"332 96 CURVE SMOOTH"
);
}
);
width = 739;
},
{
anchors = (
{
name = bottom;
position = "{191, 0}";
},
{
name = center;
position = "{264, 344}";
},
{
name = ogonek;
position = "{250, 0}";
},
{
name = top;
position = "{337, 688}";
},
{
name = topleft;
position = "{112, 688}";
},
{
name = topright;
position = "{381, 688}";
}
);
layerId = "C784E404-3F19-435D-96BB-DB276E1DA8D0";
paths = (
{
closed = 1;
nodes = (
"391 -8 OFFCURVE",
"407 65 OFFCURVE",
"467 343 CURVE SMOOTH",
"489 445 OFFCURVE",
"503 518 OFFCURVE",
"503 569 CURVE SMOOTH",
"503 666 OFFCURVE",
"457 696 OFFCURVE",
"324 696 CURVE SMOOTH",
"139 696 OFFCURVE",
"121 626 OFFCURVE",
"62 345 CURVE SMOOTH",
"41 243 OFFCURVE",
"26 170 OFFCURVE",
"26 118 CURVE SMOOTH",
"26 22 OFFCURVE",
"74 -8 OFFCURVE",
"204 -8 CURVE SMOOTH"
);
},
{
closed = 1;
nodes = (
"162 91 OFFCURVE",
"140 93 OFFCURVE",
"140 140 CURVE SMOOTH",
"140 175 OFFCURVE",
"151 235 OFFCURVE",
"175 344 CURVE SMOOTH {name = \"1.0 \";}",
"226 590 OFFCURVE",
"237 597 OFFCURVE",
"318 597 CURVE SMOOTH",
"366 597 OFFCURVE",
"388 594 OFFCURVE",
"388 547 CURVE SMOOTH",
"388 512 OFFCURVE",
"377 452 OFFCURVE",
"354 344 CURVE SMOOTH",
"302 98 OFFCURVE",
"291 91 OFFCURVE",
"210 91 CURVE SMOOTH"
);
}
);
width = 489;
},
{
anchors = (
{
name = bottom;
position = "{120.798, 0}";
},
{
name = center;
position = "{193.918, 344}";
},
{
name = ogonek;
position = "{163, 0}";
},
{
name = top;
position = "{267.037, 688}";
},
{
name = topleft;
position = "{112.037, 688}";
},
{
name = topright;
position = "{299, 688}";
}
);
layerId = UUID0;
paths = (
{
closed = 1;
nodes = (
"242 -8 OFFCURVE",
"270 42 OFFCURVE",
"331 344 CURVE SMOOTH",
"356 464 OFFCURVE",
"370 543 OFFCURVE",
"370 597 CURVE SMOOTH",
"370 677 OFFCURVE",
"336 696 OFFCURVE",
"260 696 CURVE SMOOTH",
"148 696 OFFCURVE",
"119 644 OFFCURVE",
"60 344 CURVE SMOOTH",
"36 225 OFFCURVE",
"22 144 OFFCURVE",
"22 91 CURVE SMOOTH",
"22 10 OFFCURVE",
"55 -8 OFFCURVE",
"131 -8 CURVE SMOOTH"
);
},
{
closed = 1;
nodes = (
"82 26 OFFCURVE",
"57 32 OFFCURVE",
"57 99 CURVE SMOOTH",
"57 145 OFFCURVE",
"69 220 OFFCURVE",
"95 344 CURVE SMOOTH",
"157 645 OFFCURVE",
"182 662 OFFCURVE",
"263 662 CURVE SMOOTH",
"309 662 OFFCURVE",
"333 655 OFFCURVE",
"333 588 CURVE SMOOTH",
"333 542 OFFCURVE",
"321 466 OFFCURVE",
"295 344 CURVE SMOOTH",
"231 43 OFFCURVE",
"208 26 OFFCURVE",
"129 26 CURVE SMOOTH"
);
}
);
width = 350;
},
{
anchors = (
{
name = bottom;
position = "{116.798, 0}";
},
{
name = center;
position = "{189.918, 344}";
},
{
name = ogonek;
position = "{180, 0}";
},
{
name = top;
position = "{263.037, 688}";
},
{
name = topleft;
position = "{112.037, 688}";
},
{
name = topright;
position = "{281, 688}";
}
);
layerId = "2A096AB6-16C2-4C34-8164-FCBBBF8CEAEB";
paths = (
{
closed = 1;
nodes = (
"286 -8 OFFCURVE",
"298 111 OFFCURVE",
"349 348 CURVE SMOOTH",
"372 457 OFFCURVE",
"387 537 OFFCURVE",
"387 593 CURVE SMOOTH",
"387 666 OFFCURVE",
"351 696 OFFCURVE",
"249 696 CURVE SMOOTH",
"110 696 OFFCURVE",
"98 594 OFFCURVE",
"44 340 CURVE SMOOTH",
"21 231 OFFCURVE",
"6 152 OFFCURVE",
"6 97 CURVE SMOOTH",
"6 23 OFFCURVE",
"42 -8 OFFCURVE",
"142 -8 CURVE SMOOTH"
);
},
{
closed = 1;
nodes = (
"141 118 OFFCURVE",
"136 118 OFFCURVE",
"136 130 CURVE SMOOTH",
"136 151 OFFCURVE",
"148 204 OFFCURVE",
"178 344 CURVE SMOOTH",
"225 569 OFFCURVE",
"226 570 OFFCURVE",
"245 570 CURVE SMOOTH",
"252 570 OFFCURVE",
"256 570 OFFCURVE",
"256 557 CURVE SMOOTH",
"256 537 OFFCURVE",
"245 483 OFFCURVE",
"216 344 CURVE SMOOTH",
"168 119 OFFCURVE",
"167 118 OFFCURVE",
"148 118 CURVE SMOOTH"
);
}
);
width = 342;
},
{
anchors = (
{
name = bottom;
position = "{128.798, 0}";
},
{
name = center;
position = "{201.918, 344}";
},
{
name = ogonek;
position = "{178, 0}";
},
{
name = top;
position = "{275.037, 688}";
},
{
name = topleft;
position = "{112.037, 688}";
},
{
name = topright;
position = "{308, 688}";
}
);
layerId = "B988E418-9469-42FB-AD32-095B8D65BEE5";
paths = (
{
closed = 1;
nodes = (
"277 -8 OFFCURVE",
"297 66 OFFCURVE",
"355 345 CURVE SMOOTH",
"379 461 OFFCURVE",
"394 542 OFFCURVE",
"394 596 CURVE SMOOTH",
"394 673 OFFCURVE",
"357 696 OFFCURVE",
"266 696 CURVE SMOOTH",
"137 696 OFFCURVE",
"117 629 OFFCURVE",
"57 343 CURVE SMOOTH",
"33 227 OFFCURVE",
"17 147 OFFCURVE",
"17 91 CURVE SMOOTH",
"17 15 OFFCURVE",
"53 -8 OFFCURVE",
"146 -8 CURVE SMOOTH"
);
},
{
closed = 1;
nodes = (
"112 63 OFFCURVE",
"96 66 OFFCURVE",
"96 114 CURVE SMOOTH",
"96 151 OFFCURVE",
"110 218 OFFCURVE",
"136 344 CURVE SMOOTH",
"192 614 OFFCURVE",
"204 625 OFFCURVE",
"266 625 CURVE SMOOTH",
"300 625 OFFCURVE",
"314 621 OFFCURVE",
"314 573 CURVE SMOOTH",
"314 538 OFFCURVE",
"304 470 OFFCURVE",
"277 344 CURVE SMOOTH",
"220 74 OFFCURVE",
"207 63 OFFCURVE",
"147 63 CURVE SMOOTH"
);
}
);
width = 366;
},
{
anchors = (
{
name = bottom;
position = "{349.798, 0}";
},
{
name = center;
position = "{422.918, 344}";
},
{
name = ogonek;
position = "{484, 0}";
},
{
name = top;
position = "{496.037, 688}";
},
{
name = topleft;
position = "{112.037, 688}";
},
{
name = topright;
position = "{623, 688}";
}
);
layerId = "8AB9AFA2-7010-440B-BFFC-1C7CDFA1A370";
paths = (
{
closed = 1;
nodes = (
"691 -8 OFFCURVE",
"701 38 OFFCURVE",
"769 330 CURVE SMOOTH",
"788 412 OFFCURVE",
"799 476 OFFCURVE",
"799 527 CURVE SMOOTH",
"799 653 OFFCURVE",
"726 696 OFFCURVE",
"478 696 CURVE SMOOTH",
"144 696 OFFCURVE",
"121 642 OFFCURVE",
"69 358 CURVE SMOOTH",
"54 274 OFFCURVE",
"38 210 OFFCURVE",
"38 160 CURVE SMOOTH",
"38 34 OFFCURVE",
"112 -8 OFFCURVE",
"363 -8 CURVE SMOOTH"
);
},
{
closed = 1;
nodes = (
"330 174 OFFCURVE",
"309 176 OFFCURVE",
"309 215 CURVE SMOOTH",
"309 242 OFFCURVE",
"319 283 OFFCURVE",
"332 344 CURVE SMOOTH",
"368 509 OFFCURVE",
"369 514 OFFCURVE",
"455 514 CURVE SMOOTH",
"506 514 OFFCURVE",
"526 513 OFFCURVE",
"526 470 CURVE SMOOTH",
"526 444 OFFCURVE",
"518 402 OFFCURVE",
"506 344 CURVE",
"469 179 OFFCURVE",
"466 174 OFFCURVE",
"381 174 CURVE SMOOTH"
);
}
);
width = 807;
},
{
anchors = (
{
name = bottom;
position = "{362.798, 0}";
},
{
name = center;
position = "{435.918, 344}";
},
{
name = ogonek;
position = "{439, 0}";
},
{
name = top;
position = "{509.037, 688}";
},
{
name = topleft;
position = "{112.037, 688}";
},
{
name = topright;
position = "{649, 688}";
}
);
layerId = "8494D26F-946F-4BDA-8E04-2FD894ABFEA2";
paths = (
{
closed = 1;
nodes = (
"680 -8 OFFCURVE",
"699 41 OFFCURVE",
"765 340 CURVE SMOOTH",
"783 422 OFFCURVE",
"793 481 OFFCURVE",
"793 529 CURVE SMOOTH",
"793 662 OFFCURVE",
"723 696 OFFCURVE",
"491 696 CURVE SMOOTH",
"181 696 OFFCURVE",
"160 646 OFFCURVE",
"98 348 CURVE SMOOTH",
"80 265 OFFCURVE",
"69 205 OFFCURVE",
"69 158 CURVE SMOOTH",
"69 25 OFFCURVE",
"138 -8 OFFCURVE",
"372 -8 CURVE SMOOTH"
);
},
{
closed = 1;
nodes = (
"242 95 OFFCURVE",
"193 99 OFFCURVE",
"193 173 CURVE SMOOTH",
"193 213 OFFCURVE",
"204 268 OFFCURVE",
"220 344 CURVE SMOOTH",
"274 588 OFFCURVE",
"285 593 OFFCURVE",
"485 593 CURVE SMOOTH",
"620 593 OFFCURVE",
"668 590 OFFCURVE",
"668 514 CURVE SMOOTH",
"668 473 OFFCURVE",
"658 418 OFFCURVE",
"642 344 CURVE SMOOTH",
"587 100 OFFCURVE",
"575 95 OFFCURVE",
"377 95 CURVE SMOOTH"
);
}
);
width = 834;
},
{
anchors = (
{
name = bottom;
position = "{368.798, 0}";
},
{
name = center;
position = "{441.918, 344}";
},
{
name = ogonek;
position = "{414, 0}";
},
{
name = top;
position = "{515.037, 688}";
},
{
name = topleft;
position = "{112.037, 688}";
},
{
name = topright;
position = "{662, 688}";
}
);
layerId = "527899E9-AC81-44FE-89AA-146AC27955A1";
paths = (
{
closed = 1;
nodes = (
"670 -8 OFFCURVE",
"687 27 OFFCURVE",
"756 344 CURVE SMOOTH",
"775 435 OFFCURVE",
"787 502 OFFCURVE",
"787 554 CURVE SMOOTH",
"787 677 OFFCURVE",
"724 696 OFFCURVE",
"503 696 CURVE SMOOTH",
"208 696 OFFCURVE",
"193 671 OFFCURVE",
"121 344 CURVE SMOOTH",
"101 252 OFFCURVE",
"90 182 OFFCURVE",
"90 132 CURVE SMOOTH",
"90 10 OFFCURVE",
"160 -8 OFFCURVE",
"374 -8 CURVE SMOOTH"
);
},
{
closed = 1;
nodes = (
"191 26 OFFCURVE",
"126 28 OFFCURVE",
"126 137 CURVE SMOOTH",
"126 185 OFFCURVE",
"138 250 OFFCURVE",
"157 344 CURVE SMOOTH",
"223 660 OFFCURVE",
"246 662 OFFCURVE",
"506 662 CURVE SMOOTH",
"685 662 OFFCURVE",
"751 660 OFFCURVE",
"751 550 CURVE SMOOTH",
"751 502 OFFCURVE",
"739 437 OFFCURVE",
"720 344 CURVE SMOOTH {name = \"0.8 \";}",
"652 28 OFFCURVE",
"629 26 OFFCURVE",
"371 26 CURVE SMOOTH"
);
}
);
width = 846;
}
);
leftKerningGroup = O;
rightKerningGroup = O;
unicode = 004F;
},
